  0
SECTION
  2
HEADER
  9
$ACADVER
  1
AC1024
  9
$ACADMAINTVER
 70
6
  9
$DWGCODEPAGE
  3
ANSI_1252
  9
$LASTSAVEDBY
  1
ezdxf
  9
$INSBASE
 10
0.0
 20
0.0
 30
0.0
  9
$EXTMIN
 10
1e+20
 20
1e+20
 30
1e+20
  9
$EXTMAX
 10
-1e+20
 20
-1e+20
 30
-1e+20
  9
$LIMMIN
 10
0.0
 20
0.0
  9
$LIMMAX
 10
420.0
 20
297.0
  9
$ORTHOMODE
 70
0
  9
$REGENMODE
 70
1
  9
$FILLMODE
 70
1
  9
$QTEXTMODE
 70
0
  9
$MIRRTEXT
 70
1
  9
$LTSCALE
 40
1.0
  9
$ATTMODE
 70
1
  9
$TEXTSIZE
 40
2.5
  9
$TRACEWID
 40
1.0
  9
$TEXTSTYLE
  7
Standard
  9
$CLAYER
  8
0
  9
$CELTYPE
  6
ByLayer
  9
$CECOLOR
 62
256
  9
$CELTSCALE
 40
1.0
  9
$DISPSILH
 70
0
  9
$DIMSCALE
 40
1.0
  9
$DIMASZ
 40
2.5
  9
$DIMEXO
 40
0.625
  9
$DIMDLI
 40
3.75
  9
$DIMRND
 40
0.0
  9
$DIMDLE
 40
0.0
  9
$DIMEXE
 40
1.25
  9
$DIMTP
 40
0.0
  9
$DIMTM
 40
0.0
  9
$DIMTXT
 40
2.5
  9
$DIMCEN
 40
2.5
  9
$DIMTSZ
 40
0.0
  9
$DIMTOL
 70
0
  9
$DIMLIM
 70
0
  9
$DIMTIH
 70
0
  9
$DIMTOH
 70
0
  9
$DIMSE1
 70
0
  9
$DIMSE2
 70
0
  9
$DIMTAD
 70
1
  9
$DIMZIN
 70
8
  9
$DIMBLK
  1

  9
$DIMASO
 70
1
  9
$DIMSHO
 70
1
  9
$DIMPOST
  1

  9
$DIMAPOST
  1

  9
$DIMALT
 70
0
  9
$DIMALTD
 70
3
  9
$DIMALTF
 40
0.03937007874
  9
$DIMLFAC
 40
1.0
  9
$DIMTOFL
 70
1
  9
$DIMTVP
 40
0.0
  9
$DIMTIX
 70
0
  9
$DIMSOXD
 70
0
  9
$DIMSAH
 70
0
  9
$DIMBLK1
  1

  9
$DIMBLK2
  1

  9
$DIMSTYLE
  2
ISO-25
  9
$DIMCLRD
 70
0
  9
$DIMCLRE
 70
0
  9
$DIMCLRT
 70
0
  9
$DIMTFAC
 40
1.0
  9
$DIMGAP
 40
0.625
  9
$DIMJUST
 70
0
  9
$DIMSD1
 70
0
  9
$DIMSD2
 70
0
  9
$DIMTOLJ
 70
0
  9
$DIMTZIN
 70
8
  9
$DIMALTZ
 70
0
  9
$DIMALTTZ
 70
0
  9
$DIMUPT
 70
0
  9
$DIMDEC
 70
2
  9
$DIMTDEC
 70
2
  9
$DIMALTU
 70
2
  9
$DIMALTTD
 70
3
  9
$DIMTXSTY
  7
Standard
  9
$DIMAUNIT
 70
0
  9
$DIMADEC
 70
0
  9
$DIMALTRND
 40
0.0
  9
$DIMAZIN
 70
0
  9
$DIMDSEP
 70
44
  9
$DIMATFIT
 70
3
  9
$DIMFRAC
 70
0
  9
$DIMLDRBLK
  1

  9
$DIMLUNIT
 70
2
  9
$DIMLWD
 70
-2
  9
$DIMLWE
 70
-2
  9
$DIMTMOVE
 70
0
  9
$DIMFXL
 40
1.0
  9
$DIMFXLON
 70
0
  9
$DIMJOGANG
 40
0.785398163397
  9
$DIMTFILL
 70
0
  9
$DIMTFILLCLR
 70
0
  9
$DIMARCSYM
 70
0
  9
$DIMLTYPE
  6

  9
$DIMLTEX1
  6

  9
$DIMLTEX2
  6

  9
$DIMTXTDIRECTION
 70
0
  9
$LUNITS
 70
2
  9
$LUPREC
 70
4
  9
$SKETCHINC
 40
1.0
  9
$FILLETRAD
 40
10.0
  9
$AUNITS
 70
0
  9
$AUPREC
 70
2
  9
$MENU
  1
.
  9
$ELEVATION
 40
0.0
  9
$PELEVATION
 40
0.0
  9
$THICKNESS
 40
0.0
  9
$LIMCHECK
 70
0
  9
$CHAMFERA
 40
0.0
  9
$CHAMFERB
 40
0.0
  9
$CHAMFERC
 40
0.0
  9
$CHAMFERD
 40
0.0
  9
$SKPOLY
 70
0
  9
$TDCREATE
 40
2461244.8004050925
  9
$TDUCREATE
 40
2458532.153996898
  9
$TDUPDATE
 40
2461244.8004050925
  9
$TDUUPDATE
 40
2458532.1544311
  9
$TDINDWG
 40
0.0
  9
$TDUSRTIMER
 40
0.0
  9
$USRTIMER
 70
1
  9
$ANGBASE
 50
0.0
  9
$ANGDIR
 70
0
  9
$PDMODE
 70
0
  9
$PDSIZE
 40
0.0
  9
$PLINEWID
 40
0.0
  9
$SPLFRAME
 70
0
  9
$SPLINETYPE
 70
6
  9
$SPLINESEGS
 70
8
  9
$HANDSEED
  5
135
  9
$SURFTAB1
 70
6
  9
$SURFTAB2
 70
6
  9
$SURFTYPE
 70
6
  9
$SURFU
 70
6
  9
$SURFV
 70
6
  9
$UCSBASE
  2

  9
$UCSNAME
  2

  9
$UCSORG
 10
0.0
 20
0.0
 30
0.0
  9
$UCSXDIR
 10
1.0
 20
0.0
 30
0.0
  9
$UCSYDIR
 10
0.0
 20
1.0
 30
0.0
  9
$UCSORTHOREF
  2

  9
$UCSORTHOVIEW
 70
0
  9
$UCSORGTOP
 10
0.0
 20
0.0
 30
0.0
  9
$UCSORGBOTTOM
 10
0.0
 20
0.0
 30
0.0
  9
$UCSORGLEFT
 10
0.0
 20
0.0
 30
0.0
  9
$UCSORGRIGHT
 10
0.0
 20
0.0
 30
0.0
  9
$UCSORGFRONT
 10
0.0
 20
0.0
 30
0.0
  9
$UCSORGBACK
 10
0.0
 20
0.0
 30
0.0
  9
$PUCSBASE
  2

  9
$PUCSNAME
  2

  9
$PUCSORG
 10
0.0
 20
0.0
 30
0.0
  9
$PUCSXDIR
 10
1.0
 20
0.0
 30
0.0
  9
$PUCSYDIR
 10
0.0
 20
1.0
 30
0.0
  9
$PUCSORTHOREF
  2

  9
$PUCSORTHOVIEW
 70
0
  9
$PUCSORGTOP
 10
0.0
 20
0.0
 30
0.0
  9
$PUCSORGBOTTOM
 10
0.0
 20
0.0
 30
0.0
  9
$PUCSORGLEFT
 10
0.0
 20
0.0
 30
0.0
  9
$PUCSORGRIGHT
 10
0.0
 20
0.0
 30
0.0
  9
$PUCSORGFRONT
 10
0.0
 20
0.0
 30
0.0
  9
$PUCSORGBACK
 10
0.0
 20
0.0
 30
0.0
  9
$USERI1
 70
0
  9
$USERI2
 70
0
  9
$USERI3
 70
0
  9
$USERI4
 70
0
  9
$USERI5
 70
0
  9
$USERR1
 40
0.0
  9
$USERR2
 40
0.0
  9
$USERR3
 40
0.0
  9
$USERR4
 40
0.0
  9
$USERR5
 40
0.0
  9
$WORLDVIEW
 70
1
  9
$SHADEDGE
 70
3
  9
$SHADEDIF
 70
70
  9
$TILEMODE
 70
1
  9
$MAXACTVP
 70
64
  9
$PINSBASE
 10
0.0
 20
0.0
 30
0.0
  9
$PLIMCHECK
 70
0
  9
$PEXTMIN
 10
1e+20
 20
1e+20
 30
1e+20
  9
$PEXTMAX
 10
-1e+20
 20
-1e+20
 30
-1e+20
  9
$PLIMMIN
 10
0.0
 20
0.0
  9
$PLIMMAX
 10
420.0
 20
297.0
  9
$UNITMODE
 70
0
  9
$VISRETAIN
 70
1
  9
$PLINEGEN
 70
0
  9
$PSLTSCALE
 70
1
  9
$TREEDEPTH
 70
3020
  9
$CMLSTYLE
  2
Standard
  9
$CMLJUST
 70
0
  9
$CMLSCALE
 40
20.0
  9
$PROXYGRAPHICS
 70
1
  9
$MEASUREMENT
 70
1
  9
$CELWEIGHT
370
-1
  9
$ENDCAPS
280
0
  9
$JOINSTYLE
280
0
  9
$LWDISPLAY
290
0
  9
$INSUNITS
 70
4
  9
$HYPERLINKBASE
  1

  9
$STYLESHEET
  1

  9
$XEDIT
290
1
  9
$CEPSNTYPE
380
0
  9
$PSTYLEMODE
290
1
  9
$FINGERPRINTGUID
  2
{CB6E054A-BF68-4221-A4BD-28B8CA3DDF3A}
  9
$VERSIONGUID
  2
{66548FFE-E623-4B6F-BE68-8733EC3B357A}
  9
$EXTNAMES
290
1
  9
$PSVPSCALE
 40
0.0
  9
$OLESTARTUP
290
0
  9
$SORTENTS
280
127
  9
$INDEXCTL
280
0
  9
$HIDETEXT
280
1
  9
$XCLIPFRAME
280
1
  9
$HALOGAP
280
0
  9
$OBSCOLOR
 70
257
  9
$OBSLTYPE
280
0
  9
$INTERSECTIONDISPLAY
280
0
  9
$INTERSECTIONCOLOR
 70
257
  9
$DIMASSOC
280
2
  9
$PROJECTNAME
  1

  9
$CAMERADISPLAY
290
0
  9
$LENSLENGTH
 40
50.0
  9
$CAMERAHEIGHT
 40
0.0
  9
$STEPSPERSEC
 40
24.0
  9
$STEPSIZE
 40
100.0
  9
$3DDWFPREC
 40
2.0
  9
$PSOLWIDTH
 40
0.005
  9
$PSOLHEIGHT
 40
0.08
  9
$LOFTANG1
 40
1.570796326795
  9
$LOFTANG2
 40
1.570796326795
  9
$LOFTMAG1
 40
0.0
  9
$LOFTMAG2
 40
0.0
  9
$LOFTPARAM
 70
7
  9
$LOFTNORMALS
280
1
  9
$LATITUDE
 40
37.795
  9
$LONGITUDE
 40
-122.394
  9
$NORTHDIRECTION
 40
0.0
  9
$TIMEZONE
 70
-8000
  9
$LIGHTGLYPHDISPLAY
280
1
  9
$TILEMODELIGHTSYNCH
280
1
  9
$CMATERIAL
347
20
  9
$SOLIDHIST
280
0
  9
$SHOWHIST
280
1
  9
$DWFFRAME
280
2
  9
$DGNFRAME
280
2
  9
$REALWORLDSCALE
290
1
  9
$INTERFERECOLOR
 62
256
  9
$CSHADOW
280
0
  9
$SHADOWPLANELOCATION
 40
0.0
  0
ENDSEC
  0
SECTION
  2
CLASSES
  0
CLASS
  1
ACDBDICTIONARYWDFLT
  2
AcDbDictionaryWithDefault
  3
ObjectDBX Classes
 90
0
 91
0
280
0
281
0
  0
CLASS
  1
SUN
  2
AcDbSun
  3
SCENEOE
 90
1153
 91
0
280
0
281
0
  0
CLASS
  1
VISUALSTYLE
  2
AcDbVisualStyle
  3
ObjectDBX Classes
 90
4095
 91
0
280
0
281
0
  0
CLASS
  1
MATERIAL
  2
AcDbMaterial
  3
ObjectDBX Classes
 90
1153
 91
0
280
0
281
0
  0
CLASS
  1
SCALE
  2
AcDbScale
  3
ObjectDBX Classes
 90
1153
 91
0
280
0
281
0
  0
CLASS
  1
TABLESTYLE
  2
AcDbTableStyle
  3
ObjectDBX Classes
 90
4095
 91
0
280
0
281
0
  0
CLASS
  1
MLEADERSTYLE
  2
AcDbMLeaderStyle
  3
ACDB_MLEADERSTYLE_CLASS
 90
4095
 91
0
280
0
281
0
  0
CLASS
  1
DICTIONARYVAR
  2
AcDbDictionaryVar
  3
ObjectDBX Classes
 90
0
 91
0
280
0
281
0
  0
CLASS
  1
CELLSTYLEMAP
  2
AcDbCellStyleMap
  3
ObjectDBX Classes
 90
1152
 91
0
280
0
281
0
  0
CLASS
  1
MENTALRAYRENDERSETTINGS
  2
AcDbMentalRayRenderSettings
  3
SCENEOE
 90
1024
 91
0
280
0
281
0
  0
CLASS
  1
ACDBDETAILVIEWSTYLE
  2
AcDbDetailViewStyle
  3
ObjectDBX Classes
 90
1025
 91
0
280
0
281
0
  0
CLASS
  1
ACDBSECTIONVIEWSTYLE
  2
AcDbSectionViewStyle
  3
ObjectDBX Classes
 90
1025
 91
0
280
0
281
0
  0
CLASS
  1
RASTERVARIABLES
  2
AcDbRasterVariables
  3
ISM
 90
0
 91
0
280
0
281
0
  0
CLASS
  1
LAYOUT
  2
AcDbLayout
  3
ObjectDBX Classes
 90
0
 91
0
280
0
281
0
  0
CLASS
  1
ACDBPLACEHOLDER
  2
AcDbPlaceHolder
  3
ObjectDBX Classes
 90
0
 91
0
280
0
281
0
  0
ENDSEC
  0
SECTION
  2
TABLES
  0
TABLE
  2
VPORT
  5
8
330
0
100
AcDbSymbolTable
 70
1
  0
VPORT
  5
23
330
8
100
AcDbSymbolTableRecord
100
AcDbViewportTableRecord
  2
*Active
 70
0
 10
0.0
 20
0.0
 11
1.0
 21
1.0
 12
0.0
 22
0.0
 13
0.0
 23
0.0
 14
0.5
 24
0.5
 15
0.5
 25
0.5
 16
0.0
 26
0.0
 36
1.0
 17
0.0
 27
0.0
 37
0.0
 40
1000.0
 41
1.34
 42
50.0
 43
0.0
 44
0.0
 50
0.0
 51
0.0
 71
0
 72
1000
 73
1
 74
3
 75
0
 76
0
 77
0
 78
0
281
0
 65
0
146
0.0
  0
ENDTAB
  0
TABLE
  2
LTYPE
  5
2
330
0
100
AcDbSymbolTable
 70
3
  0
LTYPE
  5
24
330
2
100
AcDbSymbolTableRecord
100
AcDbLinetypeTableRecord
  2
ByBlock
 70
0
  3

 72
65
 73
0
 40
0.0
  0
LTYPE
  5
25
330
2
100
AcDbSymbolTableRecord
100
AcDbLinetypeTableRecord
  2
ByLayer
 70
0
  3

 72
65
 73
0
 40
0.0
  0
LTYPE
  5
26
330
2
100
AcDbSymbolTableRecord
100
AcDbLinetypeTableRecord
  2
Continuous
 70
0
  3

 72
65
 73
0
 40
0.0
  0
ENDTAB
  0
TABLE
  2
LAYER
  5
1
330
0
100
AcDbSymbolTable
 70
5
  0
LAYER
  5
27
330
1
100
AcDbSymbolTableRecord
100
AcDbLayerTableRecord
  2
0
 70
0
 62
7
  6
Continuous
370
-3
390
13
347
21
  0
LAYER
  5
28
330
1
100
AcDbSymbolTableRecord
100
AcDbLayerTableRecord
  2
Defpoints
 70
0
 62
7
  6
Continuous
290
0
370
-3
390
13
347
21
  0
LAYER
  5
2F
330
1
100
AcDbSymbolTableRecord
100
AcDbLayerTableRecord
  2
CUT
 70
0
 62
1
  6
Continuous
370
-3
390
13
347
21
  0
LAYER
  5
30
330
1
100
AcDbSymbolTableRecord
100
AcDbLayerTableRecord
  2
SKETCH
 70
0
 62
8
  6
Continuous
370
-3
390
13
347
21
  0
LAYER
  5
31
330
1
100
AcDbSymbolTableRecord
100
AcDbLayerTableRecord
  2
ENGRAVE
 70
0
 62
3
  6
Continuous
370
-3
390
13
347
21
  0
ENDTAB
  0
TABLE
  2
STYLE
  5
5
330
0
100
AcDbSymbolTable
 70
1
  0
STYLE
  5
29
330
5
100
AcDbSymbolTableRecord
100
AcDbTextStyleTableRecord
  2
Standard
 70
0
 40
0.0
 41
1.0
 50
0.0
 71
0
 42
2.5
  3
txt
  4

  0
ENDTAB
  0
TABLE
  2
VIEW
  5
7
330
0
100
AcDbSymbolTable
 70
0
  0
ENDTAB
  0
TABLE
  2
UCS
  5
6
330
0
100
AcDbSymbolTable
 70
0
  0
ENDTAB
  0
TABLE
  2
APPID
  5
3
330
0
100
AcDbSymbolTable
 70
3
  0
APPID
  5
2A
330
3
100
AcDbSymbolTableRecord
100
AcDbRegAppTableRecord
  2
ACAD
 70
0
  0
APPID
  5
132
330
3
100
AcDbSymbolTableRecord
100
AcDbRegAppTableRecord
  2
HATCHBACKGROUNDCOLOR
 70
0
  0
APPID
  5
133
330
3
100
AcDbSymbolTableRecord
100
AcDbRegAppTableRecord
  2
EZDXF
 70
0
  0
ENDTAB
  0
TABLE
  2
DIMSTYLE
  5
4
330
0
100
AcDbSymbolTable
 70
1
100
AcDbDimStyleTable
  0
DIMSTYLE
105
2B
330
4
100
AcDbSymbolTableRecord
100
AcDbDimStyleTableRecord
  2
Standard
 70
0
 40
1.0
 41
2.5
 42
0.625
 43
3.75
 44
1.25
 45
0.0
 46
0.0
 47
0.0
 48
0.0
 49
2.5
140
2.5
141
2.5
142
0.0
143
0.03937007874
144
1.0
145
0.0
146
1.0
147
0.625
148
0.0
 69
0
 70
0
 71
0
 72
0
 73
0
 74
0
 75
0
 76
0
 77
1
 78
8
 79
3
170
0
171
3
172
1
173
0
174
0
175
0
176
0
177
0
178
0
179
2
271
2
272
2
273
2
274
3
275
0
276
0
277
2
278
44
279
0
280
0
281
0
282
0
283
0
284
8
285
0
286
0
288
0
289
3
290
0
371
-2
372
-2
  0
ENDTAB
  0
TABLE
  2
BLOCK_RECORD
  5
9
330
0
100
AcDbSymbolTable
 70
2
  0
BLOCK_RECORD
  5
17
330
9
100
AcDbSymbolTableRecord
100
AcDbBlockTableRecord
  2
*Model_Space
340
1A
 70
0
280
1
281
0
  0
BLOCK_RECORD
  5
1B
330
9
100
AcDbSymbolTableRecord
100
AcDbBlockTableRecord
  2
*Paper_Space
340
1E
 70
0
280
1
281
0
  0
ENDTAB
  0
ENDSEC
  0
SECTION
  2
BLOCKS
  0
BLOCK
  5
18
330
17
100
AcDbEntity
  8
0
100
AcDbBlockBegin
  2
*Model_Space
 70
0
 10
0.0
 20
0.0
 30
0.0
  3
*Model_Space
  1

  0
ENDBLK
  5
19
330
17
100
AcDbEntity
  8
0
100
AcDbBlockEnd
  0
BLOCK
  5
1C
330
1B
100
AcDbEntity
  8
0
100
AcDbBlockBegin
  2
*Paper_Space
 70
0
 10
0.0
 20
0.0
 30
0.0
  3
*Paper_Space
  1

  0
ENDBLK
  5
1D
330
1B
100
AcDbEntity
  8
0
100
AcDbBlockEnd
  0
ENDSEC
  0
SECTION
  2
ENTITIES
  0
LWPOLYLINE
  5
32
330
17
100
AcDbEntity
  8
CUT
100
AcDbPolyline
 90
77
 70
1
 10
0.0
 20
0.0
 10
0.0
 20
168.25240805707801
 10
2.4412032837908377
 20
168.25240805707801
 10
3.1185359849177097
 20
168.59107170234043
 10
5.997198618966468
 20
168.25240805707801
 10
22.422534115919
 20
168.25240805707801
 10
23.269201338068036
 20
168.59107170234043
 10
23.269201338068036
 20
172.8244049488518
 10
22.930534987504608
 20
173.332405799707
 10
22.253202286377736
 20
173.84040665056222
 10
22.253202286377736
 20
174.51773394108707
 10
22.761200466482435
 20
175.02573479194228
 10
34.44519898110415
 20
175.02573479194228
 10
35.46120072427536
 20
174.00973309023186
 10
35.7998697663197
 20
173.50173223937662
 10
35.7998697663197
 20
172.9937313885214
 10
34.78386802314849
 20
172.655067743259
 10
34.78386802314849
 20
171.46973960187893
 10
34.78386802314849
 20
170.4537379001685
 10
35.12253706519283
 20
169.94573704931327
 10
34.78386802314849
 20
169.60707340405085
 10
35.12253706519283
 20
168.92973534760284
 10
34.78386802314849
 20
168.59107170234043
 10
35.63053793677843
 20
168.25240805707801
 10
81.51986746459716
 20
168.59107170234043
 10
89.98653430312578
 20
168.25240805707801
 10
90.3251979622083
 20
168.59107170234043
 10
90.3251979622083
 20
174.85640835227267
 10
89.30919621903709
 20
177.39640184062557
 10
89.64787064404322
 20
178.0737398970736
 10
91.51053691788258
 20
178.0737398970736
 10
91.8492005769651
 20
178.41240354233602
 10
92.35720144855071
 20
178.41240354233602
 10
92.69587587355687
 20
178.75106718759844
 10
94.38920493489314
 20
178.75106718759844
 10
94.89720580647875
 20
178.0737398970736
 10
96.42120842123558
 20
177.9044026914808
 10
96.7598720803181
 20
176.04173649365273
 10
96.08253399622944
 20
175.3643984372047
 10
96.08253399622944
 20
168.59107170234043
 10
96.42120842123558
 20
168.25240805707801
 10
108.1052069358573
 20
168.25240805707801
 10
109.79853599719357
 20
168.92973534760284
 10
111.49186505852987
 20
170.2844006945757
 10
114.03186941645788
 20
171.30040239628613
 10
116.57187377438592
 20
172.31640409799658
 10
117.24920109255098
 20
172.31640409799658
 10
117.58787551755714
 20
172.655067743259
 10
117.75720196413658
 20
172.31640409799658
 10
120.12786910956154
 20
172.9937313885214
 10
124.02253886974333
 20
173.67106944496942
 10
127.40919699241587
 20
173.67106944496942
 10
130.45720222192952
 20
173.332405799707
 10
134.85987285369688
 20
172.31640409799658
 10
139.77054435704989
 20
170.2844006945757
 10
142.64920160813682
 20
168.59107170234043
 10
188.70786834845862
 20
168.59107170234043
 10
188.87719479503806
 20
168.76039814201005
 10
189.21586922004423
 20
170.2844006945757
 10
189.21586922004423
 20
174.34840750141746
 10
188.199867476873
 20
175.19507199753508
 10
188.53854190187917
 20
176.04173649365273
 10
189.38519566662367
 20
177.05773819536316
 10
196.83588229382835
 20
177.05773819536316
 10
197.3438616335667
 20
176.71907455010074
 10
197.3438616335667
 20
176.21107369924553
 10
196.66653431540163
 20
175.3643984372047
 10
196.32788142224268
 20
168.59107170234043
 10
196.66653431540163
 20
168.25240805707801
 10
221.38920751282242
 20
168.25240805707801
 10
234.08920777061536
 20
168.59107170234043
 10
245.095878967072
 20
168.59107170234043
 10
247.12788245341443
 20
168.92973534760284
 10
247.46653534657332
 20
169.26839899286526
 10
247.97453621815896
 20
168.92973534760284
 10
251.75346666666667
 20
168.92973534760284
 10
251.75346666666667
 20
0.0
  0
LWPOLYLINE
  5
33
330
17
100
AcDbEntity
  8
CUT
100
AcDbPolyline
 90
4
 70
1
 10
38.50919999999999
 20
117.96040000000002
 10
46.975866666666654
 20
117.96040000000002
 10
46.975866666666654
 20
113.38840000000002
 10
38.50919999999999
 20
113.38840000000002
  0
LWPOLYLINE
  5
34
330
17
100
AcDbEntity
  8
CUT
100
AcDbPolyline
 90
4
 70
1
 10
38.50919999999999
 20
111.52573333333335
 10
41.557199999999995
 20
111.52573333333335
 10
41.557199999999995
 20
100.01106666666668
 10
38.50919999999999
 20
100.01106666666668
  0
LWPOLYLINE
  5
35
330
17
100
AcDbEntity
  8
CUT
100
AcDbPolyline
 90
4
 70
1
 10
43.758533333333325
 20
111.52573333333335
 10
47.145199999999996
 20
111.52573333333335
 10
47.145199999999996
 20
100.01106666666668
 10
43.758533333333325
 20
100.01106666666668
  0
LWPOLYLINE
  5
36
330
17
100
AcDbEntity
  8
CUT
100
AcDbPolyline
 90
4
 70
1
 10
64.24786666666665
 20
111.52573333333335
 10
67.63453333333334
 20
111.52573333333335
 10
67.63453333333334
 20
100.01106666666668
 10
64.24786666666665
 20
100.01106666666668
  0
LWPOLYLINE
  5
37
330
17
100
AcDbEntity
  8
CUT
100
AcDbPolyline
 90
4
 70
1
 10
64.24786666666665
 20
117.96040000000002
 10
72.71453333333332
 20
117.96040000000002
 10
72.71453333333332
 20
113.38840000000002
 10
64.24786666666665
 20
113.38840000000002
  0
LWPOLYLINE
  5
38
330
17
100
AcDbEntity
  8
CUT
100
AcDbPolyline
 90
4
 70
1
 10
69.49719999999999
 20
111.52573333333335
 10
72.71453333333332
 20
111.52573333333335
 10
72.71453333333332
 20
100.01106666666668
 10
69.49719999999999
 20
100.01106666666668
  0
LWPOLYLINE
  5
39
330
17
100
AcDbEntity
  8
CUT
100
AcDbPolyline
 90
4
 70
1
 10
92.52653333333333
 20
111.35640000000002
 10
95.91319999999999
 20
111.35640000000002
 10
95.91319999999999
 20
100.0110666666667
 10
92.52653333333333
 20
100.0110666666667
  0
LWPOLYLINE
  5
3A
330
17
100
AcDbEntity
  8
CUT
100
AcDbPolyline
 90
4
 70
1
 10
92.69586666666666
 20
117.96040000000002
 10
100.9932
 20
117.96040000000002
 10
100.9932
 20
113.38840000000002
 10
92.69586666666666
 20
113.38840000000002
  0
LWPOLYLINE
  5
3B
330
17
100
AcDbEntity
  8
CUT
100
AcDbPolyline
 90
4
 70
1
 10
97.9452
 20
111.52573333333335
 10
100.9932
 20
111.52573333333335
 10
100.9932
 20
100.01106666666668
 10
97.9452
 20
100.01106666666668
  0
LWPOLYLINE
  5
3C
330
17
100
AcDbEntity
  8
CUT
100
AcDbPolyline
 90
4
 70
1
 10
150.60786666666667
 20
117.96040000000002
 10
159.07453333333333
 20
117.96040000000002
 10
159.07453333333333
 20
113.38840000000002
 10
150.60786666666667
 20
113.38840000000002
  0
LWPOLYLINE
  5
3D
330
17
100
AcDbEntity
  8
CUT
100
AcDbPolyline
 90
4
 70
1
 10
150.60786666666667
 20
111.52573333333335
 10
153.8252
 20
111.52573333333335
 10
153.8252
 20
100.01106666666668
 10
150.60786666666667
 20
100.01106666666668
  0
LWPOLYLINE
  5
3E
330
17
100
AcDbEntity
  8
CUT
100
AcDbPolyline
 90
4
 70
1
 10
155.8572
 20
111.52573333333335
 10
159.24386666666666
 20
111.52573333333335
 10
159.24386666666666
 20
100.01106666666668
 10
155.8572
 20
100.01106666666668
  0
LWPOLYLINE
  5
3F
330
17
100
AcDbEntity
  8
CUT
100
AcDbPolyline
 90
4
 70
1
 10
179.05586666666667
 20
111.52573333333335
 10
182.2732
 20
111.52573333333335
 10
182.2732
 20
100.01106666666668
 10
179.05586666666667
 20
100.01106666666668
  0
LWPOLYLINE
  5
40
330
17
100
AcDbEntity
  8
CUT
100
AcDbPolyline
 90
4
 70
1
 10
179.05586666666667
 20
117.96040000000002
 10
187.69186666666667
 20
117.96040000000002
 10
187.69186666666667
 20
113.38840000000002
 10
179.05586666666667
 20
113.38840000000002
  0
LWPOLYLINE
  5
41
330
17
100
AcDbEntity
  8
CUT
100
AcDbPolyline
 90
4
 70
1
 10
184.30519999999999
 20
111.52573333333335
 10
187.5225333333333
 20
111.52573333333335
 10
187.5225333333333
 20
100.01106666666668
 10
184.30519999999999
 20
100.01106666666668
  0
LWPOLYLINE
  5
42
330
17
100
AcDbEntity
  8
CUT
100
AcDbPolyline
 90
4
 70
1
 10
204.79453333333333
 20
117.96040000000002
 10
213.09186666666668
 20
117.96040000000002
 10
213.09186666666668
 20
113.38840000000002
 10
204.79453333333333
 20
113.38840000000002
  0
LWPOLYLINE
  5
43
330
17
100
AcDbEntity
  8
CUT
100
AcDbPolyline
 90
4
 70
1
 10
204.79453333333333
 20
111.52573333333335
 10
207.84253333333334
 20
111.52573333333335
 10
207.84253333333334
 20
100.01106666666668
 10
204.79453333333333
 20
100.01106666666668
  0
LWPOLYLINE
  5
44
330
17
100
AcDbEntity
  8
CUT
100
AcDbPolyline
 90
4
 70
1
 10
209.87453333333332
 20
111.52573333333335
 10
213.09186666666665
 20
111.52573333333335
 10
213.09186666666665
 20
100.01106666666668
 10
209.87453333333332
 20
100.01106666666668
  0
LWPOLYLINE
  5
45
330
17
100
AcDbEntity
  8
CUT
100
AcDbPolyline
 90
4
 70
1
 10
180.91853333333333
 20
147.76306666666667
 10
182.95053333333334
 20
147.76306666666667
 10
182.95053333333334
 20
139.80440000000002
 10
180.91853333333333
 20
139.80440000000002
  0
LWPOLYLINE
  5
46
330
17
100
AcDbEntity
  8
CUT
100
AcDbPolyline
 90
4
 70
1
 10
184.98253333333332
 20
147.76306666666667
 10
187.18386666666666
 20
147.76306666666667
 10
187.18386666666666
 20
139.6350666666667
 10
184.98253333333332
 20
139.6350666666667
  0
LWPOLYLINE
  5
47
330
17
100
AcDbEntity
  8
CUT
100
AcDbPolyline
 90
4
 70
1
 10
205.81053333333332
 20
147.76306666666667
 10
207.84253333333334
 20
147.76306666666667
 10
207.84253333333334
 20
139.6350666666667
 10
205.81053333333332
 20
139.6350666666667
  0
LWPOLYLINE
  5
48
330
17
100
AcDbEntity
  8
CUT
100
AcDbPolyline
 90
4
 70
1
 10
209.87453333333332
 20
147.76306666666667
 10
212.07586666666666
 20
147.76306666666667
 10
212.07586666666666
 20
139.6350666666667
 10
209.87453333333332
 20
139.6350666666667
  0
LWPOLYLINE
  5
49
330
17
100
AcDbEntity
  8
CUT
100
AcDbPolyline
 90
4
 70
1
 10
231.21053333333333
 20
147.76306666666667
 10
233.41186666666667
 20
147.76306666666667
 10
233.41186666666667
 20
139.6350666666667
 10
231.21053333333333
 20
139.6350666666667
  0
LWPOLYLINE
  5
4A
330
17
100
AcDbEntity
  8
CUT
100
AcDbPolyline
 90
4
 70
1
 10
235.44386666666668
 20
147.76306666666667
 10
237.30653333333333
 20
147.76306666666667
 10
237.30653333333333
 20
139.6350666666667
 10
235.44386666666668
 20
139.6350666666667
  0
LWPOLYLINE
  5
4B
330
17
100
AcDbEntity
  8
CUT
100
AcDbPolyline
 90
4
 70
1
 10
179.05586666666667
 20
33.293733333333364
 10
182.2732
 20
33.293733333333364
 10
182.2732
 20
21.609733333333367
 10
179.05586666666667
 20
21.609733333333367
  0
LWPOLYLINE
  5
4C
330
17
100
AcDbEntity
  8
CUT
100
AcDbPolyline
 90
4
 70
1
 10
184.30519999999999
 20
33.293733333333364
 10
187.5225333333333
 20
33.293733333333364
 10
187.5225333333333
 20
21.609733333333367
 10
184.30519999999999
 20
21.609733333333367
  0
LWPOLYLINE
  5
4D
330
17
100
AcDbEntity
  8
CUT
100
AcDbPolyline
 90
4
 70
1
 10
179.05586666666667
 20
39.38973333333334
 10
187.35320000000002
 20
39.38973333333334
 10
187.35320000000002
 20
35.325733333333346
 10
179.05586666666667
 20
35.325733333333346
  0
LWPOLYLINE
  5
4E
330
17
100
AcDbEntity
  8
CUT
100
AcDbPolyline
 90
4
 70
1
 10
204.96386666666666
 20
33.293733333333364
 10
207.84253333333334
 20
33.293733333333364
 10
207.84253333333334
 20
21.609733333333367
 10
204.96386666666666
 20
21.609733333333367
  0
LWPOLYLINE
  5
4F
330
17
100
AcDbEntity
  8
CUT
100
AcDbPolyline
 90
4
 70
1
 10
204.96386666666666
 20
39.38973333333334
 10
213.09186666666665
 20
39.38973333333334
 10
213.09186666666665
 20
35.325733333333346
 10
204.96386666666666
 20
35.325733333333346
  0
LWPOLYLINE
  5
50
330
17
100
AcDbEntity
  8
CUT
100
AcDbPolyline
 90
4
 70
1
 10
209.87453333333332
 20
33.293733333333364
 10
213.26119999999997
 20
33.293733333333364
 10
213.26119999999997
 20
21.609733333333367
 10
209.87453333333332
 20
21.609733333333367
  0
LWPOLYLINE
  5
51
330
17
100
AcDbEntity
  8
CUT
100
AcDbPolyline
 90
4
 70
1
 10
230.5332
 20
33.293733333333364
 10
233.5812
 20
33.293733333333364
 10
233.5812
 20
21.609733333333367
 10
230.5332
 20
21.609733333333367
  0
LWPOLYLINE
  5
52
330
17
100
AcDbEntity
  8
CUT
100
AcDbPolyline
 90
4
 70
1
 10
230.5332
 20
39.38973333333334
 10
238.6612
 20
39.38973333333334
 10
238.6612
 20
35.325733333333346
 10
230.5332
 20
35.325733333333346
  0
LWPOLYLINE
  5
53
330
17
100
AcDbEntity
  8
CUT
100
AcDbPolyline
 90
4
 70
1
 10
235.6132
 20
33.293733333333364
 10
238.83053333333334
 20
33.293733333333364
 10
238.83053333333334
 20
21.609733333333367
 10
235.6132
 20
21.609733333333367
  0
LWPOLYLINE
  5
54
330
17
100
AcDbEntity
  8
CUT
100
AcDbPolyline
 90
4
 70
1
 10
12.770533333333333
 20
32.95506666666668
 10
30.211866666666666
 20
32.95506666666668
 10
30.211866666666666
 20
12.804400000000015
 10
12.770533333333333
 20
12.804400000000015
  0
LWPOLYLINE
  5
55
330
17
100
AcDbEntity
  8
CUT
100
AcDbPolyline
 90
4
 70
1
 10
58.3212
 20
33.12440000000001
 10
75.42386666666667
 20
33.12440000000001
 10
75.42386666666667
 20
12.804400000000015
 10
58.3212
 20
12.804400000000015
  0
LWPOLYLINE
  5
56
330
17
100
AcDbEntity
  8
CUT
100
AcDbPolyline
 90
4
 70
1
 10
12.93986666666666
 20
80.36840000000002
 10
21.40653333333333
 20
80.36840000000002
 10
21.40653333333333
 20
75.96573333333336
 10
12.93986666666666
 20
75.96573333333336
  0
LWPOLYLINE
  5
57
330
17
100
AcDbEntity
  8
CUT
100
AcDbPolyline
 90
4
 70
1
 10
18.1892
 20
73.93373333333335
 10
21.406533333333336
 20
73.93373333333335
 10
21.406533333333336
 20
62.24973333333335
 10
18.1892
 20
62.24973333333335
  0
LWPOLYLINE
  5
58
330
17
100
AcDbEntity
  8
CUT
100
AcDbPolyline
 90
4
 70
1
 10
12.93986666666666
 20
73.93373333333335
 10
16.157199999999996
 20
73.93373333333335
 10
16.157199999999996
 20
62.24973333333335
 10
12.93986666666666
 20
62.24973333333335
  0
LWPOLYLINE
  5
59
330
17
100
AcDbEntity
  8
CUT
100
AcDbPolyline
 90
4
 70
1
 10
38.50919999999999
 20
73.93373333333335
 10
41.895866666666656
 20
73.93373333333335
 10
41.895866666666656
 20
62.24973333333335
 10
38.50919999999999
 20
62.24973333333335
  0
LWPOLYLINE
  5
5A
330
17
100
AcDbEntity
  8
CUT
100
AcDbPolyline
 90
4
 70
1
 10
43.92786666666667
 20
73.93373333333335
 10
47.145199999999996
 20
73.93373333333335
 10
47.145199999999996
 20
62.24973333333335
 10
43.92786666666667
 20
62.24973333333335
  0
LWPOLYLINE
  5
5B
330
17
100
AcDbEntity
  8
CUT
100
AcDbPolyline
 90
4
 70
1
 10
38.50919999999999
 20
80.36840000000002
 10
47.145199999999996
 20
80.36840000000002
 10
47.145199999999996
 20
75.96573333333336
 10
38.50919999999999
 20
75.96573333333336
  0
LWPOLYLINE
  5
5C
330
17
100
AcDbEntity
  8
CUT
100
AcDbPolyline
 90
4
 70
1
 10
64.24786666666665
 20
73.93373333333335
 10
67.63453333333334
 20
73.93373333333335
 10
67.63453333333334
 20
62.41906666666668
 10
64.24786666666665
 20
62.41906666666668
  0
LWPOLYLINE
  5
5D
330
17
100
AcDbEntity
  8
CUT
100
AcDbPolyline
 90
4
 70
1
 10
64.24786666666665
 20
80.36840000000002
 10
72.88386666666665
 20
80.36840000000002
 10
72.88386666666665
 20
75.96573333333336
 10
64.24786666666665
 20
75.96573333333336
  0
LWPOLYLINE
  5
5E
330
17
100
AcDbEntity
  8
CUT
100
AcDbPolyline
 90
4
 70
1
 10
69.66653333333332
 20
73.93373333333335
 10
72.88386666666665
 20
73.93373333333335
 10
72.88386666666665
 20
62.24973333333335
 10
69.66653333333332
 20
62.24973333333335
  0
LWPOLYLINE
  5
5F
330
17
100
AcDbEntity
  8
CUT
100
AcDbPolyline
 90
4
 70
1
 10
179.05586666666667
 20
73.93373333333335
 10
182.2732
 20
73.93373333333335
 10
182.2732
 20
62.58840000000001
 10
179.05586666666667
 20
62.58840000000001
  0
LWPOLYLINE
  5
60
330
17
100
AcDbEntity
  8
CUT
100
AcDbPolyline
 90
4
 70
1
 10
179.05586666666667
 20
80.36840000000002
 10
187.69186666666667
 20
80.36840000000002
 10
187.69186666666667
 20
75.96573333333336
 10
179.05586666666667
 20
75.96573333333336
  0
LWPOLYLINE
  5
61
330
17
100
AcDbEntity
  8
CUT
100
AcDbPolyline
 90
4
 70
1
 10
184.30519999999999
 20
73.93373333333335
 10
187.5225333333333
 20
73.93373333333335
 10
187.5225333333333
 20
62.58840000000001
 10
184.30519999999999
 20
62.58840000000001
  0
LWPOLYLINE
  5
62
330
17
100
AcDbEntity
  8
CUT
100
AcDbPolyline
 90
4
 70
1
 10
204.79453333333333
 20
73.93373333333335
 10
207.84253333333334
 20
73.93373333333335
 10
207.84253333333334
 20
62.58840000000001
 10
204.79453333333333
 20
62.58840000000001
  0
LWPOLYLINE
  5
63
330
17
100
AcDbEntity
  8
CUT
100
AcDbPolyline
 90
4
 70
1
 10
204.79453333333333
 20
80.36840000000002
 10
213.2612
 20
80.36840000000002
 10
213.2612
 20
75.96573333333336
 10
204.79453333333333
 20
75.96573333333336
  0
LWPOLYLINE
  5
64
330
17
100
AcDbEntity
  8
CUT
100
AcDbPolyline
 90
4
 70
1
 10
209.87453333333332
 20
73.93373333333335
 10
213.26119999999997
 20
73.93373333333335
 10
213.26119999999997
 20
62.58840000000001
 10
209.87453333333332
 20
62.58840000000001
  0
LWPOLYLINE
  5
65
330
17
100
AcDbEntity
  8
CUT
100
AcDbPolyline
 90
4
 70
1
 10
230.5332
 20
73.93373333333335
 10
233.5812
 20
73.93373333333335
 10
233.5812
 20
62.58840000000001
 10
230.5332
 20
62.58840000000001
  0
LWPOLYLINE
  5
66
330
17
100
AcDbEntity
  8
CUT
100
AcDbPolyline
 90
4
 70
1
 10
230.5332
 20
80.36840000000002
 10
238.99986666666666
 20
80.36840000000002
 10
238.99986666666666
 20
75.96573333333336
 10
230.5332
 20
75.96573333333336
  0
LWPOLYLINE
  5
67
330
17
100
AcDbEntity
  8
CUT
100
AcDbPolyline
 90
4
 70
1
 10
235.78253333333333
 20
73.93373333333335
 10
238.99986666666666
 20
73.93373333333335
 10
238.99986666666666
 20
62.58840000000001
 10
235.78253333333333
 20
62.58840000000001
  0
LWPOLYLINE
  5
68
330
17
100
AcDbEntity
  8
CUT
100
AcDbPolyline
 90
4
 70
1
 10
188.29226666666668
 20
128.98973333333333
 10
193.29226666666668
 20
128.98973333333333
 10
193.29226666666668
 20
131.88973333333334
 10
188.29226666666668
 20
131.88973333333334
  0
LWPOLYLINE
  5
69
330
17
100
AcDbEntity
  8
CUT
100
AcDbPolyline
 90
4
 70
1
 10
225.79226666666668
 20
128.98973333333333
 10
230.79226666666668
 20
128.98973333333333
 10
230.79226666666668
 20
131.88973333333334
 10
225.79226666666668
 20
131.88973333333334
  0
LWPOLYLINE
  5
6A
330
17
100
AcDbEntity
  8
CUT
100
AcDbPolyline
 90
4
 70
1
 10
172.04226666666668
 20
143.98973333333333
 10
174.94226666666668
 20
143.98973333333333
 10
174.94226666666668
 20
148.98973333333333
 10
172.04226666666668
 20
148.98973333333333
  0
LWPOLYLINE
  5
6B
330
17
100
AcDbEntity
  8
CUT
100
AcDbPolyline
 90
4
 70
1
 10
195.34226666666666
 20
143.98973333333333
 10
198.24226666666667
 20
143.98973333333333
 10
198.24226666666667
 20
148.98973333333333
 10
195.34226666666666
 20
148.98973333333333
  0
LWPOLYLINE
  5
6C
330
17
100
AcDbEntity
  8
CUT
100
AcDbPolyline
 90
4
 70
1
 10
218.64226666666667
 20
143.98973333333333
 10
221.54226666666668
 20
143.98973333333333
 10
221.54226666666668
 20
148.98973333333333
 10
218.64226666666667
 20
148.98973333333333
  0
LWPOLYLINE
  5
6D
330
17
100
AcDbEntity
  8
CUT
100
AcDbPolyline
 90
4
 70
1
 10
244.14226666666667
 20
143.98973333333333
 10
247.0422666666667
 20
143.98973333333333
 10
247.0422666666667
 20
148.98973333333333
 10
244.14226666666667
 20
148.98973333333333
  0
LWPOLYLINE
  5
6E
330
17
100
AcDbEntity
  8
CUT
100
AcDbPolyline
 90
4
 70
1
 10
48.33826666666666
 20
94.78440000000002
 10
53.33826666666666
 20
94.78440000000002
 10
53.33826666666666
 20
97.68440000000001
 10
48.33826666666666
 20
97.68440000000001
  0
LWPOLYLINE
  5
6F
330
17
100
AcDbEntity
  8
CUT
100
AcDbPolyline
 90
4
 70
1
 10
85.83826666666667
 20
94.78440000000002
 10
90.83826666666667
 20
94.78440000000002
 10
90.83826666666667
 20
97.68440000000001
 10
85.83826666666667
 20
97.68440000000001
  0
LWPOLYLINE
  5
70
330
17
100
AcDbEntity
  8
CUT
100
AcDbPolyline
 90
4
 70
1
 10
32.08826666666666
 20
109.78440000000002
 10
34.98826666666666
 20
109.78440000000002
 10
34.98826666666666
 20
114.78440000000002
 10
32.08826666666666
 20
114.78440000000002
  0
LWPOLYLINE
  5
71
330
17
100
AcDbEntity
  8
CUT
100
AcDbPolyline
 90
4
 70
1
 10
55.38826666666666
 20
109.78440000000002
 10
58.28826666666665
 20
109.78440000000002
 10
58.28826666666665
 20
114.78440000000002
 10
55.38826666666666
 20
114.78440000000002
  0
LWPOLYLINE
  5
72
330
17
100
AcDbEntity
  8
CUT
100
AcDbPolyline
 90
4
 70
1
 10
78.68826666666666
 20
109.78440000000002
 10
81.58826666666667
 20
109.78440000000002
 10
81.58826666666667
 20
114.78440000000002
 10
78.68826666666666
 20
114.78440000000002
  0
LWPOLYLINE
  5
73
330
17
100
AcDbEntity
  8
CUT
100
AcDbPolyline
 90
4
 70
1
 10
104.18826666666666
 20
109.78440000000002
 10
107.08826666666667
 20
109.78440000000002
 10
107.08826666666667
 20
114.78440000000002
 10
104.18826666666666
 20
114.78440000000002
  0
LWPOLYLINE
  5
74
330
17
100
AcDbEntity
  8
CUT
100
AcDbPolyline
 90
4
 70
1
 10
160.77560000000003
 20
94.78440000000002
 10
165.77560000000003
 20
94.78440000000002
 10
165.77560000000003
 20
97.68440000000001
 10
160.77560000000003
 20
97.68440000000001
  0
LWPOLYLINE
  5
75
330
17
100
AcDbEntity
  8
CUT
100
AcDbPolyline
 90
4
 70
1
 10
198.27560000000003
 20
94.78440000000002
 10
203.27560000000003
 20
94.78440000000002
 10
203.27560000000003
 20
97.68440000000001
 10
198.27560000000003
 20
97.68440000000001
  0
LWPOLYLINE
  5
76
330
17
100
AcDbEntity
  8
CUT
100
AcDbPolyline
 90
4
 70
1
 10
144.52560000000003
 20
109.78440000000002
 10
147.42560000000003
 20
109.78440000000002
 10
147.42560000000003
 20
114.78440000000002
 10
144.52560000000003
 20
114.78440000000002
  0
LWPOLYLINE
  5
77
330
17
100
AcDbEntity
  8
CUT
100
AcDbPolyline
 90
4
 70
1
 10
167.8256
 20
109.78440000000002
 10
170.72560000000001
 20
109.78440000000002
 10
170.72560000000001
 20
114.78440000000002
 10
167.8256
 20
114.78440000000002
  0
LWPOLYLINE
  5
78
330
17
100
AcDbEntity
  8
CUT
100
AcDbPolyline
 90
4
 70
1
 10
191.12560000000002
 20
109.78440000000002
 10
194.02560000000003
 20
109.78440000000002
 10
194.02560000000003
 20
114.78440000000002
 10
191.12560000000002
 20
114.78440000000002
  0
LWPOLYLINE
  5
79
330
17
100
AcDbEntity
  8
CUT
100
AcDbPolyline
 90
4
 70
1
 10
216.62560000000002
 20
109.78440000000002
 10
219.52560000000003
 20
109.78440000000002
 10
219.52560000000003
 20
114.78440000000002
 10
216.62560000000002
 20
114.78440000000002
  0
LWPOLYLINE
  5
7A
330
17
100
AcDbEntity
  8
CUT
100
AcDbPolyline
 90
4
 70
1
 10
21.498933333333333
 20
57.02306666666669
 10
26.498933333333333
 20
57.02306666666669
 10
26.498933333333333
 20
59.92306666666667
 10
21.498933333333333
 20
59.92306666666667
  0
LWPOLYLINE
  5
7B
330
17
100
AcDbEntity
  8
CUT
100
AcDbPolyline
 90
4
 70
1
 10
58.99893333333333
 20
57.02306666666669
 10
63.99893333333333
 20
57.02306666666669
 10
63.99893333333333
 20
59.92306666666667
 10
58.99893333333333
 20
59.92306666666667
  0
LWPOLYLINE
  5
7C
330
17
100
AcDbEntity
  8
CUT
100
AcDbPolyline
 90
4
 70
1
 10
5.2489333333333335
 20
72.0230666666667
 10
8.148933333333332
 20
72.0230666666667
 10
8.148933333333332
 20
77.02306666666668
 10
5.2489333333333335
 20
77.02306666666668
  0
LWPOLYLINE
  5
7D
330
17
100
AcDbEntity
  8
CUT
100
AcDbPolyline
 90
4
 70
1
 10
28.54893333333333
 20
72.0230666666667
 10
31.44893333333333
 20
72.0230666666667
 10
31.44893333333333
 20
77.02306666666668
 10
28.54893333333333
 20
77.02306666666668
  0
LWPOLYLINE
  5
7E
330
17
100
AcDbEntity
  8
CUT
100
AcDbPolyline
 90
4
 70
1
 10
51.84893333333333
 20
72.0230666666667
 10
54.74893333333332
 20
72.0230666666667
 10
54.74893333333332
 20
77.02306666666668
 10
51.84893333333333
 20
77.02306666666668
  0
LWPOLYLINE
  5
7F
330
17
100
AcDbEntity
  8
CUT
100
AcDbPolyline
 90
4
 70
1
 10
77.34893333333332
 20
72.0230666666667
 10
80.24893333333333
 20
72.0230666666667
 10
80.24893333333333
 20
77.02306666666668
 10
77.34893333333332
 20
77.02306666666668
  0
LWPOLYLINE
  5
80
330
17
100
AcDbEntity
  8
CUT
100
AcDbPolyline
 90
4
 70
1
 10
230.5382666666667
 20
57.02306666666669
 10
225.5382666666667
 20
57.02306666666669
 10
225.5382666666667
 20
59.92306666666667
 10
230.5382666666667
 20
59.92306666666667
  0
LWPOLYLINE
  5
81
330
17
100
AcDbEntity
  8
CUT
100
AcDbPolyline
 90
4
 70
1
 10
193.0382666666667
 20
57.02306666666669
 10
188.0382666666667
 20
57.02306666666669
 10
188.0382666666667
 20
59.92306666666667
 10
193.0382666666667
 20
59.92306666666667
  0
LWPOLYLINE
  5
82
330
17
100
AcDbEntity
  8
CUT
100
AcDbPolyline
 90
4
 70
1
 10
246.7882666666667
 20
72.0230666666667
 10
243.8882666666667
 20
72.0230666666667
 10
243.8882666666667
 20
77.02306666666668
 10
246.7882666666667
 20
77.02306666666668
  0
LWPOLYLINE
  5
83
330
17
100
AcDbEntity
  8
CUT
100
AcDbPolyline
 90
4
 70
1
 10
223.48826666666668
 20
72.0230666666667
 10
220.5882666666667
 20
72.0230666666667
 10
220.5882666666667
 20
77.02306666666668
 10
223.48826666666668
 20
77.02306666666668
  0
LWPOLYLINE
  5
84
330
17
100
AcDbEntity
  8
CUT
100
AcDbPolyline
 90
4
 70
1
 10
200.1882666666667
 20
72.0230666666667
 10
197.2882666666667
 20
72.0230666666667
 10
197.2882666666667
 20
77.02306666666668
 10
200.1882666666667
 20
77.02306666666668
  0
LWPOLYLINE
  5
85
330
17
100
AcDbEntity
  8
CUT
100
AcDbPolyline
 90
4
 70
1
 10
174.6882666666667
 20
72.0230666666667
 10
171.7882666666667
 20
72.0230666666667
 10
171.7882666666667
 20
77.02306666666668
 10
174.6882666666667
 20
77.02306666666668
  0
LWPOLYLINE
  5
86
330
17
100
AcDbEntity
  8
CUT
100
AcDbPolyline
 90
4
 70
1
 10
64.49000000000001
 20
8.028400000000033
 10
59.49
 20
8.028400000000033
 10
59.49
 20
10.928400000000039
 10
64.49000000000001
 20
10.928400000000039
  0
LWPOLYLINE
  5
87
330
17
100
AcDbEntity
  8
CUT
100
AcDbPolyline
 90
4
 70
1
 10
26.989999999999995
 20
8.028400000000033
 10
21.989999999999995
 20
8.028400000000033
 10
21.989999999999995
 20
10.928400000000039
 10
26.989999999999995
 20
10.928400000000039
  0
LWPOLYLINE
  5
88
330
17
100
AcDbEntity
  8
CUT
100
AcDbPolyline
 90
4
 70
1
 10
80.74000000000001
 20
26.528400000000033
 10
77.84
 20
26.528400000000033
 10
77.84
 20
31.528400000000033
 10
80.74000000000001
 20
31.528400000000033
  0
LWPOLYLINE
  5
89
330
17
100
AcDbEntity
  8
CUT
100
AcDbPolyline
 90
4
 70
1
 10
57.43999999999999
 20
26.528400000000033
 10
54.54
 20
26.528400000000033
 10
54.54
 20
31.528400000000033
 10
57.43999999999999
 20
31.528400000000033
  0
LWPOLYLINE
  5
8A
330
17
100
AcDbEntity
  8
CUT
100
AcDbPolyline
 90
4
 70
1
 10
34.14
 20
26.528400000000033
 10
31.240000000000002
 20
26.528400000000033
 10
31.240000000000002
 20
31.528400000000033
 10
34.14
 20
31.528400000000033
  0
LWPOLYLINE
  5
8B
330
17
100
AcDbEntity
  8
CUT
100
AcDbPolyline
 90
4
 70
1
 10
8.64
 20
26.528400000000033
 10
5.739999999999995
 20
26.528400000000033
 10
5.739999999999995
 20
31.528400000000033
 10
8.64
 20
31.528400000000033
  0
LWPOLYLINE
  5
8C
330
17
100
AcDbEntity
  8
CUT
100
AcDbPolyline
 90
4
 70
1
 10
187.73346666666666
 20
16.21373333333335
 10
192.73346666666666
 20
16.21373333333335
 10
192.73346666666666
 20
19.113733333333357
 10
187.73346666666666
 20
19.113733333333357
  0
LWPOLYLINE
  5
8D
330
17
100
AcDbEntity
  8
CUT
100
AcDbPolyline
 90
4
 70
1
 10
225.23346666666666
 20
16.21373333333335
 10
230.23346666666666
 20
16.21373333333335
 10
230.23346666666666
 20
19.113733333333357
 10
225.23346666666666
 20
19.113733333333357
  0
LWPOLYLINE
  5
8E
330
17
100
AcDbEntity
  8
CUT
100
AcDbPolyline
 90
4
 70
1
 10
171.48346666666666
 20
31.21373333333335
 10
174.38346666666666
 20
31.21373333333335
 10
174.38346666666666
 20
36.21373333333335
 10
171.48346666666666
 20
36.21373333333335
  0
LWPOLYLINE
  5
8F
330
17
100
AcDbEntity
  8
CUT
100
AcDbPolyline
 90
4
 70
1
 10
194.78346666666664
 20
31.21373333333335
 10
197.68346666666665
 20
31.21373333333335
 10
197.68346666666665
 20
36.21373333333335
 10
194.78346666666664
 20
36.21373333333335
  0
LWPOLYLINE
  5
90
330
17
100
AcDbEntity
  8
CUT
100
AcDbPolyline
 90
4
 70
1
 10
218.08346666666665
 20
31.21373333333335
 10
220.98346666666666
 20
31.21373333333335
 10
220.98346666666666
 20
36.21373333333335
 10
218.08346666666665
 20
36.21373333333335
  0
LWPOLYLINE
  5
91
330
17
100
AcDbEntity
  8
CUT
100
AcDbPolyline
 90
4
 70
1
 10
243.58346666666665
 20
31.21373333333335
 10
246.4834666666667
 20
31.21373333333335
 10
246.4834666666667
 20
36.21373333333335
 10
243.58346666666665
 20
36.21373333333335
  0
LWPOLYLINE
  5
92
330
17
100
AcDbEntity
  8
CUT
100
AcDbPolyline
 90
4
 70
0
 10
0.0
 20
148.37640000000002
 10
3.0
 20
148.37640000000002
 10
3.0
 20
138.4764
 10
0.0
 20
138.4764
  0
LWPOLYLINE
  5
93
330
17
100
AcDbEntity
  8
CUT
100
AcDbPolyline
 90
4
 70
0
 10
251.75346666666667
 20
148.37640000000002
 10
248.75346666666667
 20
148.37640000000002
 10
248.75346666666667
 20
138.4764
 10
251.75346666666667
 20
138.4764
  0
LWPOLYLINE
  5
94
330
17
100
AcDbEntity
  8
CUT
100
AcDbPolyline
 90
4
 70
0
 10
0.0
 20
48.37640000000002
 10
3.0
 20
48.37640000000002
 10
3.0
 20
38.47640000000001
 10
0.0
 20
38.47640000000001
  0
LWPOLYLINE
  5
95
330
17
100
AcDbEntity
  8
CUT
100
AcDbPolyline
 90
4
 70
0
 10
251.75346666666667
 20
48.37640000000002
 10
248.75346666666667
 20
48.37640000000002
 10
248.75346666666667
 20
38.47640000000001
 10
251.75346666666667
 20
38.47640000000001
  0
LWPOLYLINE
  5
96
330
17
100
AcDbEntity
  8
CUT
100
AcDbPolyline
 90
4
 70
1
 10
18.050000000000004
 20
166.4264
 10
27.950000000000003
 20
166.4264
 10
27.950000000000003
 20
163.4264
 10
18.050000000000004
 20
163.4264
  0
LWPOLYLINE
  5
97
330
17
100
AcDbEntity
  8
CUT
100
AcDbPolyline
 90
4
 70
0
 10
18.050000000000004
 20
0.0
 10
18.050000000000004
 20
3.0
 10
27.950000000000003
 20
3.0
 10
27.950000000000003
 20
0.0
  0
LWPOLYLINE
  5
98
330
17
100
AcDbEntity
  8
CUT
100
AcDbPolyline
 90
4
 70
1
 10
118.05000000000001
 20
166.4264
 10
127.95000000000002
 20
166.4264
 10
127.95000000000002
 20
163.4264
 10
118.05000000000001
 20
163.4264
  0
LWPOLYLINE
  5
99
330
17
100
AcDbEntity
  8
CUT
100
AcDbPolyline
 90
4
 70
0
 10
118.05000000000001
 20
0.0
 10
118.05000000000001
 20
3.0
 10
127.95000000000002
 20
3.0
 10
127.95000000000002
 20
0.0
  0
LWPOLYLINE
  5
9A
330
17
100
AcDbEntity
  8
CUT
100
AcDbPolyline
 90
4
 70
1
 10
218.05
 20
166.4264
 10
227.95000000000002
 20
166.4264
 10
227.95000000000002
 20
163.4264
 10
218.05
 20
163.4264
  0
LWPOLYLINE
  5
9B
330
17
100
AcDbEntity
  8
CUT
100
AcDbPolyline
 90
4
 70
0
 10
218.05
 20
0.0
 10
218.05
 20
3.0
 10
227.95000000000002
 20
3.0
 10
227.95000000000002
 20
0.0
  0
TEXT
  5
9C
330
17
100
AcDbEntity
  8
ENGRAVE
100
AcDbText
 10
209.54226666666668
 20
125.98973333333335
 30
0.0
 40
2.32
  1
1
 72
1
 11
209.54226666666668
 21
125.98973333333335
 31
0.0
100
AcDbText
 73
2
  0
TEXT
  5
9D
330
17
100
AcDbEntity
  8
ENGRAVE
100
AcDbText
 10
173.49226666666667
 20
140.98973333333333
 30
0.0
 40
2.32
  1
1
 72
1
 11
173.49226666666667
 21
140.98973333333333
 31
0.0
100
AcDbText
 73
2
  0
TEXT
  5
9E
330
17
100
AcDbEntity
  8
ENGRAVE
100
AcDbText
 10
245.59226666666666
 20
140.98973333333333
 30
0.0
 40
2.32
  1
1
 72
1
 11
245.59226666666666
 21
140.98973333333333
 31
0.0
100
AcDbText
 73
2
  0
TEXT
  5
9F
330
17
100
AcDbEntity
  8
ENGRAVE
100
AcDbText
 10
196.79226666666668
 20
140.98973333333333
 30
0.0
 40
2.32
  1
1
 72
1
 11
196.79226666666668
 21
140.98973333333333
 31
0.0
100
AcDbText
 73
2
  0
TEXT
  5
A0
330
17
100
AcDbEntity
  8
ENGRAVE
100
AcDbText
 10
220.09226666666666
 20
140.98973333333333
 30
0.0
 40
2.32
  1
1
 72
1
 11
220.09226666666666
 21
140.98973333333333
 31
0.0
100
AcDbText
 73
2
  0
TEXT
  5
A1
330
17
100
AcDbEntity
  8
ENGRAVE
100
AcDbText
 10
69.58826666666667
 20
91.78440000000002
 30
0.0
 40
2.32
  1
1
 72
1
 11
69.58826666666667
 21
91.78440000000002
 31
0.0
100
AcDbText
 73
2
  0
TEXT
  5
A2
330
17
100
AcDbEntity
  8
ENGRAVE
100
AcDbText
 10
33.538266666666665
 20
106.78440000000002
 30
0.0
 40
2.32
  1
1
 72
1
 11
33.538266666666665
 21
106.78440000000002
 31
0.0
100
AcDbText
 73
2
  0
TEXT
  5
A3
330
17
100
AcDbEntity
  8
ENGRAVE
100
AcDbText
 10
105.63826666666665
 20
106.78440000000002
 30
0.0
 40
2.32
  1
1
 72
1
 11
105.63826666666665
 21
106.78440000000002
 31
0.0
100
AcDbText
 73
2
  0
TEXT
  5
A4
330
17
100
AcDbEntity
  8
ENGRAVE
100
AcDbText
 10
56.83826666666666
 20
106.78440000000002
 30
0.0
 40
2.32
  1
1
 72
1
 11
56.83826666666666
 21
106.78440000000002
 31
0.0
100
AcDbText
 73
2
  0
TEXT
  5
A5
330
17
100
AcDbEntity
  8
ENGRAVE
100
AcDbText
 10
80.13826666666665
 20
106.78440000000002
 30
0.0
 40
2.32
  1
1
 72
1
 11
80.13826666666665
 21
106.78440000000002
 31
0.0
100
AcDbText
 73
2
  0
TEXT
  5
A6
330
17
100
AcDbEntity
  8
ENGRAVE
100
AcDbText
 10
182.02560000000003
 20
91.78440000000002
 30
0.0
 40
2.32
  1
1
 72
1
 11
182.02560000000003
 21
91.78440000000002
 31
0.0
100
AcDbText
 73
2
  0
TEXT
  5
A7
330
17
100
AcDbEntity
  8
ENGRAVE
100
AcDbText
 10
145.97560000000001
 20
106.78440000000002
 30
0.0
 40
2.32
  1
1
 72
1
 11
145.97560000000001
 21
106.78440000000002
 31
0.0
100
AcDbText
 73
2
  0
TEXT
  5
A8
330
17
100
AcDbEntity
  8
ENGRAVE
100
AcDbText
 10
218.0756
 20
106.78440000000002
 30
0.0
 40
2.32
  1
1
 72
1
 11
218.0756
 21
106.78440000000002
 31
0.0
100
AcDbText
 73
2
  0
TEXT
  5
A9
330
17
100
AcDbEntity
  8
ENGRAVE
100
AcDbText
 10
169.27560000000003
 20
106.78440000000002
 30
0.0
 40
2.32
  1
1
 72
1
 11
169.27560000000003
 21
106.78440000000002
 31
0.0
100
AcDbText
 73
2
  0
TEXT
  5
AA
330
17
100
AcDbEntity
  8
ENGRAVE
100
AcDbText
 10
192.5756
 20
106.78440000000002
 30
0.0
 40
2.32
  1
1
 72
1
 11
192.5756
 21
106.78440000000002
 31
0.0
100
AcDbText
 73
2
  0
TEXT
  5
AB
330
17
100
AcDbEntity
  8
ENGRAVE
100
AcDbText
 10
42.74893333333333
 20
54.02306666666669
 30
0.0
 40
2.32
  1
1
 72
1
 11
42.74893333333333
 21
54.02306666666669
 31
0.0
100
AcDbText
 73
2
  0
TEXT
  5
AC
330
17
100
AcDbEntity
  8
ENGRAVE
100
AcDbText
 10
6.698933333333333
 20
69.0230666666667
 30
0.0
 40
2.32
  1
1
 72
1
 11
6.698933333333333
 21
69.0230666666667
 31
0.0
100
AcDbText
 73
2
  0
TEXT
  5
AD
330
17
100
AcDbEntity
  8
ENGRAVE
100
AcDbText
 10
78.79893333333334
 20
69.0230666666667
 30
0.0
 40
2.32
  1
1
 72
1
 11
78.79893333333334
 21
69.0230666666667
 31
0.0
100
AcDbText
 73
2
  0
TEXT
  5
AE
330
17
100
AcDbEntity
  8
ENGRAVE
100
AcDbText
 10
29.998933333333333
 20
69.0230666666667
 30
0.0
 40
2.32
  1
1
 72
1
 11
29.998933333333333
 21
69.0230666666667
 31
0.0
100
AcDbText
 73
2
  0
TEXT
  5
AF
330
17
100
AcDbEntity
  8
ENGRAVE
100
AcDbText
 10
53.29893333333333
 20
69.0230666666667
 30
0.0
 40
2.32
  1
1
 72
1
 11
53.29893333333333
 21
69.0230666666667
 31
0.0
100
AcDbText
 73
2
  0
TEXT
  5
B0
330
17
100
AcDbEntity
  8
ENGRAVE
100
AcDbText
 10
209.2882666666667
 20
54.02306666666669
 30
0.0
 40
2.32
  1
1
 72
1
 11
209.2882666666667
 21
54.02306666666669
 31
0.0
100
AcDbText
 73
2
  0
TEXT
  5
B1
330
17
100
AcDbEntity
  8
ENGRAVE
100
AcDbText
 10
245.3382666666667
 20
69.0230666666667
 30
0.0
 40
2.32
  1
1
 72
1
 11
245.3382666666667
 21
69.0230666666667
 31
0.0
100
AcDbText
 73
2
  0
TEXT
  5
B2
330
17
100
AcDbEntity
  8
ENGRAVE
100
AcDbText
 10
173.23826666666668
 20
69.0230666666667
 30
0.0
 40
2.32
  1
1
 72
1
 11
173.23826666666668
 21
69.0230666666667
 31
0.0
100
AcDbText
 73
2
  0
TEXT
  5
B3
330
17
100
AcDbEntity
  8
ENGRAVE
100
AcDbText
 10
222.0382666666667
 20
69.0230666666667
 30
0.0
 40
2.32
  1
1
 72
1
 11
222.0382666666667
 21
69.0230666666667
 31
0.0
100
AcDbText
 73
2
  0
TEXT
  5
B4
330
17
100
AcDbEntity
  8
ENGRAVE
100
AcDbText
 10
198.73826666666668
 20
69.0230666666667
 30
0.0
 40
2.32
  1
1
 72
1
 11
198.73826666666668
 21
69.0230666666667
 31
0.0
100
AcDbText
 73
2
  0
TEXT
  5
B5
330
17
100
AcDbEntity
  8
ENGRAVE
100
AcDbText
 10
43.24
 20
5.028400000000033
 30
0.0
 40
2.32
  1
1
 72
1
 11
43.24
 21
5.028400000000033
 31
0.0
100
AcDbText
 73
2
  0
TEXT
  5
B6
330
17
100
AcDbEntity
  8
ENGRAVE
100
AcDbText
 10
79.28999999999999
 20
23.528400000000033
 30
0.0
 40
2.32
  1
2
 72
1
 11
79.28999999999999
 21
23.528400000000033
 31
0.0
100
AcDbText
 73
2
  0
TEXT
  5
B7
330
17
100
AcDbEntity
  8
ENGRAVE
100
AcDbText
 10
7.189999999999998
 20
23.528400000000033
 30
0.0
 40
2.32
  1
2
 72
1
 11
7.189999999999998
 21
23.528400000000033
 31
0.0
100
AcDbText
 73
2
  0
TEXT
  5
B8
330
17
100
AcDbEntity
  8
ENGRAVE
100
AcDbText
 10
55.99
 20
23.528400000000033
 30
0.0
 40
2.32
  1
2
 72
1
 11
55.99
 21
23.528400000000033
 31
0.0
100
AcDbText
 73
2
  0
TEXT
  5
B9
330
17
100
AcDbEntity
  8
ENGRAVE
100
AcDbText
 10
32.69
 20
23.528400000000033
 30
0.0
 40
2.32
  1
2
 72
1
 11
32.69
 21
23.528400000000033
 31
0.0
100
AcDbText
 73
2
  0
TEXT
  5
BA
330
17
100
AcDbEntity
  8
ENGRAVE
100
AcDbText
 10
208.98346666666666
 20
13.213733333333352
 30
0.0
 40
2.32
  1
1
 72
1
 11
208.98346666666666
 21
13.213733333333352
 31
0.0
100
AcDbText
 73
2
  0
TEXT
  5
BB
330
17
100
AcDbEntity
  8
ENGRAVE
100
AcDbText
 10
172.93346666666665
 20
28.21373333333335
 30
0.0
 40
2.32
  1
1
 72
1
 11
172.93346666666665
 21
28.21373333333335
 31
0.0
100
AcDbText
 73
2
  0
TEXT
  5
BC
330
17
100
AcDbEntity
  8
ENGRAVE
100
AcDbText
 10
245.03346666666664
 20
28.21373333333335
 30
0.0
 40
2.32
  1
1
 72
1
 11
245.03346666666664
 21
28.21373333333335
 31
0.0
100
AcDbText
 73
2
  0
TEXT
  5
BD
330
17
100
AcDbEntity
  8
ENGRAVE
100
AcDbText
 10
196.23346666666666
 20
28.21373333333335
 30
0.0
 40
2.32
  1
1
 72
1
 11
196.23346666666666
 21
28.21373333333335
 31
0.0
100
AcDbText
 73
2
  0
TEXT
  5
BE
330
17
100
AcDbEntity
  8
ENGRAVE
100
AcDbText
 10
219.53346666666664
 20
28.21373333333335
 30
0.0
 40
2.32
  1
1
 72
1
 11
219.53346666666664
 21
28.21373333333335
 31
0.0
100
AcDbText
 73
2
  0
LWPOLYLINE
  5
BF
330
17
100
AcDbEntity
  8
CUT
100
AcDbPolyline
 90
4
 70
1
 10
0.0
 20
181.75106718759844
 10
0.0
 20
348.17746718759844
 10
251.75346666666667
 20
348.17746718759844
 10
251.75346666666667
 20
181.75106718759844
  0
LWPOLYLINE
  5
C0
330
17
100
AcDbEntity
  8
CUT
100
AcDbPolyline
 90
4
 70
0
 10
0.0
 20
330.1274671875984
 10
3.0
 20
330.1274671875984
 10
3.0
 20
320.22746718759845
 10
0.0
 20
320.22746718759845
  0
LWPOLYLINE
  5
C1
330
17
100
AcDbEntity
  8
CUT
100
AcDbPolyline
 90
4
 70
0
 10
251.75346666666667
 20
330.1274671875984
 10
248.75346666666667
 20
330.1274671875984
 10
248.75346666666667
 20
320.22746718759845
 10
251.75346666666667
 20
320.22746718759845
  0
LWPOLYLINE
  5
C2
330
17
100
AcDbEntity
  8
CUT
100
AcDbPolyline
 90
4
 70
0
 10
0.0
 20
230.12746718759846
 10
3.0
 20
230.12746718759846
 10
3.0
 20
220.22746718759845
 10
0.0
 20
220.22746718759845
  0
LWPOLYLINE
  5
C3
330
17
100
AcDbEntity
  8
CUT
100
AcDbPolyline
 90
4
 70
0
 10
251.75346666666667
 20
230.12746718759846
 10
248.75346666666667
 20
230.12746718759846
 10
248.75346666666667
 20
220.22746718759845
 10
251.75346666666667
 20
220.22746718759845
  0
LWPOLYLINE
  5
C4
330
17
100
AcDbEntity
  8
CUT
100
AcDbPolyline
 90
4
 70
0
 10
18.050000000000004
 20
348.17746718759844
 10
18.050000000000004
 20
345.17746718759844
 10
27.950000000000003
 20
345.17746718759844
 10
27.950000000000003
 20
348.17746718759844
  0
LWPOLYLINE
  5
C5
330
17
100
AcDbEntity
  8
CUT
100
AcDbPolyline
 90
4
 70
0
 10
18.050000000000004
 20
181.75106718759844
 10
18.050000000000004
 20
184.75106718759844
 10
27.950000000000003
 20
184.75106718759844
 10
27.950000000000003
 20
181.75106718759844
  0
LWPOLYLINE
  5
C6
330
17
100
AcDbEntity
  8
CUT
100
AcDbPolyline
 90
4
 70
0
 10
118.05000000000001
 20
348.17746718759844
 10
118.05000000000001
 20
345.17746718759844
 10
127.95000000000002
 20
345.17746718759844
 10
127.95000000000002
 20
348.17746718759844
  0
LWPOLYLINE
  5
C7
330
17
100
AcDbEntity
  8
CUT
100
AcDbPolyline
 90
4
 70
0
 10
118.05000000000001
 20
181.75106718759844
 10
118.05000000000001
 20
184.75106718759844
 10
127.95000000000002
 20
184.75106718759844
 10
127.95000000000002
 20
181.75106718759844
  0
LWPOLYLINE
  5
C8
330
17
100
AcDbEntity
  8
CUT
100
AcDbPolyline
 90
4
 70
0
 10
218.05
 20
348.17746718759844
 10
218.05
 20
345.17746718759844
 10
227.95000000000002
 20
345.17746718759844
 10
227.95000000000002
 20
348.17746718759844
  0
LWPOLYLINE
  5
C9
330
17
100
AcDbEntity
  8
CUT
100
AcDbPolyline
 90
4
 70
0
 10
218.05
 20
181.75106718759844
 10
218.05
 20
184.75106718759844
 10
227.95000000000002
 20
184.75106718759844
 10
227.95000000000002
 20
181.75106718759844
  0
LWPOLYLINE
  5
CA
330
17
100
AcDbEntity
  8
CUT
 62
1
100
AcDbPolyline
 90
36
 70
1
 10
0.0
 20
354.0774671875984
 10
15.0
 20
354.0774671875984
 10
15.0
 20
351.17746718759844
 10
25.0
 20
351.17746718759844
 10
25.0
 20
354.0774671875984
 10
115.0
 20
354.0774671875984
 10
115.0
 20
351.17746718759844
 10
125.0
 20
351.17746718759844
 10
125.0
 20
354.0774671875984
 10
215.0
 20
354.0774671875984
 10
215.0
 20
351.17746718759844
 10
225.0
 20
351.17746718759844
 10
225.0
 20
354.0774671875984
 10
245.75346666666667
 20
354.0774671875984
 10
245.75346666666667
 20
356.8274671875984
 10
242.75346666666667
 20
356.8274671875984
 10
242.75346666666667
 20
362.3274671875984
 10
245.75346666666667
 20
362.3274671875984
 10
245.75346666666667
 20
365.0774671875984
 10
225.0
 20
365.0774671875984
 10
225.0
 20
367.97746718759845
 10
215.0
 20
367.97746718759845
 10
215.0
 20
365.0774671875984
 10
125.0
 20
365.0774671875984
 10
125.0
 20
367.97746718759845
 10
115.0
 20
367.97746718759845
 10
115.0
 20
365.0774671875984
 10
25.0
 20
365.0774671875984
 10
25.0
 20
367.97746718759845
 10
15.0
 20
367.97746718759845
 10
15.0
 20
365.0774671875984
 10
0.0
 20
365.0774671875984
 10
0.0
 20
362.3274671875984
 10
3.0
 20
362.3274671875984
 10
3.0
 20
356.8274671875984
 10
0.0
 20
356.8274671875984
  0
LWPOLYLINE
  5
CB
330
17
100
AcDbEntity
  8
CUT
 62
1
100
AcDbPolyline
 90
36
 70
1
 10
268.65346666666665
 20
0.0
 10
268.65346666666665
 20
15.0
 10
271.5534666666667
 20
15.0
 10
271.5534666666667
 20
25.0
 10
268.65346666666665
 20
25.0
 10
268.65346666666665
 20
115.0
 10
271.5534666666667
 20
115.0
 10
271.5534666666667
 20
125.0
 10
268.65346666666665
 20
125.0
 10
268.65346666666665
 20
215.0
 10
271.5534666666667
 20
215.0
 10
271.5534666666667
 20
225.0
 10
268.65346666666665
 20
225.0
 10
268.65346666666665
 20
245.75346666666667
 10
265.90346666666665
 20
245.75346666666667
 10
265.90346666666665
 20
242.75346666666667
 10
260.40346666666665
 20
242.75346666666667
 10
260.40346666666665
 20
245.75346666666667
 10
257.65346666666665
 20
245.75346666666667
 10
257.65346666666665
 20
225.0
 10
254.75346666666667
 20
225.0
 10
254.75346666666667
 20
215.0
 10
257.65346666666665
 20
215.0
 10
257.65346666666665
 20
125.0
 10
254.75346666666667
 20
125.0
 10
254.75346666666667
 20
115.0
 10
257.65346666666665
 20
115.0
 10
257.65346666666665
 20
25.0
 10
254.75346666666667
 20
25.0
 10
254.75346666666667
 20
15.0
 10
257.65346666666665
 20
15.0
 10
257.65346666666665
 20
0.0
 10
260.40346666666665
 20
0.0
 10
260.40346666666665
 20
3.0
 10
265.90346666666665
 20
3.0
 10
265.90346666666665
 20
0.0
  0
LWPOLYLINE
  5
CC
330
17
100
AcDbEntity
  8
CUT
 62
1
100
AcDbPolyline
 90
4
 70
1
 10
268.00346666666667
 20
117.62673333333333
 10
268.00346666666667
 20
128.12673333333333
 10
261.50346666666667
 20
128.12673333333333
 10
261.50346666666667
 20
117.62673333333333
  0
LWPOLYLINE
  5
CD
330
17
100
AcDbEntity
  8
CUT
 62
1
100
AcDbPolyline
 90
28
 70
1
 10
288.45346666666666
 20
3.0
 10
288.45346666666666
 20
18.0
 10
291.3534666666667
 20
18.0
 10
291.3534666666667
 20
28.0
 10
288.45346666666666
 20
28.0
 10
288.45346666666666
 20
118.0
 10
291.3534666666667
 20
118.0
 10
291.3534666666667
 20
128.0
 10
288.45346666666666
 20
128.0
 10
288.45346666666666
 20
163.4264
 10
285.75346666666667
 20
163.4264
 10
285.75346666666667
 20
166.4264
 10
280.1534666666667
 20
166.4264
 10
280.1534666666667
 20
163.4264
 10
277.45346666666666
 20
163.4264
 10
277.45346666666666
 20
128.0
 10
274.5534666666667
 20
128.0
 10
274.5534666666667
 20
118.0
 10
277.45346666666666
 20
118.0
 10
277.45346666666666
 20
28.0
 10
274.5534666666667
 20
28.0
 10
274.5534666666667
 20
18.0
 10
277.45346666666666
 20
18.0
 10
277.45346666666666
 20
3.0
 10
280.1534666666667
 20
3.0
 10
280.1534666666667
 20
0.0
 10
285.75346666666667
 20
0.0
 10
285.75346666666667
 20
3.0
  0
LWPOLYLINE
  5
CE
330
17
100
AcDbEntity
  8
CUT
 62
1
100
AcDbPolyline
 90
28
 70
1
 10
288.45346666666666
 20
172.4264
 10
288.45346666666666
 20
187.4264
 10
291.3534666666667
 20
187.4264
 10
291.3534666666667
 20
197.4264
 10
288.45346666666666
 20
197.4264
 10
288.45346666666666
 20
287.4264
 10
291.3534666666667
 20
287.4264
 10
291.3534666666667
 20
297.4264
 10
288.45346666666666
 20
297.4264
 10
288.45346666666666
 20
332.8528
 10
285.75346666666667
 20
332.8528
 10
285.75346666666667
 20
335.8528
 10
280.1534666666667
 20
335.8528
 10
280.1534666666667
 20
332.8528
 10
277.45346666666666
 20
332.8528
 10
277.45346666666666
 20
297.4264
 10
274.5534666666667
 20
297.4264
 10
274.5534666666667
 20
287.4264
 10
277.45346666666666
 20
287.4264
 10
277.45346666666666
 20
197.4264
 10
274.5534666666667
 20
197.4264
 10
274.5534666666667
 20
187.4264
 10
277.45346666666666
 20
187.4264
 10
277.45346666666666
 20
172.4264
 10
280.1534666666667
 20
172.4264
 10
280.1534666666667
 20
169.4264
 10
285.75346666666667
 20
169.4264
 10
285.75346666666667
 20
172.4264
  0
LWPOLYLINE
  5
CF
330
17
100
AcDbEntity
  8
CUT
 62
1
100
AcDbPolyline
 90
12
 70
1
 10
294.3534666666667
 20
3.0
 10
310.5534666666667
 20
3.0
 10
310.5534666666667
 20
0.0
 10
315.6534666666667
 20
0.0
 10
315.6534666666667
 20
3.0
 10
348.0534666666667
 20
3.0
 10
348.0534666666667
 20
0.0
 10
353.1534666666667
 20
0.0
 10
353.1534666666667
 20
3.0
 10
369.3534666666667
 20
3.0
 10
369.3534666666667
 20
14.0
 10
294.3534666666667
 20
14.0
  0
LWPOLYLINE
  5
D0
330
17
100
AcDbEntity
  8
CUT
 62
1
100
AcDbPolyline
 90
4
 70
1
 10
294.3534666666667
 20
6.0
 10
297.25346666666667
 20
6.0
 10
297.25346666666667
 20
11.0
 10
294.3534666666667
 20
11.0
  0
LWPOLYLINE
  5
D1
330
17
100
AcDbEntity
  8
CUT
 62
1
100
AcDbPolyline
 90
4
 70
1
 10
317.6534666666667
 20
6.0
 10
320.5534666666667
 20
6.0
 10
320.5534666666667
 20
11.0
 10
317.6534666666667
 20
11.0
  0
LWPOLYLINE
  5
D2
330
17
100
AcDbEntity
  8
CUT
 62
1
100
AcDbPolyline
 90
4
 70
1
 10
340.9534666666667
 20
6.0
 10
343.8534666666667
 20
6.0
 10
343.8534666666667
 20
11.0
 10
340.9534666666667
 20
11.0
  0
LWPOLYLINE
  5
D3
330
17
100
AcDbEntity
  8
CUT
 62
1
100
AcDbPolyline
 90
4
 70
1
 10
366.4534666666667
 20
6.0
 10
369.3534666666667
 20
6.0
 10
369.3534666666667
 20
11.0
 10
366.4534666666667
 20
11.0
  0
TEXT
  5
D4
330
17
100
AcDbEntity
  8
ENGRAVE
 62
3
100
AcDbText
 10
331.8534666666667
 20
7.0
 30
0.0
 40
4.2
  1
1
 72
1
 11
331.8534666666667
 21
7.0
 31
0.0
100
AcDbText
 73
2
  0
LWPOLYLINE
  5
D5
330
17
100
AcDbEntity
  8
CUT
 62
1
100
AcDbPolyline
 90
12
 70
1
 10
294.3534666666667
 20
20.0
 10
310.5534666666667
 20
20.0
 10
310.5534666666667
 20
17.0
 10
315.6534666666667
 20
17.0
 10
315.6534666666667
 20
20.0
 10
348.0534666666667
 20
20.0
 10
348.0534666666667
 20
17.0
 10
353.1534666666667
 20
17.0
 10
353.1534666666667
 20
20.0
 10
369.3534666666667
 20
20.0
 10
369.3534666666667
 20
31.0
 10
294.3534666666667
 20
31.0
  0
LWPOLYLINE
  5
D6
330
17
100
AcDbEntity
  8
CUT
 62
1
100
AcDbPolyline
 90
4
 70
1
 10
294.3534666666667
 20
23.0
 10
297.25346666666667
 20
23.0
 10
297.25346666666667
 20
28.0
 10
294.3534666666667
 20
28.0
  0
LWPOLYLINE
  5
D7
330
17
100
AcDbEntity
  8
CUT
 62
1
100
AcDbPolyline
 90
4
 70
1
 10
317.6534666666667
 20
23.0
 10
320.5534666666667
 20
23.0
 10
320.5534666666667
 20
28.0
 10
317.6534666666667
 20
28.0
  0
LWPOLYLINE
  5
D8
330
17
100
AcDbEntity
  8
CUT
 62
1
100
AcDbPolyline
 90
4
 70
1
 10
340.9534666666667
 20
23.0
 10
343.8534666666667
 20
23.0
 10
343.8534666666667
 20
28.0
 10
340.9534666666667
 20
28.0
  0
LWPOLYLINE
  5
D9
330
17
100
AcDbEntity
  8
CUT
 62
1
100
AcDbPolyline
 90
4
 70
1
 10
366.4534666666667
 20
23.0
 10
369.3534666666667
 20
23.0
 10
369.3534666666667
 20
28.0
 10
366.4534666666667
 20
28.0
  0
TEXT
  5
DA
330
17
100
AcDbEntity
  8
ENGRAVE
 62
3
100
AcDbText
 10
331.8534666666667
 20
24.0
 30
0.0
 40
4.2
  1
1
 72
1
 11
331.8534666666667
 21
24.0
 31
0.0
100
AcDbText
 73
2
  0
LWPOLYLINE
  5
DB
330
17
100
AcDbEntity
  8
CUT
 62
1
100
AcDbPolyline
 90
12
 70
1
 10
294.3534666666667
 20
37.0
 10
310.5534666666667
 20
37.0
 10
310.5534666666667
 20
34.0
 10
315.6534666666667
 20
34.0
 10
315.6534666666667
 20
37.0
 10
348.0534666666667
 20
37.0
 10
348.0534666666667
 20
34.0
 10
353.1534666666667
 20
34.0
 10
353.1534666666667
 20
37.0
 10
369.3534666666667
 20
37.0
 10
369.3534666666667
 20
48.0
 10
294.3534666666667
 20
48.0
  0
LWPOLYLINE
  5
DC
330
17
100
AcDbEntity
  8
CUT
 62
1
100
AcDbPolyline
 90
4
 70
1
 10
294.3534666666667
 20
40.0
 10
297.25346666666667
 20
40.0
 10
297.25346666666667
 20
45.0
 10
294.3534666666667
 20
45.0
  0
LWPOLYLINE
  5
DD
330
17
100
AcDbEntity
  8
CUT
 62
1
100
AcDbPolyline
 90
4
 70
1
 10
317.6534666666667
 20
40.0
 10
320.5534666666667
 20
40.0
 10
320.5534666666667
 20
45.0
 10
317.6534666666667
 20
45.0
  0
LWPOLYLINE
  5
DE
330
17
100
AcDbEntity
  8
CUT
 62
1
100
AcDbPolyline
 90
4
 70
1
 10
340.9534666666667
 20
40.0
 10
343.8534666666667
 20
40.0
 10
343.8534666666667
 20
45.0
 10
340.9534666666667
 20
45.0
  0
LWPOLYLINE
  5
DF
330
17
100
AcDbEntity
  8
CUT
 62
1
100
AcDbPolyline
 90
4
 70
1
 10
366.4534666666667
 20
40.0
 10
369.3534666666667
 20
40.0
 10
369.3534666666667
 20
45.0
 10
366.4534666666667
 20
45.0
  0
TEXT
  5
E0
330
17
100
AcDbEntity
  8
ENGRAVE
 62
3
100
AcDbText
 10
331.8534666666667
 20
41.0
 30
0.0
 40
4.2
  1
1
 72
1
 11
331.8534666666667
 21
41.0
 31
0.0
100
AcDbText
 73
2
  0
LWPOLYLINE
  5
E1
330
17
100
AcDbEntity
  8
CUT
 62
1
100
AcDbPolyline
 90
12
 70
1
 10
294.3534666666667
 20
54.0
 10
310.5534666666667
 20
54.0
 10
310.5534666666667
 20
51.0
 10
315.6534666666667
 20
51.0
 10
315.6534666666667
 20
54.0
 10
348.0534666666667
 20
54.0
 10
348.0534666666667
 20
51.0
 10
353.1534666666667
 20
51.0
 10
353.1534666666667
 20
54.0
 10
369.3534666666667
 20
54.0
 10
369.3534666666667
 20
65.0
 10
294.3534666666667
 20
65.0
  0
LWPOLYLINE
  5
E2
330
17
100
AcDbEntity
  8
CUT
 62
1
100
AcDbPolyline
 90
4
 70
1
 10
294.3534666666667
 20
57.0
 10
297.25346666666667
 20
57.0
 10
297.25346666666667
 20
62.0
 10
294.3534666666667
 20
62.0
  0
LWPOLYLINE
  5
E3
330
17
100
AcDbEntity
  8
CUT
 62
1
100
AcDbPolyline
 90
4
 70
1
 10
317.6534666666667
 20
57.0
 10
320.5534666666667
 20
57.0
 10
320.5534666666667
 20
62.0
 10
317.6534666666667
 20
62.0
  0
LWPOLYLINE
  5
E4
330
17
100
AcDbEntity
  8
CUT
 62
1
100
AcDbPolyline
 90
4
 70
1
 10
340.9534666666667
 20
57.0
 10
343.8534666666667
 20
57.0
 10
343.8534666666667
 20
62.0
 10
340.9534666666667
 20
62.0
  0
LWPOLYLINE
  5
E5
330
17
100
AcDbEntity
  8
CUT
 62
1
100
AcDbPolyline
 90
4
 70
1
 10
366.4534666666667
 20
57.0
 10
369.3534666666667
 20
57.0
 10
369.3534666666667
 20
62.0
 10
366.4534666666667
 20
62.0
  0
TEXT
  5
E6
330
17
100
AcDbEntity
  8
ENGRAVE
 62
3
100
AcDbText
 10
331.8534666666667
 20
58.0
 30
0.0
 40
4.2
  1
1
 72
1
 11
331.8534666666667
 21
58.0
 31
0.0
100
AcDbText
 73
2
  0
LWPOLYLINE
  5
E7
330
17
100
AcDbEntity
  8
CUT
 62
1
100
AcDbPolyline
 90
12
 70
1
 10
294.3534666666667
 20
71.0
 10
310.5534666666667
 20
71.0
 10
310.5534666666667
 20
68.0
 10
315.6534666666667
 20
68.0
 10
315.6534666666667
 20
71.0
 10
348.0534666666667
 20
71.0
 10
348.0534666666667
 20
68.0
 10
353.1534666666667
 20
68.0
 10
353.1534666666667
 20
71.0
 10
369.3534666666667
 20
71.0
 10
369.3534666666667
 20
82.0
 10
294.3534666666667
 20
82.0
  0
LWPOLYLINE
  5
E8
330
17
100
AcDbEntity
  8
CUT
 62
1
100
AcDbPolyline
 90
4
 70
1
 10
294.3534666666667
 20
74.0
 10
297.25346666666667
 20
74.0
 10
297.25346666666667
 20
79.0
 10
294.3534666666667
 20
79.0
  0
LWPOLYLINE
  5
E9
330
17
100
AcDbEntity
  8
CUT
 62
1
100
AcDbPolyline
 90
4
 70
1
 10
317.6534666666667
 20
74.0
 10
320.5534666666667
 20
74.0
 10
320.5534666666667
 20
79.0
 10
317.6534666666667
 20
79.0
  0
LWPOLYLINE
  5
EA
330
17
100
AcDbEntity
  8
CUT
 62
1
100
AcDbPolyline
 90
4
 70
1
 10
340.9534666666667
 20
74.0
 10
343.8534666666667
 20
74.0
 10
343.8534666666667
 20
79.0
 10
340.9534666666667
 20
79.0
  0
LWPOLYLINE
  5
EB
330
17
100
AcDbEntity
  8
CUT
 62
1
100
AcDbPolyline
 90
4
 70
1
 10
366.4534666666667
 20
74.0
 10
369.3534666666667
 20
74.0
 10
369.3534666666667
 20
79.0
 10
366.4534666666667
 20
79.0
  0
TEXT
  5
EC
330
17
100
AcDbEntity
  8
ENGRAVE
 62
3
100
AcDbText
 10
331.8534666666667
 20
75.0
 30
0.0
 40
4.2
  1
1
 72
1
 11
331.8534666666667
 21
75.0
 31
0.0
100
AcDbText
 73
2
  0
LWPOLYLINE
  5
ED
330
17
100
AcDbEntity
  8
CUT
 62
1
100
AcDbPolyline
 90
12
 70
1
 10
294.3534666666667
 20
88.0
 10
310.5534666666667
 20
88.0
 10
310.5534666666667
 20
85.0
 10
315.6534666666667
 20
85.0
 10
315.6534666666667
 20
88.0
 10
348.0534666666667
 20
88.0
 10
348.0534666666667
 20
85.0
 10
353.1534666666667
 20
85.0
 10
353.1534666666667
 20
88.0
 10
369.3534666666667
 20
88.0
 10
369.3534666666667
 20
99.0
 10
294.3534666666667
 20
99.0
  0
LWPOLYLINE
  5
EE
330
17
100
AcDbEntity
  8
CUT
 62
1
100
AcDbPolyline
 90
4
 70
1
 10
294.3534666666667
 20
91.0
 10
297.25346666666667
 20
91.0
 10
297.25346666666667
 20
96.0
 10
294.3534666666667
 20
96.0
  0
LWPOLYLINE
  5
EF
330
17
100
AcDbEntity
  8
CUT
 62
1
100
AcDbPolyline
 90
4
 70
1
 10
317.6534666666667
 20
91.0
 10
320.5534666666667
 20
91.0
 10
320.5534666666667
 20
96.0
 10
317.6534666666667
 20
96.0
  0
LWPOLYLINE
  5
F0
330
17
100
AcDbEntity
  8
CUT
 62
1
100
AcDbPolyline
 90
4
 70
1
 10
340.9534666666667
 20
91.0
 10
343.8534666666667
 20
91.0
 10
343.8534666666667
 20
96.0
 10
340.9534666666667
 20
96.0
  0
LWPOLYLINE
  5
F1
330
17
100
AcDbEntity
  8
CUT
 62
1
100
AcDbPolyline
 90
4
 70
1
 10
366.4534666666667
 20
91.0
 10
369.3534666666667
 20
91.0
 10
369.3534666666667
 20
96.0
 10
366.4534666666667
 20
96.0
  0
TEXT
  5
F2
330
17
100
AcDbEntity
  8
ENGRAVE
 62
3
100
AcDbText
 10
331.8534666666667
 20
92.0
 30
0.0
 40
4.2
  1
1
 72
1
 11
331.8534666666667
 21
92.0
 31
0.0
100
AcDbText
 73
2
  0
LWPOLYLINE
  5
F3
330
17
100
AcDbEntity
  8
CUT
 62
1
100
AcDbPolyline
 90
12
 70
1
 10
294.3534666666667
 20
105.0
 10
310.5534666666667
 20
105.0
 10
310.5534666666667
 20
102.0
 10
315.6534666666667
 20
102.0
 10
315.6534666666667
 20
105.0
 10
348.0534666666667
 20
105.0
 10
348.0534666666667
 20
102.0
 10
353.1534666666667
 20
102.0
 10
353.1534666666667
 20
105.0
 10
369.3534666666667
 20
105.0
 10
369.3534666666667
 20
116.0
 10
294.3534666666667
 20
116.0
  0
LWPOLYLINE
  5
F4
330
17
100
AcDbEntity
  8
CUT
 62
1
100
AcDbPolyline
 90
4
 70
1
 10
294.3534666666667
 20
108.0
 10
297.25346666666667
 20
108.0
 10
297.25346666666667
 20
113.0
 10
294.3534666666667
 20
113.0
  0
LWPOLYLINE
  5
F5
330
17
100
AcDbEntity
  8
CUT
 62
1
100
AcDbPolyline
 90
4
 70
1
 10
317.6534666666667
 20
108.0
 10
320.5534666666667
 20
108.0
 10
320.5534666666667
 20
113.0
 10
317.6534666666667
 20
113.0
  0
LWPOLYLINE
  5
F6
330
17
100
AcDbEntity
  8
CUT
 62
1
100
AcDbPolyline
 90
4
 70
1
 10
340.9534666666667
 20
108.0
 10
343.8534666666667
 20
108.0
 10
343.8534666666667
 20
113.0
 10
340.9534666666667
 20
113.0
  0
LWPOLYLINE
  5
F7
330
17
100
AcDbEntity
  8
CUT
 62
1
100
AcDbPolyline
 90
4
 70
1
 10
366.4534666666667
 20
108.0
 10
369.3534666666667
 20
108.0
 10
369.3534666666667
 20
113.0
 10
366.4534666666667
 20
113.0
  0
TEXT
  5
F8
330
17
100
AcDbEntity
  8
ENGRAVE
 62
3
100
AcDbText
 10
331.8534666666667
 20
109.0
 30
0.0
 40
4.2
  1
1
 72
1
 11
331.8534666666667
 21
109.0
 31
0.0
100
AcDbText
 73
2
  0
LWPOLYLINE
  5
F9
330
17
100
AcDbEntity
  8
CUT
 62
1
100
AcDbPolyline
 90
14
 70
1
 10
262.8034666666667
 20
248.75346666666667
 10
257.70346666666666
 20
248.75346666666667
 10
257.70346666666666
 20
251.75346666666667
 10
254.75346666666667
 20
251.75346666666667
 10
254.75346666666667
 20
287.75346666666667
 10
258.75346666666667
 20
287.75346666666667
 10
258.75346666666667
 20
282.75346666666667
 10
265.75346666666667
 20
282.75346666666667
 10
265.75346666666667
 20
272.3034666666667
 10
268.75346666666667
 20
272.3034666666667
 10
268.75346666666667
 20
267.20346666666666
 10
265.75346666666667
 20
267.20346666666666
 10
265.75346666666667
 20
251.75346666666667
 10
262.8034666666667
 20
251.75346666666667
  0
TEXT
  5
FA
330
17
100
AcDbEntity
  8
ENGRAVE
 62
3
100
AcDbText
 10
261.75346666666667
 20
268.25346666666667
 30
0.0
 40
4.2
  1
2
 72
1
 11
261.75346666666667
 21
268.25346666666667
 31
0.0
100
AcDbText
 73
2
  0
LWPOLYLINE
  5
FB
330
17
100
AcDbEntity
  8
CUT
 62
1
100
AcDbPolyline
 90
14
 70
1
 10
262.8034666666667
 20
290.75346666666667
 10
257.70346666666666
 20
290.75346666666667
 10
257.70346666666666
 20
293.75346666666667
 10
254.75346666666667
 20
293.75346666666667
 10
254.75346666666667
 20
329.75346666666667
 10
258.75346666666667
 20
329.75346666666667
 10
258.75346666666667
 20
324.75346666666667
 10
265.75346666666667
 20
324.75346666666667
 10
265.75346666666667
 20
314.3034666666667
 10
268.75346666666667
 20
314.3034666666667
 10
268.75346666666667
 20
309.20346666666666
 10
265.75346666666667
 20
309.20346666666666
 10
265.75346666666667
 20
293.75346666666667
 10
262.8034666666667
 20
293.75346666666667
  0
TEXT
  5
FC
330
17
100
AcDbEntity
  8
ENGRAVE
 62
3
100
AcDbText
 10
261.75346666666667
 20
310.25346666666667
 30
0.0
 40
4.2
  1
2
 72
1
 11
261.75346666666667
 21
310.25346666666667
 31
0.0
100
AcDbText
 73
2
  0
LWPOLYLINE
  5
FD
330
17
100
AcDbEntity
  8
CUT
 62
1
100
AcDbPolyline
 90
16
 70
1
 10
248.75346666666667
 20
357.1274671875984
 10
248.75346666666667
 20
362.22746718759845
 10
251.75346666666667
 20
362.22746718759845
 10
251.75346666666667
 20
365.17746718759844
 10
280.45346666666666
 20
365.17746718759844
 10
280.45346666666666
 20
359.17746718759844
 10
282.0534666666667
 20
359.17746718759844
 10
282.0534666666667
 20
365.17746718759844
 10
287.75346666666667
 20
365.17746718759844
 10
287.75346666666667
 20
354.17746718759844
 10
272.3034666666667
 20
354.17746718759844
 10
272.3034666666667
 20
351.17746718759844
 10
267.20346666666666
 20
351.17746718759844
 10
267.20346666666666
 20
354.17746718759844
 10
251.75346666666667
 20
354.17746718759844
 10
251.75346666666667
 20
357.1274671875984
  0
TEXT
  5
FE
330
17
100
AcDbEntity
  8
ENGRAVE
 62
3
100
AcDbText
 10
268.25346666666667
 20
358.17746718759844
 30
0.0
 40
4.2
  1
2
 72
1
 11
268.25346666666667
 21
358.17746718759844
 31
0.0
100
AcDbText
 73
2
  0
LWPOLYLINE
  5
FF
330
17
100
AcDbEntity
  8
CUT
 62
1
100
AcDbPolyline
 90
16
 70
1
 10
290.75346666666667
 20
344.8028
 10
290.75346666666667
 20
349.9028
 10
293.75346666666667
 20
349.9028
 10
293.75346666666667
 20
352.8528
 10
322.45346666666666
 20
352.8528
 10
322.45346666666666
 20
346.8528
 10
324.0534666666667
 20
346.8528
 10
324.0534666666667
 20
352.8528
 10
329.75346666666667
 20
352.8528
 10
329.75346666666667
 20
341.8528
 10
314.3034666666667
 20
341.8528
 10
314.3034666666667
 20
338.8528
 10
309.20346666666666
 20
338.8528
 10
309.20346666666666
 20
341.8528
 10
293.75346666666667
 20
341.8528
 10
293.75346666666667
 20
344.8028
  0
TEXT
  5
100
330
17
100
AcDbEntity
  8
ENGRAVE
 62
3
100
AcDbText
 10
310.25346666666667
 20
345.8528
 30
0.0
 40
4.2
  1
2
 72
1
 11
310.25346666666667
 21
345.8528
 31
0.0
100
AcDbText
 73
2
  0
LWPOLYLINE
  5
101
330
17
100
AcDbEntity
  8
CUT
 62
1
100
AcDbPolyline
 90
14
 70
1
 10
290.75346666666667
 20
361.8028
 10
290.75346666666667
 20
366.9028
 10
293.75346666666667
 20
366.9028
 10
293.75346666666667
 20
369.8528
 10
322.75346666666667
 20
369.8528
 10
322.75346666666667
 20
365.8528
 10
317.75346666666667
 20
365.8528
 10
317.75346666666667
 20
358.8528
 10
310.8034666666667
 20
358.8528
 10
310.8034666666667
 20
355.8528
 10
305.70346666666666
 20
355.8528
 10
305.70346666666666
 20
358.8528
 10
293.75346666666667
 20
358.8528
 10
293.75346666666667
 20
361.8028
  0
TEXT
  5
102
330
17
100
AcDbEntity
  8
ENGRAVE
 62
3
100
AcDbText
 10
306.75346666666667
 20
362.8528
 30
0.0
 40
4.2
  1
1
 72
1
 11
306.75346666666667
 21
362.8528
 31
0.0
100
AcDbText
 73
2
  0
LWPOLYLINE
  5
103
330
17
100
AcDbEntity
  8
CUT
 62
1
100
AcDbPolyline
 90
14
 70
1
 10
325.75346666666667
 20
361.8028
 10
325.75346666666667
 20
366.9028
 10
328.75346666666667
 20
366.9028
 10
328.75346666666667
 20
369.8528
 10
357.75346666666667
 20
369.8528
 10
357.75346666666667
 20
365.8528
 10
352.75346666666667
 20
365.8528
 10
352.75346666666667
 20
358.8528
 10
345.8034666666667
 20
358.8528
 10
345.8034666666667
 20
355.8528
 10
340.70346666666666
 20
355.8528
 10
340.70346666666666
 20
358.8528
 10
328.75346666666667
 20
358.8528
 10
328.75346666666667
 20
361.8028
  0
TEXT
  5
104
330
17
100
AcDbEntity
  8
ENGRAVE
 62
3
100
AcDbText
 10
341.75346666666667
 20
362.8528
 30
0.0
 40
4.2
  1
1
 72
1
 11
341.75346666666667
 21
362.8528
 31
0.0
100
AcDbText
 73
2
  0
LWPOLYLINE
  5
105
330
17
100
AcDbEntity
  8
CUT
 62
1
100
AcDbPolyline
 90
14
 70
1
 10
332.75346666666667
 20
124.95
 10
332.75346666666667
 20
130.05
 10
335.75346666666667
 20
130.05
 10
335.75346666666667
 20
133.0
 10
364.75346666666667
 20
133.0
 10
364.75346666666667
 20
129.0
 10
359.75346666666667
 20
129.0
 10
359.75346666666667
 20
122.0
 10
352.8034666666667
 20
122.0
 10
352.8034666666667
 20
119.0
 10
347.70346666666666
 20
119.0
 10
347.70346666666666
 20
122.0
 10
335.75346666666667
 20
122.0
 10
335.75346666666667
 20
124.95
  0
TEXT
  5
106
330
17
100
AcDbEntity
  8
ENGRAVE
 62
3
100
AcDbText
 10
348.75346666666667
 20
126.0
 30
0.0
 40
4.2
  1
1
 72
1
 11
348.75346666666667
 21
126.0
 31
0.0
100
AcDbText
 73
2
  0
LWPOLYLINE
  5
107
330
17
100
AcDbEntity
  8
CUT
 62
1
100
AcDbPolyline
 90
14
 70
1
 10
294.3534666666667
 20
124.95
 10
294.3534666666667
 20
130.05
 10
297.3534666666667
 20
130.05
 10
297.3534666666667
 20
133.0
 10
326.3534666666667
 20
133.0
 10
326.3534666666667
 20
129.0
 10
321.3534666666667
 20
129.0
 10
321.3534666666667
 20
122.0
 10
314.4034666666667
 20
122.0
 10
314.4034666666667
 20
119.0
 10
309.3034666666667
 20
119.0
 10
309.3034666666667
 20
122.0
 10
297.3534666666667
 20
122.0
 10
297.3534666666667
 20
124.95
  0
TEXT
  5
108
330
17
100
AcDbEntity
  8
ENGRAVE
 62
3
100
AcDbText
 10
310.3534666666667
 20
126.0
 30
0.0
 40
4.2
  1
1
 72
1
 11
310.3534666666667
 21
126.0
 31
0.0
100
AcDbText
 73
2
  0
LWPOLYLINE
  5
109
330
17
100
AcDbEntity
  8
CUT
 62
1
100
AcDbPolyline
 90
14
 70
1
 10
332.75346666666667
 20
141.95
 10
332.75346666666667
 20
147.05
 10
335.75346666666667
 20
147.05
 10
335.75346666666667
 20
150.0
 10
364.75346666666667
 20
150.0
 10
364.75346666666667
 20
146.0
 10
359.75346666666667
 20
146.0
 10
359.75346666666667
 20
139.0
 10
352.8034666666667
 20
139.0
 10
352.8034666666667
 20
136.0
 10
347.70346666666666
 20
136.0
 10
347.70346666666666
 20
139.0
 10
335.75346666666667
 20
139.0
 10
335.75346666666667
 20
141.95
  0
TEXT
  5
10A
330
17
100
AcDbEntity
  8
ENGRAVE
 62
3
100
AcDbText
 10
348.75346666666667
 20
143.0
 30
0.0
 40
4.2
  1
1
 72
1
 11
348.75346666666667
 21
143.0
 31
0.0
100
AcDbText
 73
2
  0
LWPOLYLINE
  5
10B
330
17
100
AcDbEntity
  8
CUT
 62
1
100
AcDbPolyline
 90
14
 70
1
 10
294.3534666666667
 20
141.95
 10
294.3534666666667
 20
147.05
 10
297.3534666666667
 20
147.05
 10
297.3534666666667
 20
150.0
 10
326.3534666666667
 20
150.0
 10
326.3534666666667
 20
146.0
 10
321.3534666666667
 20
146.0
 10
321.3534666666667
 20
139.0
 10
314.4034666666667
 20
139.0
 10
314.4034666666667
 20
136.0
 10
309.3034666666667
 20
136.0
 10
309.3034666666667
 20
139.0
 10
297.3534666666667
 20
139.0
 10
297.3534666666667
 20
141.95
  0
TEXT
  5
10C
330
17
100
AcDbEntity
  8
ENGRAVE
 62
3
100
AcDbText
 10
310.3534666666667
 20
143.0
 30
0.0
 40
4.2
  1
1
 72
1
 11
310.3534666666667
 21
143.0
 31
0.0
100
AcDbText
 73
2
  0
LWPOLYLINE
  5
10D
330
17
100
AcDbEntity
  8
CUT
 62
1
100
AcDbPolyline
 90
14
 70
1
 10
332.75346666666667
 20
158.95
 10
332.75346666666667
 20
164.05
 10
335.75346666666667
 20
164.05
 10
335.75346666666667
 20
167.0
 10
364.75346666666667
 20
167.0
 10
364.75346666666667
 20
163.0
 10
359.75346666666667
 20
163.0
 10
359.75346666666667
 20
156.0
 10
352.8034666666667
 20
156.0
 10
352.8034666666667
 20
153.0
 10
347.70346666666666
 20
153.0
 10
347.70346666666666
 20
156.0
 10
335.75346666666667
 20
156.0
 10
335.75346666666667
 20
158.95
  0
TEXT
  5
10E
330
17
100
AcDbEntity
  8
ENGRAVE
 62
3
100
AcDbText
 10
348.75346666666667
 20
160.0
 30
0.0
 40
4.2
  1
1
 72
1
 11
348.75346666666667
 21
160.0
 31
0.0
100
AcDbText
 73
2
  0
LWPOLYLINE
  5
10F
330
17
100
AcDbEntity
  8
CUT
 62
1
100
AcDbPolyline
 90
14
 70
1
 10
294.3534666666667
 20
158.95
 10
294.3534666666667
 20
164.05
 10
297.3534666666667
 20
164.05
 10
297.3534666666667
 20
167.0
 10
326.3534666666667
 20
167.0
 10
326.3534666666667
 20
163.0
 10
321.3534666666667
 20
163.0
 10
321.3534666666667
 20
156.0
 10
314.4034666666667
 20
156.0
 10
314.4034666666667
 20
153.0
 10
309.3034666666667
 20
153.0
 10
309.3034666666667
 20
156.0
 10
297.3534666666667
 20
156.0
 10
297.3534666666667
 20
158.95
  0
TEXT
  5
110
330
17
100
AcDbEntity
  8
ENGRAVE
 62
3
100
AcDbText
 10
310.3534666666667
 20
160.0
 30
0.0
 40
4.2
  1
1
 72
1
 11
310.3534666666667
 21
160.0
 31
0.0
100
AcDbText
 73
2
  0
LWPOLYLINE
  5
111
330
17
100
AcDbEntity
  8
CUT
 62
1
100
AcDbPolyline
 90
14
 70
1
 10
332.75346666666667
 20
175.95
 10
332.75346666666667
 20
181.05
 10
335.75346666666667
 20
181.05
 10
335.75346666666667
 20
184.0
 10
364.75346666666667
 20
184.0
 10
364.75346666666667
 20
180.0
 10
359.75346666666667
 20
180.0
 10
359.75346666666667
 20
173.0
 10
352.8034666666667
 20
173.0
 10
352.8034666666667
 20
170.0
 10
347.70346666666666
 20
170.0
 10
347.70346666666666
 20
173.0
 10
335.75346666666667
 20
173.0
 10
335.75346666666667
 20
175.95
  0
TEXT
  5
112
330
17
100
AcDbEntity
  8
ENGRAVE
 62
3
100
AcDbText
 10
348.75346666666667
 20
177.0
 30
0.0
 40
4.2
  1
1
 72
1
 11
348.75346666666667
 21
177.0
 31
0.0
100
AcDbText
 73
2
  0
LWPOLYLINE
  5
113
330
17
100
AcDbEntity
  8
CUT
 62
1
100
AcDbPolyline
 90
14
 70
1
 10
294.3534666666667
 20
175.95
 10
294.3534666666667
 20
181.05
 10
297.3534666666667
 20
181.05
 10
297.3534666666667
 20
184.0
 10
326.3534666666667
 20
184.0
 10
326.3534666666667
 20
180.0
 10
321.3534666666667
 20
180.0
 10
321.3534666666667
 20
173.0
 10
314.4034666666667
 20
173.0
 10
314.4034666666667
 20
170.0
 10
309.3034666666667
 20
170.0
 10
309.3034666666667
 20
173.0
 10
297.3534666666667
 20
173.0
 10
297.3534666666667
 20
175.95
  0
TEXT
  5
114
330
17
100
AcDbEntity
  8
ENGRAVE
 62
3
100
AcDbText
 10
310.3534666666667
 20
177.0
 30
0.0
 40
4.2
  1
1
 72
1
 11
310.3534666666667
 21
177.0
 31
0.0
100
AcDbText
 73
2
  0
LWPOLYLINE
  5
115
330
17
100
AcDbEntity
  8
CUT
 62
1
100
AcDbPolyline
 90
14
 70
1
 10
332.75346666666667
 20
192.95
 10
332.75346666666667
 20
198.05
 10
335.75346666666667
 20
198.05
 10
335.75346666666667
 20
201.0
 10
364.75346666666667
 20
201.0
 10
364.75346666666667
 20
197.0
 10
359.75346666666667
 20
197.0
 10
359.75346666666667
 20
190.0
 10
352.8034666666667
 20
190.0
 10
352.8034666666667
 20
187.0
 10
347.70346666666666
 20
187.0
 10
347.70346666666666
 20
190.0
 10
335.75346666666667
 20
190.0
 10
335.75346666666667
 20
192.95
  0
TEXT
  5
116
330
17
100
AcDbEntity
  8
ENGRAVE
 62
3
100
AcDbText
 10
348.75346666666667
 20
194.0
 30
0.0
 40
4.2
  1
1
 72
1
 11
348.75346666666667
 21
194.0
 31
0.0
100
AcDbText
 73
2
  0
LWPOLYLINE
  5
117
330
17
100
AcDbEntity
  8
CUT
 62
1
100
AcDbPolyline
 90
14
 70
1
 10
294.3534666666667
 20
192.95
 10
294.3534666666667
 20
198.05
 10
297.3534666666667
 20
198.05
 10
297.3534666666667
 20
201.0
 10
326.3534666666667
 20
201.0
 10
326.3534666666667
 20
197.0
 10
321.3534666666667
 20
197.0
 10
321.3534666666667
 20
190.0
 10
314.4034666666667
 20
190.0
 10
314.4034666666667
 20
187.0
 10
309.3034666666667
 20
187.0
 10
309.3034666666667
 20
190.0
 10
297.3534666666667
 20
190.0
 10
297.3534666666667
 20
192.95
  0
TEXT
  5
118
330
17
100
AcDbEntity
  8
ENGRAVE
 62
3
100
AcDbText
 10
310.3534666666667
 20
194.0
 30
0.0
 40
4.2
  1
1
 72
1
 11
310.3534666666667
 21
194.0
 31
0.0
100
AcDbText
 73
2
  0
LWPOLYLINE
  5
119
330
17
100
AcDbEntity
  8
CUT
 62
1
100
AcDbPolyline
 90
16
 70
1
 10
332.75346666666667
 20
209.95
 10
332.75346666666667
 20
215.05
 10
335.75346666666667
 20
215.05
 10
335.75346666666667
 20
218.0
 10
357.45346666666666
 20
218.0
 10
357.45346666666666
 20
212.0
 10
359.0534666666667
 20
212.0
 10
359.0534666666667
 20
218.0
 10
364.75346666666667
 20
218.0
 10
364.75346666666667
 20
207.0
 10
352.8034666666667
 20
207.0
 10
352.8034666666667
 20
204.0
 10
347.70346666666666
 20
204.0
 10
347.70346666666666
 20
207.0
 10
335.75346666666667
 20
207.0
 10
335.75346666666667
 20
209.95
  0
TEXT
  5
11A
330
17
100
AcDbEntity
  8
ENGRAVE
 62
3
100
AcDbText
 10
348.75346666666667
 20
211.0
 30
0.0
 40
4.2
  1
1
 72
1
 11
348.75346666666667
 21
211.0
 31
0.0
100
AcDbText
 73
2
  0
LWPOLYLINE
  5
11B
330
17
100
AcDbEntity
  8
CUT
 62
1
100
AcDbPolyline
 90
16
 70
1
 10
294.3534666666667
 20
209.95
 10
294.3534666666667
 20
215.05
 10
297.3534666666667
 20
215.05
 10
297.3534666666667
 20
218.0
 10
319.0534666666667
 20
218.0
 10
319.0534666666667
 20
212.0
 10
320.6534666666667
 20
212.0
 10
320.6534666666667
 20
218.0
 10
326.3534666666667
 20
218.0
 10
326.3534666666667
 20
207.0
 10
314.4034666666667
 20
207.0
 10
314.4034666666667
 20
204.0
 10
309.3034666666667
 20
204.0
 10
309.3034666666667
 20
207.0
 10
297.3534666666667
 20
207.0
 10
297.3534666666667
 20
209.95
  0
TEXT
  5
11C
330
17
100
AcDbEntity
  8
ENGRAVE
 62
3
100
AcDbText
 10
310.3534666666667
 20
211.0
 30
0.0
 40
4.2
  1
1
 72
1
 11
310.3534666666667
 21
211.0
 31
0.0
100
AcDbText
 73
2
  0
LWPOLYLINE
  5
11D
330
17
100
AcDbEntity
  8
CUT
 62
1
100
AcDbPolyline
 90
16
 70
1
 10
332.75346666666667
 20
226.95
 10
332.75346666666667
 20
232.05
 10
335.75346666666667
 20
232.05
 10
335.75346666666667
 20
235.0
 10
357.45346666666666
 20
235.0
 10
357.45346666666666
 20
229.0
 10
359.0534666666667
 20
229.0
 10
359.0534666666667
 20
235.0
 10
364.75346666666667
 20
235.0
 10
364.75346666666667
 20
224.0
 10
352.8034666666667
 20
224.0
 10
352.8034666666667
 20
221.0
 10
347.70346666666666
 20
221.0
 10
347.70346666666666
 20
224.0
 10
335.75346666666667
 20
224.0
 10
335.75346666666667
 20
226.95
  0
TEXT
  5
11E
330
17
100
AcDbEntity
  8
ENGRAVE
 62
3
100
AcDbText
 10
348.75346666666667
 20
228.0
 30
0.0
 40
4.2
  1
1
 72
1
 11
348.75346666666667
 21
228.0
 31
0.0
100
AcDbText
 73
2
  0
LWPOLYLINE
  5
11F
330
17
100
AcDbEntity
  8
CUT
 62
1
100
AcDbPolyline
 90
16
 70
1
 10
294.3534666666667
 20
226.95
 10
294.3534666666667
 20
232.05
 10
297.3534666666667
 20
232.05
 10
297.3534666666667
 20
235.0
 10
319.0534666666667
 20
235.0
 10
319.0534666666667
 20
229.0
 10
320.6534666666667
 20
229.0
 10
320.6534666666667
 20
235.0
 10
326.3534666666667
 20
235.0
 10
326.3534666666667
 20
224.0
 10
314.4034666666667
 20
224.0
 10
314.4034666666667
 20
221.0
 10
309.3034666666667
 20
221.0
 10
309.3034666666667
 20
224.0
 10
297.3534666666667
 20
224.0
 10
297.3534666666667
 20
226.95
  0
TEXT
  5
120
330
17
100
AcDbEntity
  8
ENGRAVE
 62
3
100
AcDbText
 10
310.3534666666667
 20
228.0
 30
0.0
 40
4.2
  1
1
 72
1
 11
310.3534666666667
 21
228.0
 31
0.0
100
AcDbText
 73
2
  0
LWPOLYLINE
  5
121
330
17
100
AcDbEntity
  8
CUT
 62
1
100
AcDbPolyline
 90
16
 70
1
 10
332.75346666666667
 20
243.95
 10
332.75346666666667
 20
249.05
 10
335.75346666666667
 20
249.05
 10
335.75346666666667
 20
252.0
 10
357.45346666666666
 20
252.0
 10
357.45346666666666
 20
246.0
 10
359.0534666666667
 20
246.0
 10
359.0534666666667
 20
252.0
 10
364.75346666666667
 20
252.0
 10
364.75346666666667
 20
241.0
 10
352.8034666666667
 20
241.0
 10
352.8034666666667
 20
238.0
 10
347.70346666666666
 20
238.0
 10
347.70346666666666
 20
241.0
 10
335.75346666666667
 20
241.0
 10
335.75346666666667
 20
243.95
  0
TEXT
  5
122
330
17
100
AcDbEntity
  8
ENGRAVE
 62
3
100
AcDbText
 10
348.75346666666667
 20
245.0
 30
0.0
 40
4.2
  1
1
 72
1
 11
348.75346666666667
 21
245.0
 31
0.0
100
AcDbText
 73
2
  0
LWPOLYLINE
  5
123
330
17
100
AcDbEntity
  8
CUT
 62
1
100
AcDbPolyline
 90
16
 70
1
 10
294.3534666666667
 20
243.95
 10
294.3534666666667
 20
249.05
 10
297.3534666666667
 20
249.05
 10
297.3534666666667
 20
252.0
 10
319.0534666666667
 20
252.0
 10
319.0534666666667
 20
246.0
 10
320.6534666666667
 20
246.0
 10
320.6534666666667
 20
252.0
 10
326.3534666666667
 20
252.0
 10
326.3534666666667
 20
241.0
 10
314.4034666666667
 20
241.0
 10
314.4034666666667
 20
238.0
 10
309.3034666666667
 20
238.0
 10
309.3034666666667
 20
241.0
 10
297.3534666666667
 20
241.0
 10
297.3534666666667
 20
243.95
  0
TEXT
  5
124
330
17
100
AcDbEntity
  8
ENGRAVE
 62
3
100
AcDbText
 10
310.3534666666667
 20
245.0
 30
0.0
 40
4.2
  1
1
 72
1
 11
310.3534666666667
 21
245.0
 31
0.0
100
AcDbText
 73
2
  0
LWPOLYLINE
  5
125
330
17
100
AcDbEntity
  8
CUT
 62
1
100
AcDbPolyline
 90
16
 70
1
 10
332.75346666666667
 20
260.95
 10
332.75346666666667
 20
266.05
 10
335.75346666666667
 20
266.05
 10
335.75346666666667
 20
269.0
 10
357.45346666666666
 20
269.0
 10
357.45346666666666
 20
263.0
 10
359.0534666666667
 20
263.0
 10
359.0534666666667
 20
269.0
 10
364.75346666666667
 20
269.0
 10
364.75346666666667
 20
258.0
 10
352.8034666666667
 20
258.0
 10
352.8034666666667
 20
255.0
 10
347.70346666666666
 20
255.0
 10
347.70346666666666
 20
258.0
 10
335.75346666666667
 20
258.0
 10
335.75346666666667
 20
260.95
  0
TEXT
  5
126
330
17
100
AcDbEntity
  8
ENGRAVE
 62
3
100
AcDbText
 10
348.75346666666667
 20
262.0
 30
0.0
 40
4.2
  1
1
 72
1
 11
348.75346666666667
 21
262.0
 31
0.0
100
AcDbText
 73
2
  0
LWPOLYLINE
  5
127
330
17
100
AcDbEntity
  8
CUT
 62
1
100
AcDbPolyline
 90
16
 70
1
 10
294.3534666666667
 20
260.95
 10
294.3534666666667
 20
266.05
 10
297.3534666666667
 20
266.05
 10
297.3534666666667
 20
269.0
 10
319.0534666666667
 20
269.0
 10
319.0534666666667
 20
263.0
 10
320.6534666666667
 20
263.0
 10
320.6534666666667
 20
269.0
 10
326.3534666666667
 20
269.0
 10
326.3534666666667
 20
258.0
 10
314.4034666666667
 20
258.0
 10
314.4034666666667
 20
255.0
 10
309.3034666666667
 20
255.0
 10
309.3034666666667
 20
258.0
 10
297.3534666666667
 20
258.0
 10
297.3534666666667
 20
260.95
  0
TEXT
  5
128
330
17
100
AcDbEntity
  8
ENGRAVE
 62
3
100
AcDbText
 10
310.3534666666667
 20
262.0
 30
0.0
 40
4.2
  1
1
 72
1
 11
310.3534666666667
 21
262.0
 31
0.0
100
AcDbText
 73
2
  0
LWPOLYLINE
  5
129
330
17
100
AcDbEntity
  8
CUT
 62
1
100
AcDbPolyline
 90
16
 70
1
 10
332.75346666666667
 20
277.95
 10
332.75346666666667
 20
283.05
 10
335.75346666666667
 20
283.05
 10
335.75346666666667
 20
286.0
 10
357.45346666666666
 20
286.0
 10
357.45346666666666
 20
280.0
 10
359.0534666666667
 20
280.0
 10
359.0534666666667
 20
286.0
 10
364.75346666666667
 20
286.0
 10
364.75346666666667
 20
275.0
 10
352.8034666666667
 20
275.0
 10
352.8034666666667
 20
272.0
 10
347.70346666666666
 20
272.0
 10
347.70346666666666
 20
275.0
 10
335.75346666666667
 20
275.0
 10
335.75346666666667
 20
277.95
  0
TEXT
  5
12A
330
17
100
AcDbEntity
  8
ENGRAVE
 62
3
100
AcDbText
 10
348.75346666666667
 20
279.0
 30
0.0
 40
4.2
  1
1
 72
1
 11
348.75346666666667
 21
279.0
 31
0.0
100
AcDbText
 73
2
  0
LWPOLYLINE
  5
12B
330
17
100
AcDbEntity
  8
CUT
 62
1
100
AcDbPolyline
 90
16
 70
1
 10
294.3534666666667
 20
277.95
 10
294.3534666666667
 20
283.05
 10
297.3534666666667
 20
283.05
 10
297.3534666666667
 20
286.0
 10
319.0534666666667
 20
286.0
 10
319.0534666666667
 20
280.0
 10
320.6534666666667
 20
280.0
 10
320.6534666666667
 20
286.0
 10
326.3534666666667
 20
286.0
 10
326.3534666666667
 20
275.0
 10
314.4034666666667
 20
275.0
 10
314.4034666666667
 20
272.0
 10
309.3034666666667
 20
272.0
 10
309.3034666666667
 20
275.0
 10
297.3534666666667
 20
275.0
 10
297.3534666666667
 20
277.95
  0
TEXT
  5
12C
330
17
100
AcDbEntity
  8
ENGRAVE
 62
3
100
AcDbText
 10
310.3534666666667
 20
279.0
 30
0.0
 40
4.2
  1
1
 72
1
 11
310.3534666666667
 21
279.0
 31
0.0
100
AcDbText
 73
2
  0
LWPOLYLINE
  5
12D
330
17
100
AcDbEntity
  8
CUT
 62
1
100
AcDbPolyline
 90
16
 70
1
 10
332.75346666666667
 20
294.95
 10
332.75346666666667
 20
300.05
 10
335.75346666666667
 20
300.05
 10
335.75346666666667
 20
303.0
 10
357.45346666666666
 20
303.0
 10
357.45346666666666
 20
297.0
 10
359.0534666666667
 20
297.0
 10
359.0534666666667
 20
303.0
 10
364.75346666666667
 20
303.0
 10
364.75346666666667
 20
292.0
 10
352.8034666666667
 20
292.0
 10
352.8034666666667
 20
289.0
 10
347.70346666666666
 20
289.0
 10
347.70346666666666
 20
292.0
 10
335.75346666666667
 20
292.0
 10
335.75346666666667
 20
294.95
  0
TEXT
  5
12E
330
17
100
AcDbEntity
  8
ENGRAVE
 62
3
100
AcDbText
 10
348.75346666666667
 20
296.0
 30
0.0
 40
4.2
  1
1
 72
1
 11
348.75346666666667
 21
296.0
 31
0.0
100
AcDbText
 73
2
  0
LWPOLYLINE
  5
12F
330
17
100
AcDbEntity
  8
CUT
 62
1
100
AcDbPolyline
 90
16
 70
1
 10
294.3534666666667
 20
294.95
 10
294.3534666666667
 20
300.05
 10
297.3534666666667
 20
300.05
 10
297.3534666666667
 20
303.0
 10
319.0534666666667
 20
303.0
 10
319.0534666666667
 20
297.0
 10
320.6534666666667
 20
297.0
 10
320.6534666666667
 20
303.0
 10
326.3534666666667
 20
303.0
 10
326.3534666666667
 20
292.0
 10
314.4034666666667
 20
292.0
 10
314.4034666666667
 20
289.0
 10
309.3034666666667
 20
289.0
 10
309.3034666666667
 20
292.0
 10
297.3534666666667
 20
292.0
 10
297.3534666666667
 20
294.95
  0
TEXT
  5
130
330
17
100
AcDbEntity
  8
ENGRAVE
 62
3
100
AcDbText
 10
310.3534666666667
 20
296.0
 30
0.0
 40
4.2
  1
1
 72
1
 11
310.3534666666667
 21
296.0
 31
0.0
100
AcDbText
 73
2
  0
LWPOLYLINE
  5
131
330
17
100
AcDbEntity
  8
SKETCH
 62
8
100
AcDbPolyline
 90
4
 70
1
 10
0.0
 20
0.0
 10
370.0
 20
0.0
 10
370.0
 20
370.0
 10
0.0
 20
370.0
  0
ENDSEC
  0
SECTION
  2
OBJECTS
  0
DICTIONARY
  5
A
330
0
100
AcDbDictionary
281
1
  3
ACAD_COLOR
350
B
  3
ACAD_GROUP
350
C
  3
ACAD_LAYOUT
350
D
  3
ACAD_MATERIAL
350
E
  3
ACAD_MLEADERSTYLE
350
F
  3
ACAD_MLINESTYLE
350
10
  3
ACAD_PLOTSETTINGS
350
11
  3
ACAD_PLOTSTYLENAME
350
12
  3
ACAD_SCALELIST
350
14
  3
ACAD_TABLESTYLE
350
15
  3
ACAD_VISUALSTYLE
350
16
  3
EZDXF_META
350
2D
  0
DICTIONARY
  5
B
330
A
100
AcDbDictionary
281
1
  0
DICTIONARY
  5
C
330
A
100
AcDbDictionary
281
1
  0
DICTIONARY
  5
D
330
A
100
AcDbDictionary
281
1
  3
Model
350
1A
  3
Layout1
350
1E
  0
DICTIONARY
  5
E
330
A
100
AcDbDictionary
281
1
  3
ByBlock
350
1F
  3
ByLayer
350
20
  3
Global
350
21
  0
DICTIONARY
  5
F
330
A
100
AcDbDictionary
281
1
  3
Standard
350
2C
  0
DICTIONARY
  5
10
330
A
100
AcDbDictionary
281
1
  3
Standard
350
22
  0
DICTIONARY
  5
11
330
A
100
AcDbDictionary
281
1
  0
ACDBDICTIONARYWDFLT
  5
12
330
A
100
AcDbDictionary
281
1
  3
Normal
350
13
100
AcDbDictionaryWithDefault
340
13
  0
ACDBPLACEHOLDER
  5
13
330
12
  0
DICTIONARY
  5
14
330
A
100
AcDbDictionary
281
1
  0
DICTIONARY
  5
15
330
A
100
AcDbDictionary
281
1
  0
DICTIONARY
  5
16
330
A
100
AcDbDictionary
281
1
  0
LAYOUT
  5
1A
330
D
100
AcDbPlotSettings
  1

  4
A3
  6

 40
7.5
 41
20.0
 42
7.5
 43
20.0
 44
420.0
 45
297.0
 46
0.0
 47
0.0
 48
0.0
 49
0.0
140
0.0
141
0.0
142
1.0
143
1.0
 70
1024
 72
1
 73
0
 74
5
  7

 75
16
 76
0
 77
2
 78
300
147
1.0
148
0.0
149
0.0
100
AcDbLayout
  1
Model
 70
1
 71
0
 10
0.0
 20
0.0
 11
420.0
 21
297.0
 12
0.0
 22
0.0
 32
0.0
 14
1e+20
 24
1e+20
 34
1e+20
 15
-1e+20
 25
-1e+20
 35
-1e+20
146
0.0
 13
0.0
 23
0.0
 33
0.0
 16
1.0
 26
0.0
 36
0.0
 17
0.0
 27
1.0
 37
0.0
 76
1
330
17
  0
LAYOUT
  5
1E
330
D
100
AcDbPlotSettings
  1

  4
A3
  6

 40
7.5
 41
20.0
 42
7.5
 43
20.0
 44
420.0
 45
297.0
 46
0.0
 47
0.0
 48
0.0
 49
0.0
140
0.0
141
0.0
142
1.0
143
1.0
 70
0
 72
1
 73
0
 74
5
  7

 75
16
 76
0
 77
2
 78
300
147
1.0
148
0.0
149
0.0
100
AcDbLayout
  1
Layout1
 70
1
 71
1
 10
0.0
 20
0.0
 11
420.0
 21
297.0
 12
0.0
 22
0.0
 32
0.0
 14
1e+20
 24
1e+20
 34
1e+20
 15
-1e+20
 25
-1e+20
 35
-1e+20
146
0.0
 13
0.0
 23
0.0
 33
0.0
 16
1.0
 26
0.0
 36
0.0
 17
0.0
 27
1.0
 37
0.0
 76
1
330
1B
  0
MATERIAL
  5
1F
102
{ACAD_REACTORS
330
E
102
}
330
E
100
AcDbMaterial
  1
ByBlock
  2

 70
0
 40
1.0
 71
1
 41
1.0
 91
-1023410177
 42
1.0
 72
1
  3

 73
1
 74
1
 75
1
 44
0.5
 73
0
 45
1.0
 46
1.0
 77
1
  4

 78
1
 79
1
170
1
 48
1.0
171
1
  6

172
1
173
1
174
1
140
1.0
141
1.0
175
1
  7

176
1
177
1
178
1
143
1.0
179
1
  8

270
1
271
1
272
1
145
1.0
146
1.0
273
1
  9

274
1
275
1
276
1
 42
1.0
 72
1
  3

 73
1
 74
1
 75
1
 94
63
  0
MATERIAL
  5
20
102
{ACAD_REACTORS
330
E
102
}
330
E
100
AcDbMaterial
  1
ByLayer
  2

 70
0
 40
1.0
 71
1
 41
1.0
 91
-1023410177
 42
1.0
 72
1
  3

 73
1
 74
1
 75
1
 44
0.5
 73
0
 45
1.0
 46
1.0
 77
1
  4

 78
1
 79
1
170
1
 48
1.0
171
1
  6

172
1
173
1
174
1
140
1.0
141
1.0
175
1
  7

176
1
177
1
178
1
143
1.0
179
1
  8

270
1
271
1
272
1
145
1.0
146
1.0
273
1
  9

274
1
275
1
276
1
 42
1.0
 72
1
  3

 73
1
 74
1
 75
1
 94
63
  0
MATERIAL
  5
21
102
{ACAD_REACTORS
330
E
102
}
330
E
100
AcDbMaterial
  1
Global
  2

 70
0
 40
1.0
 71
1
 41
1.0
 91
-1023410177
 42
1.0
 72
1
  3

 73
1
 74
1
 75
1
 44
0.5
 73
0
 45
1.0
 46
1.0
 77
1
  4

 78
1
 79
1
170
1
 48
1.0
171
1
  6

172
1
173
1
174
1
140
1.0
141
1.0
175
1
  7

176
1
177
1
178
1
143
1.0
179
1
  8

270
1
271
1
272
1
145
1.0
146
1.0
273
1
  9

274
1
275
1
276
1
 42
1.0
 72
1
  3

 73
1
 74
1
 75
1
 94
63
  0
MLINESTYLE
  5
22
102
{ACAD_REACTORS
330
10
102
}
330
10
100
AcDbMlineStyle
  2
Standard
 70
0
  3

 62
256
 51
90.0
 52
90.0
 71
2
 49
0.5
 62
256
  6
BYLAYER
 49
-0.5
 62
256
  6
BYLAYER
  0
MLEADERSTYLE
  5
2C
102
{ACAD_REACTORS
330
F
102
}
330
F
100
AcDbMLeaderStyle
179
2
170
2
171
1
172
0
 90
2
 40
0.0
 41
0.0
173
1
 91
-1056964608
 92
-2
290
1
 42
2.0
291
1
 43
8.0
  3
Standard
 44
4.0
300

342
29
174
1
175
1
176
0
178
1
 93
-1056964608
 45
4.0
292
0
297
0
 46
4.0
 94
-1056964608
 47
1.0
 49
1.0
140
1.0
294
1
141
0.0
177
0
142
1.0
295
0
296
0
143
3.75
271
0
272
9
273
9
  0
DICTIONARY
  5
2D
330
A
100
AcDbDictionary
280
1
281
1
  3
CREATED_BY_EZDXF
350
2E
  3
WRITTEN_BY_EZDXF
350
134
  0
DICTIONARYVAR
  5
2E
330
2D
100
DictionaryVariables
280
0
  1
1.4.4 @ 2026-07-22T17:12:35.528071+00:00
  0
DICTIONARYVAR
  5
134
330
2D
100
DictionaryVariables
280
0
  1
1.4.4 @ 2026-07-22T17:12:35.544747+00:00
  0
ENDSEC
  0
EOF
