  0
SECTION
  2
HEADER
  9
$ACADVER
  1
AC1024
  9
$ACADMAINTVER
 70
6
  9
$DWGCODEPAGE
  3
ANSI_1252
  9
$LASTSAVEDBY
  1
ezdxf
  9
$INSBASE
 10
0.0
 20
0.0
 30
0.0
  9
$EXTMIN
 10
1e+20
 20
1e+20
 30
1e+20
  9
$EXTMAX
 10
-1e+20
 20
-1e+20
 30
-1e+20
  9
$LIMMIN
 10
0.0
 20
0.0
  9
$LIMMAX
 10
420.0
 20
297.0
  9
$ORTHOMODE
 70
0
  9
$REGENMODE
 70
1
  9
$FILLMODE
 70
1
  9
$QTEXTMODE
 70
0
  9
$MIRRTEXT
 70
1
  9
$LTSCALE
 40
1.0
  9
$ATTMODE
 70
1
  9
$TEXTSIZE
 40
2.5
  9
$TRACEWID
 40
1.0
  9
$TEXTSTYLE
  7
Standard
  9
$CLAYER
  8
0
  9
$CELTYPE
  6
ByLayer
  9
$CECOLOR
 62
256
  9
$CELTSCALE
 40
1.0
  9
$DISPSILH
 70
0
  9
$DIMSCALE
 40
1.0
  9
$DIMASZ
 40
2.5
  9
$DIMEXO
 40
0.625
  9
$DIMDLI
 40
3.75
  9
$DIMRND
 40
0.0
  9
$DIMDLE
 40
0.0
  9
$DIMEXE
 40
1.25
  9
$DIMTP
 40
0.0
  9
$DIMTM
 40
0.0
  9
$DIMTXT
 40
2.5
  9
$DIMCEN
 40
2.5
  9
$DIMTSZ
 40
0.0
  9
$DIMTOL
 70
0
  9
$DIMLIM
 70
0
  9
$DIMTIH
 70
0
  9
$DIMTOH
 70
0
  9
$DIMSE1
 70
0
  9
$DIMSE2
 70
0
  9
$DIMTAD
 70
1
  9
$DIMZIN
 70
8
  9
$DIMBLK
  1

  9
$DIMASO
 70
1
  9
$DIMSHO
 70
1
  9
$DIMPOST
  1

  9
$DIMAPOST
  1

  9
$DIMALT
 70
0
  9
$DIMALTD
 70
3
  9
$DIMALTF
 40
0.03937007874
  9
$DIMLFAC
 40
1.0
  9
$DIMTOFL
 70
1
  9
$DIMTVP
 40
0.0
  9
$DIMTIX
 70
0
  9
$DIMSOXD
 70
0
  9
$DIMSAH
 70
0
  9
$DIMBLK1
  1

  9
$DIMBLK2
  1

  9
$DIMSTYLE
  2
ISO-25
  9
$DIMCLRD
 70
0
  9
$DIMCLRE
 70
0
  9
$DIMCLRT
 70
0
  9
$DIMTFAC
 40
1.0
  9
$DIMGAP
 40
0.625
  9
$DIMJUST
 70
0
  9
$DIMSD1
 70
0
  9
$DIMSD2
 70
0
  9
$DIMTOLJ
 70
0
  9
$DIMTZIN
 70
8
  9
$DIMALTZ
 70
0
  9
$DIMALTTZ
 70
0
  9
$DIMUPT
 70
0
  9
$DIMDEC
 70
2
  9
$DIMTDEC
 70
2
  9
$DIMALTU
 70
2
  9
$DIMALTTD
 70
3
  9
$DIMTXSTY
  7
Standard
  9
$DIMAUNIT
 70
0
  9
$DIMADEC
 70
0
  9
$DIMALTRND
 40
0.0
  9
$DIMAZIN
 70
0
  9
$DIMDSEP
 70
44
  9
$DIMATFIT
 70
3
  9
$DIMFRAC
 70
0
  9
$DIMLDRBLK
  1

  9
$DIMLUNIT
 70
2
  9
$DIMLWD
 70
-2
  9
$DIMLWE
 70
-2
  9
$DIMTMOVE
 70
0
  9
$DIMFXL
 40
1.0
  9
$DIMFXLON
 70
0
  9
$DIMJOGANG
 40
0.785398163397
  9
$DIMTFILL
 70
0
  9
$DIMTFILLCLR
 70
0
  9
$DIMARCSYM
 70
0
  9
$DIMLTYPE
  6

  9
$DIMLTEX1
  6

  9
$DIMLTEX2
  6

  9
$DIMTXTDIRECTION
 70
0
  9
$LUNITS
 70
2
  9
$LUPREC
 70
4
  9
$SKETCHINC
 40
1.0
  9
$FILLETRAD
 40
10.0
  9
$AUNITS
 70
0
  9
$AUPREC
 70
2
  9
$MENU
  1
.
  9
$ELEVATION
 40
0.0
  9
$PELEVATION
 40
0.0
  9
$THICKNESS
 40
0.0
  9
$LIMCHECK
 70
0
  9
$CHAMFERA
 40
0.0
  9
$CHAMFERB
 40
0.0
  9
$CHAMFERC
 40
0.0
  9
$CHAMFERD
 40
0.0
  9
$SKPOLY
 70
0
  9
$TDCREATE
 40
2461239.5105787036
  9
$TDUCREATE
 40
2458532.153996898
  9
$TDUPDATE
 40
2461239.5105787036
  9
$TDUUPDATE
 40
2458532.1544311
  9
$TDINDWG
 40
0.0
  9
$TDUSRTIMER
 40
0.0
  9
$USRTIMER
 70
1
  9
$ANGBASE
 50
0.0
  9
$ANGDIR
 70
0
  9
$PDMODE
 70
0
  9
$PDSIZE
 40
0.0
  9
$PLINEWID
 40
0.0
  9
$SPLFRAME
 70
0
  9
$SPLINETYPE
 70
6
  9
$SPLINESEGS
 70
8
  9
$HANDSEED
  5
BB
  9
$SURFTAB1
 70
6
  9
$SURFTAB2
 70
6
  9
$SURFTYPE
 70
6
  9
$SURFU
 70
6
  9
$SURFV
 70
6
  9
$UCSBASE
  2

  9
$UCSNAME
  2

  9
$UCSORG
 10
0.0
 20
0.0
 30
0.0
  9
$UCSXDIR
 10
1.0
 20
0.0
 30
0.0
  9
$UCSYDIR
 10
0.0
 20
1.0
 30
0.0
  9
$UCSORTHOREF
  2

  9
$UCSORTHOVIEW
 70
0
  9
$UCSORGTOP
 10
0.0
 20
0.0
 30
0.0
  9
$UCSORGBOTTOM
 10
0.0
 20
0.0
 30
0.0
  9
$UCSORGLEFT
 10
0.0
 20
0.0
 30
0.0
  9
$UCSORGRIGHT
 10
0.0
 20
0.0
 30
0.0
  9
$UCSORGFRONT
 10
0.0
 20
0.0
 30
0.0
  9
$UCSORGBACK
 10
0.0
 20
0.0
 30
0.0
  9
$PUCSBASE
  2

  9
$PUCSNAME
  2

  9
$PUCSORG
 10
0.0
 20
0.0
 30
0.0
  9
$PUCSXDIR
 10
1.0
 20
0.0
 30
0.0
  9
$PUCSYDIR
 10
0.0
 20
1.0
 30
0.0
  9
$PUCSORTHOREF
  2

  9
$PUCSORTHOVIEW
 70
0
  9
$PUCSORGTOP
 10
0.0
 20
0.0
 30
0.0
  9
$PUCSORGBOTTOM
 10
0.0
 20
0.0
 30
0.0
  9
$PUCSORGLEFT
 10
0.0
 20
0.0
 30
0.0
  9
$PUCSORGRIGHT
 10
0.0
 20
0.0
 30
0.0
  9
$PUCSORGFRONT
 10
0.0
 20
0.0
 30
0.0
  9
$PUCSORGBACK
 10
0.0
 20
0.0
 30
0.0
  9
$USERI1
 70
0
  9
$USERI2
 70
0
  9
$USERI3
 70
0
  9
$USERI4
 70
0
  9
$USERI5
 70
0
  9
$USERR1
 40
0.0
  9
$USERR2
 40
0.0
  9
$USERR3
 40
0.0
  9
$USERR4
 40
0.0
  9
$USERR5
 40
0.0
  9
$WORLDVIEW
 70
1
  9
$SHADEDGE
 70
3
  9
$SHADEDIF
 70
70
  9
$TILEMODE
 70
1
  9
$MAXACTVP
 70
64
  9
$PINSBASE
 10
0.0
 20
0.0
 30
0.0
  9
$PLIMCHECK
 70
0
  9
$PEXTMIN
 10
1e+20
 20
1e+20
 30
1e+20
  9
$PEXTMAX
 10
-1e+20
 20
-1e+20
 30
-1e+20
  9
$PLIMMIN
 10
0.0
 20
0.0
  9
$PLIMMAX
 10
420.0
 20
297.0
  9
$UNITMODE
 70
0
  9
$VISRETAIN
 70
1
  9
$PLINEGEN
 70
0
  9
$PSLTSCALE
 70
1
  9
$TREEDEPTH
 70
3020
  9
$CMLSTYLE
  2
Standard
  9
$CMLJUST
 70
0
  9
$CMLSCALE
 40
20.0
  9
$PROXYGRAPHICS
 70
1
  9
$MEASUREMENT
 70
1
  9
$CELWEIGHT
370
-1
  9
$ENDCAPS
280
0
  9
$JOINSTYLE
280
0
  9
$LWDISPLAY
290
0
  9
$INSUNITS
 70
4
  9
$HYPERLINKBASE
  1

  9
$STYLESHEET
  1

  9
$XEDIT
290
1
  9
$CEPSNTYPE
380
0
  9
$PSTYLEMODE
290
1
  9
$FINGERPRINTGUID
  2
{01DC6DCE-BFD7-4AE5-85DA-737649CD1C4D}
  9
$VERSIONGUID
  2
{D028DC4F-EAC2-4E47-9F01-870099490292}
  9
$EXTNAMES
290
1
  9
$PSVPSCALE
 40
0.0
  9
$OLESTARTUP
290
0
  9
$SORTENTS
280
127
  9
$INDEXCTL
280
0
  9
$HIDETEXT
280
1
  9
$XCLIPFRAME
280
1
  9
$HALOGAP
280
0
  9
$OBSCOLOR
 70
257
  9
$OBSLTYPE
280
0
  9
$INTERSECTIONDISPLAY
280
0
  9
$INTERSECTIONCOLOR
 70
257
  9
$DIMASSOC
280
2
  9
$PROJECTNAME
  1

  9
$CAMERADISPLAY
290
0
  9
$LENSLENGTH
 40
50.0
  9
$CAMERAHEIGHT
 40
0.0
  9
$STEPSPERSEC
 40
24.0
  9
$STEPSIZE
 40
100.0
  9
$3DDWFPREC
 40
2.0
  9
$PSOLWIDTH
 40
0.005
  9
$PSOLHEIGHT
 40
0.08
  9
$LOFTANG1
 40
1.570796326795
  9
$LOFTANG2
 40
1.570796326795
  9
$LOFTMAG1
 40
0.0
  9
$LOFTMAG2
 40
0.0
  9
$LOFTPARAM
 70
7
  9
$LOFTNORMALS
280
1
  9
$LATITUDE
 40
37.795
  9
$LONGITUDE
 40
-122.394
  9
$NORTHDIRECTION
 40
0.0
  9
$TIMEZONE
 70
-8000
  9
$LIGHTGLYPHDISPLAY
280
1
  9
$TILEMODELIGHTSYNCH
280
1
  9
$CMATERIAL
347
20
  9
$SOLIDHIST
280
0
  9
$SHOWHIST
280
1
  9
$DWFFRAME
280
2
  9
$DGNFRAME
280
2
  9
$REALWORLDSCALE
290
1
  9
$INTERFERECOLOR
 62
256
  9
$CSHADOW
280
0
  9
$SHADOWPLANELOCATION
 40
0.0
  0
ENDSEC
  0
SECTION
  2
CLASSES
  0
CLASS
  1
ACDBDICTIONARYWDFLT
  2
AcDbDictionaryWithDefault
  3
ObjectDBX Classes
 90
0
 91
0
280
0
281
0
  0
CLASS
  1
SUN
  2
AcDbSun
  3
SCENEOE
 90
1153
 91
0
280
0
281
0
  0
CLASS
  1
VISUALSTYLE
  2
AcDbVisualStyle
  3
ObjectDBX Classes
 90
4095
 91
0
280
0
281
0
  0
CLASS
  1
MATERIAL
  2
AcDbMaterial
  3
ObjectDBX Classes
 90
1153
 91
0
280
0
281
0
  0
CLASS
  1
SCALE
  2
AcDbScale
  3
ObjectDBX Classes
 90
1153
 91
0
280
0
281
0
  0
CLASS
  1
TABLESTYLE
  2
AcDbTableStyle
  3
ObjectDBX Classes
 90
4095
 91
0
280
0
281
0
  0
CLASS
  1
MLEADERSTYLE
  2
AcDbMLeaderStyle
  3
ACDB_MLEADERSTYLE_CLASS
 90
4095
 91
0
280
0
281
0
  0
CLASS
  1
DICTIONARYVAR
  2
AcDbDictionaryVar
  3
ObjectDBX Classes
 90
0
 91
0
280
0
281
0
  0
CLASS
  1
CELLSTYLEMAP
  2
AcDbCellStyleMap
  3
ObjectDBX Classes
 90
1152
 91
0
280
0
281
0
  0
CLASS
  1
MENTALRAYRENDERSETTINGS
  2
AcDbMentalRayRenderSettings
  3
SCENEOE
 90
1024
 91
0
280
0
281
0
  0
CLASS
  1
ACDBDETAILVIEWSTYLE
  2
AcDbDetailViewStyle
  3
ObjectDBX Classes
 90
1025
 91
0
280
0
281
0
  0
CLASS
  1
ACDBSECTIONVIEWSTYLE
  2
AcDbSectionViewStyle
  3
ObjectDBX Classes
 90
1025
 91
0
280
0
281
0
  0
CLASS
  1
RASTERVARIABLES
  2
AcDbRasterVariables
  3
ISM
 90
0
 91
0
280
0
281
0
  0
CLASS
  1
ACDBPLACEHOLDER
  2
AcDbPlaceHolder
  3
ObjectDBX Classes
 90
0
 91
0
280
0
281
0
  0
CLASS
  1
LAYOUT
  2
AcDbLayout
  3
ObjectDBX Classes
 90
0
 91
0
280
0
281
0
  0
ENDSEC
  0
SECTION
  2
TABLES
  0
TABLE
  2
VPORT
  5
8
330
0
100
AcDbSymbolTable
 70
1
  0
VPORT
  5
23
330
8
100
AcDbSymbolTableRecord
100
AcDbViewportTableRecord
  2
*Active
 70
0
 10
0.0
 20
0.0
 11
1.0
 21
1.0
 12
0.0
 22
0.0
 13
0.0
 23
0.0
 14
0.5
 24
0.5
 15
0.5
 25
0.5
 16
0.0
 26
0.0
 36
1.0
 17
0.0
 27
0.0
 37
0.0
 40
1000.0
 41
1.34
 42
50.0
 43
0.0
 44
0.0
 50
0.0
 51
0.0
 71
0
 72
1000
 73
1
 74
3
 75
0
 76
0
 77
0
 78
0
281
0
 65
0
146
0.0
  0
ENDTAB
  0
TABLE
  2
LTYPE
  5
2
330
0
100
AcDbSymbolTable
 70
3
  0
LTYPE
  5
24
330
2
100
AcDbSymbolTableRecord
100
AcDbLinetypeTableRecord
  2
ByBlock
 70
0
  3

 72
65
 73
0
 40
0.0
  0
LTYPE
  5
25
330
2
100
AcDbSymbolTableRecord
100
AcDbLinetypeTableRecord
  2
ByLayer
 70
0
  3

 72
65
 73
0
 40
0.0
  0
LTYPE
  5
26
330
2
100
AcDbSymbolTableRecord
100
AcDbLinetypeTableRecord
  2
Continuous
 70
0
  3

 72
65
 73
0
 40
0.0
  0
ENDTAB
  0
TABLE
  2
LAYER
  5
1
330
0
100
AcDbSymbolTable
 70
5
  0
LAYER
  5
27
330
1
100
AcDbSymbolTableRecord
100
AcDbLayerTableRecord
  2
0
 70
0
 62
7
  6
Continuous
370
-3
390
13
347
21
  0
LAYER
  5
28
330
1
100
AcDbSymbolTableRecord
100
AcDbLayerTableRecord
  2
Defpoints
 70
0
 62
7
  6
Continuous
290
0
370
-3
390
13
347
21
  0
LAYER
  5
2F
330
1
100
AcDbSymbolTableRecord
100
AcDbLayerTableRecord
  2
OUTLINE
 70
0
 62
1
  6
Continuous
370
-3
390
13
347
21
  0
LAYER
  5
30
330
1
100
AcDbSymbolTableRecord
100
AcDbLayerTableRecord
  2
PINS
 70
0
 62
1
  6
Continuous
370
-3
390
13
347
21
  0
LAYER
  5
31
330
1
100
AcDbSymbolTableRecord
100
AcDbLayerTableRecord
  2
SKETCH
 70
0
 62
8
  6
Continuous
370
-3
390
13
347
21
  0
ENDTAB
  0
TABLE
  2
STYLE
  5
5
330
0
100
AcDbSymbolTable
 70
1
  0
STYLE
  5
29
330
5
100
AcDbSymbolTableRecord
100
AcDbTextStyleTableRecord
  2
Standard
 70
0
 40
0.0
 41
1.0
 50
0.0
 71
0
 42
2.5
  3
txt
  4

  0
ENDTAB
  0
TABLE
  2
VIEW
  5
7
330
0
100
AcDbSymbolTable
 70
0
  0
ENDTAB
  0
TABLE
  2
UCS
  5
6
330
0
100
AcDbSymbolTable
 70
0
  0
ENDTAB
  0
TABLE
  2
APPID
  5
3
330
0
100
AcDbSymbolTable
 70
3
  0
APPID
  5
2A
330
3
100
AcDbSymbolTableRecord
100
AcDbRegAppTableRecord
  2
ACAD
 70
0
  0
APPID
  5
B8
330
3
100
AcDbSymbolTableRecord
100
AcDbRegAppTableRecord
  2
HATCHBACKGROUNDCOLOR
 70
0
  0
APPID
  5
B9
330
3
100
AcDbSymbolTableRecord
100
AcDbRegAppTableRecord
  2
EZDXF
 70
0
  0
ENDTAB
  0
TABLE
  2
DIMSTYLE
  5
4
330
0
100
AcDbSymbolTable
 70
1
100
AcDbDimStyleTable
  0
DIMSTYLE
105
2B
330
4
100
AcDbSymbolTableRecord
100
AcDbDimStyleTableRecord
  2
Standard
 70
0
 40
1.0
 41
2.5
 42
0.625
 43
3.75
 44
1.25
 45
0.0
 46
0.0
 47
0.0
 48
0.0
 49
2.5
140
2.5
141
2.5
142
0.0
143
0.03937007874
144
1.0
145
0.0
146
1.0
147
0.625
148
0.0
 69
0
 70
0
 71
0
 72
0
 73
0
 74
0
 75
0
 76
0
 77
1
 78
8
 79
3
170
0
171
3
172
1
173
0
174
0
175
0
176
0
177
0
178
0
179
2
271
2
272
2
273
2
274
3
275
0
276
0
277
2
278
44
279
0
280
0
281
0
282
0
283
0
284
8
285
0
286
0
288
0
289
3
290
0
371
-2
372
-2
  0
ENDTAB
  0
TABLE
  2
BLOCK_RECORD
  5
9
330
0
100
AcDbSymbolTable
 70
2
  0
BLOCK_RECORD
  5
17
330
9
100
AcDbSymbolTableRecord
100
AcDbBlockTableRecord
  2
*Model_Space
340
1A
 70
0
280
1
281
0
  0
BLOCK_RECORD
  5
1B
330
9
100
AcDbSymbolTableRecord
100
AcDbBlockTableRecord
  2
*Paper_Space
340
1E
 70
0
280
1
281
0
  0
ENDTAB
  0
ENDSEC
  0
SECTION
  2
BLOCKS
  0
BLOCK
  5
18
330
17
100
AcDbEntity
  8
0
100
AcDbBlockBegin
  2
*Model_Space
 70
0
 10
0.0
 20
0.0
 30
0.0
  3
*Model_Space
  1

  0
ENDBLK
  5
19
330
17
100
AcDbEntity
  8
0
100
AcDbBlockEnd
  0
BLOCK
  5
1C
330
1B
100
AcDbEntity
  8
0
100
AcDbBlockBegin
  2
*Paper_Space
 70
0
 10
0.0
 20
0.0
 30
0.0
  3
*Paper_Space
  1

  0
ENDBLK
  5
1D
330
1B
100
AcDbEntity
  8
0
100
AcDbBlockEnd
  0
ENDSEC
  0
SECTION
  2
ENTITIES
  0
LWPOLYLINE
  5
32
330
17
100
AcDbEntity
  8
OUTLINE
 62
1
100
AcDbPolyline
 90
12
 70
1
 10
0.0
 20
3.0
 10
16.2
 20
3.0
 10
16.2
 20
0.0
 10
21.299999999999997
 20
0.0
 10
21.299999999999997
 20
3.0
 10
53.7
 20
3.0
 10
53.7
 20
0.0
 10
58.800000000000004
 20
0.0
 10
58.800000000000004
 20
3.0
 10
75.0
 20
3.0
 10
75.0
 20
14.0
 10
0.0
 20
14.0
  0
LWPOLYLINE
  5
33
330
17
100
AcDbEntity
  8
PINS
 62
1
100
AcDbPolyline
 90
4
 70
1
 10
0.0
 20
6.0
 10
2.9
 20
6.0
 10
2.9
 20
11.0
 10
0.0
 20
11.0
  0
LWPOLYLINE
  5
34
330
17
100
AcDbEntity
  8
PINS
 62
1
100
AcDbPolyline
 90
4
 70
1
 10
23.299999999999997
 20
6.0
 10
26.199999999999996
 20
6.0
 10
26.199999999999996
 20
11.0
 10
23.299999999999997
 20
11.0
  0
LWPOLYLINE
  5
35
330
17
100
AcDbEntity
  8
PINS
 62
1
100
AcDbPolyline
 90
4
 70
1
 10
46.599999999999994
 20
6.0
 10
49.49999999999999
 20
6.0
 10
49.49999999999999
 20
11.0
 10
46.599999999999994
 20
11.0
  0
LWPOLYLINE
  5
36
330
17
100
AcDbEntity
  8
PINS
 62
1
100
AcDbPolyline
 90
4
 70
1
 10
72.1
 20
6.0
 10
75.0
 20
6.0
 10
75.0
 20
11.0
 10
72.1
 20
11.0
  0
LWPOLYLINE
  5
37
330
17
100
AcDbEntity
  8
OUTLINE
 62
1
100
AcDbPolyline
 90
12
 70
1
 10
80.0
 20
3.0
 10
96.2
 20
3.0
 10
96.2
 20
0.0
 10
101.3
 20
0.0
 10
101.3
 20
3.0
 10
133.7
 20
3.0
 10
133.7
 20
0.0
 10
138.8
 20
0.0
 10
138.8
 20
3.0
 10
155.0
 20
3.0
 10
155.0
 20
14.0
 10
80.0
 20
14.0
  0
LWPOLYLINE
  5
38
330
17
100
AcDbEntity
  8
PINS
 62
1
100
AcDbPolyline
 90
4
 70
1
 10
80.0
 20
6.0
 10
82.9
 20
6.0
 10
82.9
 20
11.0
 10
80.0
 20
11.0
  0
LWPOLYLINE
  5
39
330
17
100
AcDbEntity
  8
PINS
 62
1
100
AcDbPolyline
 90
4
 70
1
 10
103.3
 20
6.0
 10
106.19999999999999
 20
6.0
 10
106.19999999999999
 20
11.0
 10
103.3
 20
11.0
  0
LWPOLYLINE
  5
3A
330
17
100
AcDbEntity
  8
PINS
 62
1
100
AcDbPolyline
 90
4
 70
1
 10
126.6
 20
6.0
 10
129.5
 20
6.0
 10
129.5
 20
11.0
 10
126.6
 20
11.0
  0
LWPOLYLINE
  5
3B
330
17
100
AcDbEntity
  8
PINS
 62
1
100
AcDbPolyline
 90
4
 70
1
 10
152.1
 20
6.0
 10
155.0
 20
6.0
 10
155.0
 20
11.0
 10
152.1
 20
11.0
  0
LWPOLYLINE
  5
3C
330
17
100
AcDbEntity
  8
OUTLINE
 62
1
100
AcDbPolyline
 90
12
 70
1
 10
160.0
 20
3.0
 10
176.2
 20
3.0
 10
176.2
 20
0.0
 10
181.3
 20
0.0
 10
181.3
 20
3.0
 10
213.7
 20
3.0
 10
213.7
 20
0.0
 10
218.8
 20
0.0
 10
218.8
 20
3.0
 10
235.0
 20
3.0
 10
235.0
 20
14.0
 10
160.0
 20
14.0
  0
LWPOLYLINE
  5
3D
330
17
100
AcDbEntity
  8
PINS
 62
1
100
AcDbPolyline
 90
4
 70
1
 10
160.0
 20
6.0
 10
162.9
 20
6.0
 10
162.9
 20
11.0
 10
160.0
 20
11.0
  0
LWPOLYLINE
  5
3E
330
17
100
AcDbEntity
  8
PINS
 62
1
100
AcDbPolyline
 90
4
 70
1
 10
183.3
 20
6.0
 10
186.2
 20
6.0
 10
186.2
 20
11.0
 10
183.3
 20
11.0
  0
LWPOLYLINE
  5
3F
330
17
100
AcDbEntity
  8
PINS
 62
1
100
AcDbPolyline
 90
4
 70
1
 10
206.6
 20
6.0
 10
209.5
 20
6.0
 10
209.5
 20
11.0
 10
206.6
 20
11.0
  0
LWPOLYLINE
  5
40
330
17
100
AcDbEntity
  8
PINS
 62
1
100
AcDbPolyline
 90
4
 70
1
 10
232.1
 20
6.0
 10
235.0
 20
6.0
 10
235.0
 20
11.0
 10
232.1
 20
11.0
  0
LWPOLYLINE
  5
41
330
17
100
AcDbEntity
  8
OUTLINE
 62
1
100
AcDbPolyline
 90
12
 70
1
 10
240.0
 20
3.0
 10
256.2
 20
3.0
 10
256.2
 20
0.0
 10
261.3
 20
0.0
 10
261.3
 20
3.0
 10
293.7
 20
3.0
 10
293.7
 20
0.0
 10
298.8
 20
0.0
 10
298.8
 20
3.0
 10
315.0
 20
3.0
 10
315.0
 20
14.0
 10
240.0
 20
14.0
  0
LWPOLYLINE
  5
42
330
17
100
AcDbEntity
  8
PINS
 62
1
100
AcDbPolyline
 90
4
 70
1
 10
240.0
 20
6.0
 10
242.9
 20
6.0
 10
242.9
 20
11.0
 10
240.0
 20
11.0
  0
LWPOLYLINE
  5
43
330
17
100
AcDbEntity
  8
PINS
 62
1
100
AcDbPolyline
 90
4
 70
1
 10
263.3
 20
6.0
 10
266.2
 20
6.0
 10
266.2
 20
11.0
 10
263.3
 20
11.0
  0
LWPOLYLINE
  5
44
330
17
100
AcDbEntity
  8
PINS
 62
1
100
AcDbPolyline
 90
4
 70
1
 10
286.6
 20
6.0
 10
289.5
 20
6.0
 10
289.5
 20
11.0
 10
286.6
 20
11.0
  0
LWPOLYLINE
  5
45
330
17
100
AcDbEntity
  8
PINS
 62
1
100
AcDbPolyline
 90
4
 70
1
 10
312.1
 20
6.0
 10
315.0
 20
6.0
 10
315.0
 20
11.0
 10
312.1
 20
11.0
  0
LWPOLYLINE
  5
46
330
17
100
AcDbEntity
  8
OUTLINE
 62
1
100
AcDbPolyline
 90
12
 70
1
 10
320.0
 20
3.0
 10
336.2
 20
3.0
 10
336.2
 20
0.0
 10
341.3
 20
0.0
 10
341.3
 20
3.0
 10
373.7
 20
3.0
 10
373.7
 20
0.0
 10
378.8
 20
0.0
 10
378.8
 20
3.0
 10
395.0
 20
3.0
 10
395.0
 20
14.0
 10
320.0
 20
14.0
  0
LWPOLYLINE
  5
47
330
17
100
AcDbEntity
  8
PINS
 62
1
100
AcDbPolyline
 90
4
 70
1
 10
320.0
 20
6.0
 10
322.9
 20
6.0
 10
322.9
 20
11.0
 10
320.0
 20
11.0
  0
LWPOLYLINE
  5
48
330
17
100
AcDbEntity
  8
PINS
 62
1
100
AcDbPolyline
 90
4
 70
1
 10
343.3
 20
6.0
 10
346.2
 20
6.0
 10
346.2
 20
11.0
 10
343.3
 20
11.0
  0
LWPOLYLINE
  5
49
330
17
100
AcDbEntity
  8
PINS
 62
1
100
AcDbPolyline
 90
4
 70
1
 10
366.6
 20
6.0
 10
369.5
 20
6.0
 10
369.5
 20
11.0
 10
366.6
 20
11.0
  0
LWPOLYLINE
  5
4A
330
17
100
AcDbEntity
  8
PINS
 62
1
100
AcDbPolyline
 90
4
 70
1
 10
392.1
 20
6.0
 10
395.0
 20
6.0
 10
395.0
 20
11.0
 10
392.1
 20
11.0
  0
LWPOLYLINE
  5
4B
330
17
100
AcDbEntity
  8
OUTLINE
 62
1
100
AcDbPolyline
 90
12
 70
1
 10
400.0
 20
3.0
 10
416.2
 20
3.0
 10
416.2
 20
0.0
 10
421.3
 20
0.0
 10
421.3
 20
3.0
 10
453.7
 20
3.0
 10
453.7
 20
0.0
 10
458.8
 20
0.0
 10
458.8
 20
3.0
 10
475.0
 20
3.0
 10
475.0
 20
14.0
 10
400.0
 20
14.0
  0
LWPOLYLINE
  5
4C
330
17
100
AcDbEntity
  8
PINS
 62
1
100
AcDbPolyline
 90
4
 70
1
 10
400.0
 20
6.0
 10
402.9
 20
6.0
 10
402.9
 20
11.0
 10
400.0
 20
11.0
  0
LWPOLYLINE
  5
4D
330
17
100
AcDbEntity
  8
PINS
 62
1
100
AcDbPolyline
 90
4
 70
1
 10
423.3
 20
6.0
 10
426.2
 20
6.0
 10
426.2
 20
11.0
 10
423.3
 20
11.0
  0
LWPOLYLINE
  5
4E
330
17
100
AcDbEntity
  8
PINS
 62
1
100
AcDbPolyline
 90
4
 70
1
 10
446.6
 20
6.0
 10
449.5
 20
6.0
 10
449.5
 20
11.0
 10
446.6
 20
11.0
  0
LWPOLYLINE
  5
4F
330
17
100
AcDbEntity
  8
PINS
 62
1
100
AcDbPolyline
 90
4
 70
1
 10
472.1
 20
6.0
 10
475.0
 20
6.0
 10
475.0
 20
11.0
 10
472.1
 20
11.0
  0
LWPOLYLINE
  5
50
330
17
100
AcDbEntity
  8
OUTLINE
 62
1
100
AcDbPolyline
 90
12
 70
1
 10
480.0
 20
3.0
 10
496.2
 20
3.0
 10
496.2
 20
0.0
 10
501.3
 20
0.0
 10
501.3
 20
3.0
 10
533.7
 20
3.0
 10
533.7
 20
0.0
 10
538.8
 20
0.0
 10
538.8
 20
3.0
 10
555.0
 20
3.0
 10
555.0
 20
14.0
 10
480.0
 20
14.0
  0
LWPOLYLINE
  5
51
330
17
100
AcDbEntity
  8
PINS
 62
1
100
AcDbPolyline
 90
4
 70
1
 10
480.0
 20
6.0
 10
482.9
 20
6.0
 10
482.9
 20
11.0
 10
480.0
 20
11.0
  0
LWPOLYLINE
  5
52
330
17
100
AcDbEntity
  8
PINS
 62
1
100
AcDbPolyline
 90
4
 70
1
 10
503.3
 20
6.0
 10
506.2
 20
6.0
 10
506.2
 20
11.0
 10
503.3
 20
11.0
  0
LWPOLYLINE
  5
53
330
17
100
AcDbEntity
  8
PINS
 62
1
100
AcDbPolyline
 90
4
 70
1
 10
526.6
 20
6.0
 10
529.5
 20
6.0
 10
529.5
 20
11.0
 10
526.6
 20
11.0
  0
LWPOLYLINE
  5
54
330
17
100
AcDbEntity
  8
PINS
 62
1
100
AcDbPolyline
 90
4
 70
1
 10
552.1
 20
6.0
 10
555.0
 20
6.0
 10
555.0
 20
11.0
 10
552.1
 20
11.0
  0
LWPOLYLINE
  5
55
330
17
100
AcDbEntity
  8
OUTLINE
 62
1
100
AcDbPolyline
 90
14
 70
1
 10
560.0
 20
5.95
 10
560.0
 20
11.05
 10
563.0
 20
11.05
 10
563.0
 20
14.0
 10
593.0
 20
14.0
 10
593.0
 20
10.0
 10
588.0
 20
10.0
 10
588.0
 20
3.0
 10
580.55
 20
3.0
 10
580.55
 20
0.0
 10
575.45
 20
0.0
 10
575.45
 20
3.0
 10
563.0
 20
3.0
 10
563.0
 20
5.95
  0
LWPOLYLINE
  5
56
330
17
100
AcDbEntity
  8
OUTLINE
 62
1
100
AcDbPolyline
 90
14
 70
1
 10
0.0
 20
24.95
 10
0.0
 20
30.05
 10
3.0
 20
30.05
 10
3.0
 20
33.0
 10
33.0
 20
33.0
 10
33.0
 20
29.0
 10
28.0
 20
29.0
 10
28.0
 20
22.0
 10
20.55
 20
22.0
 10
20.55
 20
19.0
 10
15.45
 20
19.0
 10
15.45
 20
22.0
 10
3.0
 20
22.0
 10
3.0
 20
24.95
  0
LWPOLYLINE
  5
57
330
17
100
AcDbEntity
  8
OUTLINE
 62
1
100
AcDbPolyline
 90
16
 70
1
 10
38.0
 20
24.95
 10
38.0
 20
30.05
 10
41.0
 20
30.05
 10
41.0
 20
33.0
 10
63.7
 20
33.0
 10
63.7
 20
27.0
 10
65.3
 20
27.0
 10
65.3
 20
33.0
 10
71.0
 20
33.0
 10
71.0
 20
22.0
 10
58.55
 20
22.0
 10
58.55
 20
19.0
 10
53.45
 20
19.0
 10
53.45
 20
22.0
 10
41.0
 20
22.0
 10
41.0
 20
24.95
  0
LWPOLYLINE
  5
58
330
17
100
AcDbEntity
  8
OUTLINE
 62
1
100
AcDbPolyline
 90
16
 70
1
 10
76.0
 20
24.95
 10
76.0
 20
30.05
 10
79.0
 20
30.05
 10
79.0
 20
33.0
 10
101.7
 20
33.0
 10
101.7
 20
27.0
 10
103.3
 20
27.0
 10
103.3
 20
33.0
 10
109.0
 20
33.0
 10
109.0
 20
22.0
 10
96.55
 20
22.0
 10
96.55
 20
19.0
 10
91.45
 20
19.0
 10
91.45
 20
22.0
 10
79.0
 20
22.0
 10
79.0
 20
24.95
  0
LWPOLYLINE
  5
59
330
17
100
AcDbEntity
  8
OUTLINE
 62
1
100
AcDbPolyline
 90
14
 70
1
 10
114.0
 20
24.95
 10
114.0
 20
30.05
 10
117.0
 20
30.05
 10
117.0
 20
33.0
 10
150.0
 20
33.0
 10
150.0
 20
29.0
 10
145.0
 20
29.0
 10
145.0
 20
22.0
 10
136.05
 20
22.0
 10
136.05
 20
19.0
 10
130.95
 20
19.0
 10
130.95
 20
22.0
 10
117.0
 20
22.0
 10
117.0
 20
24.95
  0
LWPOLYLINE
  5
5A
330
17
100
AcDbEntity
  8
OUTLINE
 62
1
100
AcDbPolyline
 90
14
 70
1
 10
155.0
 20
24.95
 10
155.0
 20
30.05
 10
158.0
 20
30.05
 10
158.0
 20
33.0
 10
191.0
 20
33.0
 10
191.0
 20
29.0
 10
186.0
 20
29.0
 10
186.0
 20
22.0
 10
177.05
 20
22.0
 10
177.05
 20
19.0
 10
171.95
 20
19.0
 10
171.95
 20
22.0
 10
158.0
 20
22.0
 10
158.0
 20
24.95
  0
LWPOLYLINE
  5
5B
330
17
100
AcDbEntity
  8
OUTLINE
 62
1
100
AcDbPolyline
 90
16
 70
1
 10
196.0
 20
24.95
 10
196.0
 20
30.05
 10
199.0
 20
30.05
 10
199.0
 20
33.0
 10
224.7
 20
33.0
 10
224.7
 20
27.0
 10
226.3
 20
27.0
 10
226.3
 20
33.0
 10
232.0
 20
33.0
 10
232.0
 20
22.0
 10
218.05
 20
22.0
 10
218.05
 20
19.0
 10
212.95
 20
19.0
 10
212.95
 20
22.0
 10
199.0
 20
22.0
 10
199.0
 20
24.95
  0
LWPOLYLINE
  5
5C
330
17
100
AcDbEntity
  8
OUTLINE
 62
1
100
AcDbPolyline
 90
16
 70
1
 10
237.0
 20
24.95
 10
237.0
 20
30.05
 10
240.0
 20
30.05
 10
240.0
 20
33.0
 10
265.7
 20
33.0
 10
265.7
 20
27.0
 10
267.3
 20
27.0
 10
267.3
 20
33.0
 10
273.0
 20
33.0
 10
273.0
 20
22.0
 10
259.05
 20
22.0
 10
259.05
 20
19.0
 10
253.95
 20
19.0
 10
253.95
 20
22.0
 10
240.0
 20
22.0
 10
240.0
 20
24.95
  0
LWPOLYLINE
  5
5D
330
17
100
AcDbEntity
  8
OUTLINE
 62
1
100
AcDbPolyline
 90
14
 70
1
 10
278.0
 20
24.95
 10
278.0
 20
30.05
 10
281.0
 20
30.05
 10
281.0
 20
33.0
 10
315.0
 20
33.0
 10
315.0
 20
29.0
 10
310.0
 20
29.0
 10
310.0
 20
22.0
 10
300.55
 20
22.0
 10
300.55
 20
19.0
 10
295.45
 20
19.0
 10
295.45
 20
22.0
 10
281.0
 20
22.0
 10
281.0
 20
24.95
  0
LWPOLYLINE
  5
5E
330
17
100
AcDbEntity
  8
OUTLINE
 62
1
100
AcDbPolyline
 90
14
 70
1
 10
320.0
 20
24.95
 10
320.0
 20
30.05
 10
323.0
 20
30.05
 10
323.0
 20
33.0
 10
357.0
 20
33.0
 10
357.0
 20
29.0
 10
352.0
 20
29.0
 10
352.0
 20
22.0
 10
342.55
 20
22.0
 10
342.55
 20
19.0
 10
337.45
 20
19.0
 10
337.45
 20
22.0
 10
323.0
 20
22.0
 10
323.0
 20
24.95
  0
LWPOLYLINE
  5
5F
330
17
100
AcDbEntity
  8
OUTLINE
 62
1
100
AcDbPolyline
 90
14
 70
1
 10
362.0
 20
24.95
 10
362.0
 20
30.05
 10
365.0
 20
30.05
 10
365.0
 20
33.0
 10
399.0
 20
33.0
 10
399.0
 20
29.0
 10
394.0
 20
29.0
 10
394.0
 20
22.0
 10
384.55
 20
22.0
 10
384.55
 20
19.0
 10
379.45
 20
19.0
 10
379.45
 20
22.0
 10
365.0
 20
22.0
 10
365.0
 20
24.95
  0
LWPOLYLINE
  5
60
330
17
100
AcDbEntity
  8
OUTLINE
 62
1
100
AcDbPolyline
 90
14
 70
1
 10
404.0
 20
24.95
 10
404.0
 20
30.05
 10
407.0
 20
30.05
 10
407.0
 20
33.0
 10
441.0
 20
33.0
 10
441.0
 20
29.0
 10
436.0
 20
29.0
 10
436.0
 20
22.0
 10
426.55
 20
22.0
 10
426.55
 20
19.0
 10
421.45
 20
19.0
 10
421.45
 20
22.0
 10
407.0
 20
22.0
 10
407.0
 20
24.95
  0
LWPOLYLINE
  5
61
330
17
100
AcDbEntity
  8
OUTLINE
 62
1
100
AcDbPolyline
 90
14
 70
1
 10
446.0
 20
24.95
 10
446.0
 20
30.05
 10
449.0
 20
30.05
 10
449.0
 20
33.0
 10
483.0
 20
33.0
 10
483.0
 20
29.0
 10
478.0
 20
29.0
 10
478.0
 20
22.0
 10
468.55
 20
22.0
 10
468.55
 20
19.0
 10
463.45
 20
19.0
 10
463.45
 20
22.0
 10
449.0
 20
22.0
 10
449.0
 20
24.95
  0
LWPOLYLINE
  5
62
330
17
100
AcDbEntity
  8
OUTLINE
 62
1
100
AcDbPolyline
 90
14
 70
1
 10
488.0
 20
24.95
 10
488.0
 20
30.05
 10
491.0
 20
30.05
 10
491.0
 20
33.0
 10
525.0
 20
33.0
 10
525.0
 20
29.0
 10
520.0
 20
29.0
 10
520.0
 20
22.0
 10
510.55
 20
22.0
 10
510.55
 20
19.0
 10
505.45
 20
19.0
 10
505.45
 20
22.0
 10
491.0
 20
22.0
 10
491.0
 20
24.95
  0
LWPOLYLINE
  5
63
330
17
100
AcDbEntity
  8
OUTLINE
 62
1
100
AcDbPolyline
 90
14
 70
1
 10
530.0
 20
24.95
 10
530.0
 20
30.05
 10
533.0
 20
30.05
 10
533.0
 20
33.0
 10
567.0
 20
33.0
 10
567.0
 20
29.0
 10
562.0
 20
29.0
 10
562.0
 20
22.0
 10
552.55
 20
22.0
 10
552.55
 20
19.0
 10
547.45
 20
19.0
 10
547.45
 20
22.0
 10
533.0
 20
22.0
 10
533.0
 20
24.95
  0
LWPOLYLINE
  5
64
330
17
100
AcDbEntity
  8
OUTLINE
 62
1
100
AcDbPolyline
 90
14
 70
1
 10
0.0
 20
43.95
 10
0.0
 20
49.05
 10
3.0
 20
49.05
 10
3.0
 20
52.0
 10
37.0
 20
52.0
 10
37.0
 20
48.0
 10
32.0
 20
48.0
 10
32.0
 20
41.0
 10
22.55
 20
41.0
 10
22.55
 20
38.0
 10
17.45
 20
38.0
 10
17.45
 20
41.0
 10
3.0
 20
41.0
 10
3.0
 20
43.95
  0
LWPOLYLINE
  5
65
330
17
100
AcDbEntity
  8
OUTLINE
 62
1
100
AcDbPolyline
 90
16
 70
1
 10
42.0
 20
43.95
 10
42.0
 20
49.05
 10
45.0
 20
49.05
 10
45.0
 20
52.0
 10
71.7
 20
52.0
 10
71.7
 20
46.0
 10
73.3
 20
46.0
 10
73.3
 20
52.0
 10
79.0
 20
52.0
 10
79.0
 20
41.0
 10
64.55
 20
41.0
 10
64.55
 20
38.0
 10
59.45
 20
38.0
 10
59.45
 20
41.0
 10
45.0
 20
41.0
 10
45.0
 20
43.95
  0
LWPOLYLINE
  5
66
330
17
100
AcDbEntity
  8
OUTLINE
 62
1
100
AcDbPolyline
 90
16
 70
1
 10
84.0
 20
43.95
 10
84.0
 20
49.05
 10
87.0
 20
49.05
 10
87.0
 20
52.0
 10
113.7
 20
52.0
 10
113.7
 20
46.0
 10
115.3
 20
46.0
 10
115.3
 20
52.0
 10
121.0
 20
52.0
 10
121.0
 20
41.0
 10
106.55
 20
41.0
 10
106.55
 20
38.0
 10
101.45
 20
38.0
 10
101.45
 20
41.0
 10
87.0
 20
41.0
 10
87.0
 20
43.95
  0
LWPOLYLINE
  5
67
330
17
100
AcDbEntity
  8
OUTLINE
 62
1
100
AcDbPolyline
 90
16
 70
1
 10
126.0
 20
43.95
 10
126.0
 20
49.05
 10
129.0
 20
49.05
 10
129.0
 20
52.0
 10
155.7
 20
52.0
 10
155.7
 20
46.0
 10
157.3
 20
46.0
 10
157.3
 20
52.0
 10
163.0
 20
52.0
 10
163.0
 20
41.0
 10
148.55
 20
41.0
 10
148.55
 20
38.0
 10
143.45
 20
38.0
 10
143.45
 20
41.0
 10
129.0
 20
41.0
 10
129.0
 20
43.95
  0
LWPOLYLINE
  5
68
330
17
100
AcDbEntity
  8
OUTLINE
 62
1
100
AcDbPolyline
 90
16
 70
1
 10
168.0
 20
43.95
 10
168.0
 20
49.05
 10
171.0
 20
49.05
 10
171.0
 20
52.0
 10
197.7
 20
52.0
 10
197.7
 20
46.0
 10
199.3
 20
46.0
 10
199.3
 20
52.0
 10
205.0
 20
52.0
 10
205.0
 20
41.0
 10
190.55
 20
41.0
 10
190.55
 20
38.0
 10
185.45
 20
38.0
 10
185.45
 20
41.0
 10
171.0
 20
41.0
 10
171.0
 20
43.95
  0
LWPOLYLINE
  5
69
330
17
100
AcDbEntity
  8
OUTLINE
 62
1
100
AcDbPolyline
 90
16
 70
1
 10
210.0
 20
43.95
 10
210.0
 20
49.05
 10
213.0
 20
49.05
 10
213.0
 20
52.0
 10
239.7
 20
52.0
 10
239.7
 20
46.0
 10
241.3
 20
46.0
 10
241.3
 20
52.0
 10
247.0
 20
52.0
 10
247.0
 20
41.0
 10
232.55
 20
41.0
 10
232.55
 20
38.0
 10
227.45
 20
38.0
 10
227.45
 20
41.0
 10
213.0
 20
41.0
 10
213.0
 20
43.95
  0
LWPOLYLINE
  5
6A
330
17
100
AcDbEntity
  8
OUTLINE
 62
1
100
AcDbPolyline
 90
16
 70
1
 10
252.0
 20
43.95
 10
252.0
 20
49.05
 10
255.0
 20
49.05
 10
255.0
 20
52.0
 10
281.7
 20
52.0
 10
281.7
 20
46.0
 10
283.3
 20
46.0
 10
283.3
 20
52.0
 10
289.0
 20
52.0
 10
289.0
 20
41.0
 10
274.55
 20
41.0
 10
274.55
 20
38.0
 10
269.45
 20
38.0
 10
269.45
 20
41.0
 10
255.0
 20
41.0
 10
255.0
 20
43.95
  0
LWPOLYLINE
  5
6B
330
17
100
AcDbEntity
  8
OUTLINE
 62
1
100
AcDbPolyline
 90
16
 70
1
 10
294.0
 20
43.95
 10
294.0
 20
49.05
 10
297.0
 20
49.05
 10
297.0
 20
52.0
 10
323.7
 20
52.0
 10
323.7
 20
46.0
 10
325.3
 20
46.0
 10
325.3
 20
52.0
 10
331.0
 20
52.0
 10
331.0
 20
41.0
 10
316.55
 20
41.0
 10
316.55
 20
38.0
 10
311.45
 20
38.0
 10
311.45
 20
41.0
 10
297.0
 20
41.0
 10
297.0
 20
43.95
  0
LWPOLYLINE
  5
6C
330
17
100
AcDbEntity
  8
OUTLINE
 62
1
100
AcDbPolyline
 90
16
 70
1
 10
336.0
 20
43.95
 10
336.0
 20
49.05
 10
339.0
 20
49.05
 10
339.0
 20
52.0
 10
365.7
 20
52.0
 10
365.7
 20
46.0
 10
367.3
 20
46.0
 10
367.3
 20
52.0
 10
373.0
 20
52.0
 10
373.0
 20
41.0
 10
358.55
 20
41.0
 10
358.55
 20
38.0
 10
353.45
 20
38.0
 10
353.45
 20
41.0
 10
339.0
 20
41.0
 10
339.0
 20
43.95
  0
LWPOLYLINE
  5
6D
330
17
100
AcDbEntity
  8
OUTLINE
 62
1
100
AcDbPolyline
 90
14
 70
1
 10
378.0
 20
43.95
 10
378.0
 20
49.05
 10
381.0
 20
49.05
 10
381.0
 20
52.0
 10
420.0
 20
52.0
 10
420.0
 20
48.0
 10
415.0
 20
48.0
 10
415.0
 20
41.0
 10
403.05
 20
41.0
 10
403.05
 20
38.0
 10
397.95
 20
38.0
 10
397.95
 20
41.0
 10
381.0
 20
41.0
 10
381.0
 20
43.95
  0
LWPOLYLINE
  5
6E
330
17
100
AcDbEntity
  8
OUTLINE
 62
1
100
AcDbPolyline
 90
14
 70
1
 10
425.0
 20
43.95
 10
425.0
 20
49.05
 10
428.0
 20
49.05
 10
428.0
 20
52.0
 10
467.0
 20
52.0
 10
467.0
 20
48.0
 10
462.0
 20
48.0
 10
462.0
 20
41.0
 10
450.05
 20
41.0
 10
450.05
 20
38.0
 10
444.95
 20
38.0
 10
444.95
 20
41.0
 10
428.0
 20
41.0
 10
428.0
 20
43.95
  0
LWPOLYLINE
  5
6F
330
17
100
AcDbEntity
  8
OUTLINE
 62
1
100
AcDbPolyline
 90
16
 70
1
 10
472.0
 20
43.95
 10
472.0
 20
49.05
 10
475.0
 20
49.05
 10
475.0
 20
52.0
 10
506.7
 20
52.0
 10
506.7
 20
46.0
 10
508.3
 20
46.0
 10
508.3
 20
52.0
 10
514.0
 20
52.0
 10
514.0
 20
41.0
 10
497.05
 20
41.0
 10
497.05
 20
38.0
 10
491.95
 20
38.0
 10
491.95
 20
41.0
 10
475.0
 20
41.0
 10
475.0
 20
43.95
  0
LWPOLYLINE
  5
70
330
17
100
AcDbEntity
  8
OUTLINE
 62
1
100
AcDbPolyline
 90
16
 70
1
 10
519.0
 20
43.95
 10
519.0
 20
49.05
 10
522.0
 20
49.05
 10
522.0
 20
52.0
 10
553.7
 20
52.0
 10
553.7
 20
46.0
 10
555.3
 20
46.0
 10
555.3
 20
52.0
 10
561.0
 20
52.0
 10
561.0
 20
41.0
 10
544.05
 20
41.0
 10
544.05
 20
38.0
 10
538.95
 20
38.0
 10
538.95
 20
41.0
 10
522.0
 20
41.0
 10
522.0
 20
43.95
  0
LWPOLYLINE
  5
71
330
17
100
AcDbEntity
  8
HOUSE_OUTLINE_PANES
100
AcDbPolyline
 90
120
 70
1
 10
75.01466797404507
 20
57.0
 10
0.3386690420443399
 20
57.0
 10
0.0
 20
59.0320034034209
 10
1.6933344442980838
 20
60.72533239565618
 10
0.6773327011268719
 20
61.064006806841746
 10
1.0160017431712118
 20
61.40265968618101
 10
12.700000257792928
 20
61.40265968618101
 10
13.3773329589198
 20
62.0800085085522
 10
14.731998361173543
 20
62.41866138789146
 10
15.239999232759152
 20
63.60398952927153
 10
15.239999232759152
 20
69.69999973953412
 10
14.901335573676617
 20
70.71600144124454
 10
14.901335573676617
 20
73.93333298604549
 10
15.239999232759152
 20
76.98133809117681
 10
14.901335573676617
 20
81.55332421702744
 10
15.239999232759152
 20
84.77066652775153
 10
14.901335573676617
 20
92.05199411347107
 10
15.239999232759152
 20
94.25333472248471
 10
14.901335573676617
 20
94.59199836774715
 10
14.901335573676617
 20
95.94666371472002
 10
15.239999232759152
 20
96.45466456557523
 10
14.901335573676617
 20
99.16399525952093
 10
15.239999232759152
 20
159.27733597272095
 10
14.901335573676617
 20
180.27466499968503
 10
14.901335573676617
 20
186.5400016496173
 10
14.562666531632276
 20
187.55599258540454
 10
14.901335573676617
 20
192.29732668277114
 10
14.223997489587939
 20
192.80532753362635
 10
13.885333830505404
 20
193.31332838448157
 10
14.223997489587939
 20
220.06799321052267
 10
14.223997489587939
 20
223.4546619609164
 10
14.223997489587939
 20
226.84133071131015
 10
14.562666531632276
 20
227.01066791690295
 10
19.134668992940924
 20
227.01066791690295
 10
19.812001694067796
 20
227.34933156216536
 10
22.690664328116554
 20
227.01066791690295
 10
39.11599982506909
 20
227.01066791690295
 10
39.962667047218126
 20
227.34933156216536
 10
39.962667047218126
 20
231.58266480867672
 10
39.6240006966547
 20
232.09066565953194
 10
38.946667995527825
 20
232.59866651038715
 10
38.946667995527825
 20
233.275993800912
 10
39.454666175632525
 20
233.78399465176722
 10
51.13866469025424
 20
233.78399465176722
 10
52.15466643342545
 20
232.7679929500568
 10
52.49333547546979
 20
232.25999209920155
 10
52.49333547546979
 20
231.75199124834634
 10
51.47733373229858
 20
231.41332760308393
 10
51.47733373229858
 20
230.22799946170386
 10
51.47733373229858
 20
229.21199775999344
 10
51.81600277434292
 20
228.7039969091382
 10
51.47733373229858
 20
228.36533326387578
 10
51.81600277434292
 20
227.68799520742778
 10
51.47733373229858
 20
227.34933156216536
 10
52.32400364592852
 20
227.01066791690295
 10
98.21333317374723
 20
227.34933156216536
 10
106.68000001227585
 20
227.01066791690295
 10
107.01866367135838
 20
227.34933156216536
 10
107.01866367135838
 20
233.6146682120976
 10
106.00266192818717
 20
236.1546617004505
 10
106.34133635319331
 20
236.83199975689854
 10
108.20400262703266
 20
236.83199975689854
 10
108.54266628611519
 20
237.17066340216095
 10
109.0506671577008
 20
237.17066340216095
 10
109.38934158270695
 20
237.50932704742337
 10
111.08267064404323
 20
237.50932704742337
 10
111.59067151562883
 20
236.83199975689854
 10
113.11467413038567
 20
236.66266255130574
 10
113.4533377894682
 20
234.79999635347767
 10
112.77599970537952
 20
234.12265829702963
 10
112.77599970537952
 20
227.34933156216536
 10
113.11467413038567
 20
227.01066791690295
 10
124.79867264500737
 20
227.01066791690295
 10
126.49200170634364
 20
227.68799520742778
 10
128.18533076767994
 20
229.04266055440064
 10
130.72533512560796
 20
230.05866225611106
 10
133.265339483536
 20
231.0746639578215
 10
133.94266680170105
 20
231.0746639578215
 10
134.2813412267072
 20
231.41332760308393
 10
134.45066767328666
 20
231.0746639578215
 10
136.82133481871162
 20
231.75199124834634
 10
140.7160045788934
 20
232.42932930479435
 10
144.10266270156595
 20
232.42932930479435
 10
147.1506679310796
 20
232.09066565953194
 10
151.55333856284696
 20
231.0746639578215
 10
156.46401006619996
 20
229.04266055440064
 10
159.3426673172869
 20
227.34933156216536
 10
205.4013340576087
 20
227.34933156216536
 10
205.57066050418814
 20
227.51865800183498
 10
205.9093349291943
 20
229.04266055440064
 10
205.9093349291943
 20
233.1066673612424
 10
204.89333318602309
 20
233.95333185736
 10
205.23200761102925
 20
234.79999635347767
 10
206.07866137577375
 20
235.8159980551881
 10
213.52934800297842
 20
235.8159980551881
 10
214.03732734271676
 20
235.47733440992567
 10
214.03732734271676
 20
234.96933355907046
 10
213.3600000245517
 20
234.12265829702963
 10
213.02134713139276
 20
227.34933156216536
 10
213.3600000245517
 20
227.01066791690295
 10
238.0826732219725
 20
227.01066791690295
 10
250.78267347976544
 20
227.34933156216536
 10
261.7893446762221
 20
227.34933156216536
 10
263.8213481625645
 20
227.68799520742778
 10
264.1600010557234
 20
228.0266588526902
 10
264.66800192730904
 20
227.68799520742778
 10
269.74801064316506
 20
227.68799520742778
 10
270.2560115147507
 20
227.34933156216536
 10
270.5946859397568
 20
193.31332838448157
 10
270.2560115147507
 20
192.29732668277114
 10
269.91733708974454
 20
185.69332638757646
 10
269.91733708974454
 20
158.59999791627294
 10
270.2560115147507
 20
137.43333168371606
 10
270.2560115147507
 20
63.09601021026265
 10
270.7640123863363
 20
62.41866138789146
 10
272.7960158726787
 20
61.741334097366604
 10
286.34266989521615
 20
61.741334097366604
 10
288.2053469349791
 20
59.37065628276014
 10
288.2053469349791
 20
57.33867441118559
 10
75.01466797404507
 20
57.0
  0
LWPOLYLINE
  5
72
330
17
100
AcDbEntity
  8
HOUSE_OUTLINE_PANES
100
AcDbPolyline
 90
4
 70
1
 10
53.170665709150086
 20
178.24265985982495
 10
65.19333237581674
 20
178.24265985982495
 10
65.19333237581674
 20
157.41465985982495
 10
53.170665709150086
 20
157.41465985982495
  0
LWPOLYLINE
  5
73
330
17
100
AcDbEntity
  8
HOUSE_OUTLINE_PANES
100
AcDbPolyline
 90
4
 70
1
 10
79.24799904248341
 20
178.24265985982495
 10
91.10133237581675
 20
178.24265985982495
 10
91.10133237581675
 20
157.41465985982495
 10
79.24799904248341
 20
157.41465985982495
  0
LWPOLYLINE
  5
74
330
17
100
AcDbEntity
  8
HOUSE_OUTLINE_PANES
100
AcDbPolyline
 90
4
 70
1
 10
107.69599904248341
 20
178.24265985982495
 10
119.3799990424834
 20
178.24265985982495
 10
119.3799990424834
 20
157.41465985982495
 10
107.69599904248341
 20
157.41465985982495
  0
LWPOLYLINE
  5
75
330
17
100
AcDbEntity
  8
HOUSE_OUTLINE_PANES
100
AcDbPolyline
 90
4
 70
1
 10
165.77733237581674
 20
178.24265985982495
 10
177.79999904248342
 20
178.24265985982495
 10
177.79999904248342
 20
157.41465985982495
 10
165.77733237581674
 20
157.41465985982495
  0
LWPOLYLINE
  5
76
330
17
100
AcDbEntity
  8
HOUSE_OUTLINE_PANES
100
AcDbPolyline
 90
4
 70
1
 10
194.22533237581675
 20
178.24265985982495
 10
206.07866570915007
 20
178.24265985982495
 10
206.07866570915007
 20
157.41465985982495
 10
194.22533237581675
 20
157.41465985982495
  0
LWPOLYLINE
  5
77
330
17
100
AcDbEntity
  8
HOUSE_OUTLINE_PANES
100
AcDbPolyline
 90
4
 70
1
 10
220.13333237581674
 20
178.24265985982495
 10
231.6479990424834
 20
178.24265985982495
 10
231.6479990424834
 20
157.58399319315828
 10
220.13333237581674
 20
157.58399319315828
  0
LWPOLYLINE
  5
78
330
17
100
AcDbEntity
  8
HOUSE_OUTLINE_PANES
100
AcDbPolyline
 90
4
 70
1
 10
195.74933237581675
 20
212.44799319315828
 10
206.24799904248343
 20
212.44799319315828
 10
206.24799904248343
 20
196.3613265264916
 10
195.74933237581675
 20
196.3613265264916
  0
LWPOLYLINE
  5
79
330
17
100
AcDbEntity
  8
HOUSE_OUTLINE_PANES
100
AcDbPolyline
 90
4
 70
1
 10
220.47199904248342
 20
212.44799319315828
 10
231.13999904248342
 20
212.44799319315828
 10
231.13999904248342
 20
196.3613265264916
 10
220.47199904248342
 20
196.3613265264916
  0
LWPOLYLINE
  5
7A
330
17
100
AcDbEntity
  8
HOUSE_OUTLINE_PANES
100
AcDbPolyline
 90
4
 70
1
 10
245.53333237581674
 20
212.44799319315828
 10
256.70933237581676
 20
212.44799319315828
 10
256.70933237581676
 20
196.19199319315828
 10
245.53333237581674
 20
196.19199319315828
  0
LWPOLYLINE
  5
7B
330
17
100
AcDbEntity
  8
HOUSE_OUTLINE_PANES
100
AcDbPolyline
 90
4
 70
1
 10
194.73333237581673
 20
99.50265985982494
 10
205.57066570915006
 20
99.50265985982494
 10
205.57066570915006
 20
78.67465985982494
 10
194.73333237581673
 20
78.67465985982494
  0
LWPOLYLINE
  5
7C
330
17
100
AcDbEntity
  8
HOUSE_OUTLINE_PANES
100
AcDbPolyline
 90
4
 70
1
 10
220.64133237581675
 20
99.50265985982494
 10
231.30933237581675
 20
99.50265985982494
 10
231.30933237581675
 20
78.84399319315827
 10
220.64133237581675
 20
78.84399319315827
  0
LWPOLYLINE
  5
7D
330
17
100
AcDbEntity
  8
HOUSE_OUTLINE_PANES
100
AcDbPolyline
 90
4
 70
1
 10
246.21066570915008
 20
99.67199319315827
 10
257.0479990424834
 20
99.67199319315827
 10
257.0479990424834
 20
78.84399319315827
 10
246.21066570915008
 20
78.84399319315827
  0
LWPOLYLINE
  5
7E
330
17
100
AcDbEntity
  8
HOUSE_OUTLINE_PANES
100
AcDbPolyline
 90
4
 70
1
 10
28.447999042483417
 20
98.48665985982495
 10
47.582665709150085
 20
98.48665985982495
 10
47.582665709150085
 20
70.88532652649161
 10
28.447999042483417
 20
70.88532652649161
  0
LWPOLYLINE
  5
7F
330
17
100
AcDbEntity
  8
HOUSE_OUTLINE_PANES
100
AcDbPolyline
 90
4
 70
1
 10
74.16799904248342
 20
98.48665985982495
 10
92.79466570915008
 20
98.48665985982495
 10
92.79466570915008
 20
70.88532652649161
 10
74.16799904248342
 20
70.88532652649161
  0
LWPOLYLINE
  5
80
330
17
100
AcDbEntity
  8
HOUSE_OUTLINE_PANES
100
AcDbPolyline
 90
4
 70
1
 10
27.770665709150087
 20
140.4813265264916
 10
39.454665709150085
 20
140.4813265264916
 10
39.454665709150085
 20
119.65332652649161
 10
27.770665709150087
 20
119.65332652649161
  0
LWPOLYLINE
  5
81
330
17
100
AcDbEntity
  8
HOUSE_OUTLINE_PANES
100
AcDbPolyline
 90
4
 70
1
 10
53.509332375816754
 20
140.4813265264916
 10
65.19333237581675
 20
140.4813265264916
 10
65.19333237581675
 20
119.65332652649161
 10
53.509332375816754
 20
119.65332652649161
  0
LWPOLYLINE
  5
82
330
17
100
AcDbEntity
  8
HOUSE_OUTLINE_PANES
100
AcDbPolyline
 90
4
 70
1
 10
79.24799904248341
 20
140.4813265264916
 10
91.10133237581675
 20
140.4813265264916
 10
91.10133237581675
 20
119.65332652649161
 10
79.24799904248341
 20
119.65332652649161
  0
LWPOLYLINE
  5
83
330
17
100
AcDbEntity
  8
HOUSE_OUTLINE_PANES
100
AcDbPolyline
 90
4
 70
1
 10
194.39466570915008
 20
140.4813265264916
 10
206.07866570915007
 20
140.4813265264916
 10
206.07866570915007
 20
119.65332652649161
 10
194.39466570915008
 20
119.65332652649161
  0
LWPOLYLINE
  5
84
330
17
100
AcDbEntity
  8
HOUSE_OUTLINE_PANES
100
AcDbPolyline
 90
4
 70
1
 10
220.30266570915006
 20
140.4813265264916
 10
231.6479990424834
 20
140.4813265264916
 10
231.6479990424834
 20
119.65332652649161
 10
220.30266570915006
 20
119.65332652649161
  0
LWPOLYLINE
  5
85
330
17
100
AcDbEntity
  8
HOUSE_OUTLINE_PANES
100
AcDbPolyline
 90
4
 70
1
 10
246.04133237581675
 20
140.4813265264916
 10
257.5559990424834
 20
140.4813265264916
 10
257.5559990424834
 20
119.82265985982494
 10
246.04133237581675
 20
119.82265985982494
  0
LWPOLYLINE
  5
86
330
17
100
AcDbEntity
  8
HOUSE_OUTLINE_PANES_FOOTPRINTS
100
AcDbPolyline
 90
4
 70
1
 10
188.72933237581674
 20
186.74799319315827
 10
263.72933237581674
 20
186.74799319315827
 10
263.72933237581674
 20
219.74799319315827
 10
188.72933237581674
 20
219.74799319315827
  0
LWPOLYLINE
  5
87
330
17
100
AcDbEntity
  8
HOUSE_OUTLINE_PANES_FOOTPRINTS
100
AcDbPolyline
 90
4
 70
1
 10
204.97933237581674
 20
186.74799319315827
 10
209.97933237581674
 20
186.74799319315827
 10
209.97933237581674
 20
189.64799319315827
 10
204.97933237581674
 20
189.64799319315827
  0
LWPOLYLINE
  5
88
330
17
100
AcDbEntity
  8
HOUSE_OUTLINE_PANES_FOOTPRINTS
100
AcDbPolyline
 90
4
 70
1
 10
242.47933237581674
 20
186.74799319315827
 10
247.47933237581674
 20
186.74799319315827
 10
247.47933237581674
 20
189.64799319315827
 10
242.47933237581674
 20
189.64799319315827
  0
LWPOLYLINE
  5
89
330
17
100
AcDbEntity
  8
HOUSE_OUTLINE_PANES_FOOTPRINTS
100
AcDbPolyline
 90
4
 70
1
 10
188.72933237581674
 20
202.24799319315827
 10
191.62933237581674
 20
202.24799319315827
 10
191.62933237581674
 20
207.24799319315827
 10
188.72933237581674
 20
207.24799319315827
  0
LWPOLYLINE
  5
8A
330
17
100
AcDbEntity
  8
HOUSE_OUTLINE_PANES_FOOTPRINTS
100
AcDbPolyline
 90
4
 70
1
 10
212.02933237581675
 20
202.24799319315827
 10
214.92933237581673
 20
202.24799319315827
 10
214.92933237581673
 20
207.24799319315827
 10
212.02933237581675
 20
207.24799319315827
  0
LWPOLYLINE
  5
8B
330
17
100
AcDbEntity
  8
HOUSE_OUTLINE_PANES_FOOTPRINTS
100
AcDbPolyline
 90
4
 70
1
 10
235.32933237581673
 20
202.24799319315827
 10
238.22933237581674
 20
202.24799319315827
 10
238.22933237581674
 20
207.24799319315827
 10
235.32933237581673
 20
207.24799319315827
  0
LWPOLYLINE
  5
8C
330
17
100
AcDbEntity
  8
HOUSE_OUTLINE_PANES_FOOTPRINTS
100
AcDbPolyline
 90
4
 70
1
 10
260.8293323758167
 20
202.24799319315827
 10
263.72933237581674
 20
202.24799319315827
 10
263.72933237581674
 20
207.24799319315827
 10
260.8293323758167
 20
207.24799319315827
  0
LWPOLYLINE
  5
8D
330
17
100
AcDbEntity
  8
HOUSE_OUTLINE_PANES_FOOTPRINTS
100
AcDbPolyline
 90
4
 70
1
 10
48.775332375816745
 20
148.54265985982494
 10
123.77533237581673
 20
148.54265985982494
 10
123.77533237581673
 20
185.54265985982494
 10
48.775332375816745
 20
185.54265985982494
  0
LWPOLYLINE
  5
8E
330
17
100
AcDbEntity
  8
HOUSE_OUTLINE_PANES_FOOTPRINTS
100
AcDbPolyline
 90
4
 70
1
 10
65.02533237581673
 20
148.54265985982494
 10
70.02533237581673
 20
148.54265985982494
 10
70.02533237581673
 20
151.44265985982494
 10
65.02533237581673
 20
151.44265985982494
  0
LWPOLYLINE
  5
8F
330
17
100
AcDbEntity
  8
HOUSE_OUTLINE_PANES_FOOTPRINTS
100
AcDbPolyline
 90
4
 70
1
 10
102.52533237581673
 20
148.54265985982494
 10
107.52533237581673
 20
148.54265985982494
 10
107.52533237581673
 20
151.44265985982494
 10
102.52533237581673
 20
151.44265985982494
  0
LWPOLYLINE
  5
90
330
17
100
AcDbEntity
  8
HOUSE_OUTLINE_PANES_FOOTPRINTS
100
AcDbPolyline
 90
4
 70
1
 10
48.775332375816745
 20
166.04265985982494
 10
51.675332375816744
 20
166.04265985982494
 10
51.675332375816744
 20
171.04265985982494
 10
48.775332375816745
 20
171.04265985982494
  0
LWPOLYLINE
  5
91
330
17
100
AcDbEntity
  8
HOUSE_OUTLINE_PANES_FOOTPRINTS
100
AcDbPolyline
 90
4
 70
1
 10
72.07533237581674
 20
166.04265985982494
 10
74.97533237581673
 20
166.04265985982494
 10
74.97533237581673
 20
171.04265985982494
 10
72.07533237581674
 20
171.04265985982494
  0
LWPOLYLINE
  5
92
330
17
100
AcDbEntity
  8
HOUSE_OUTLINE_PANES_FOOTPRINTS
100
AcDbPolyline
 90
4
 70
1
 10
95.37533237581673
 20
166.04265985982494
 10
98.27533237581673
 20
166.04265985982494
 10
98.27533237581673
 20
171.04265985982494
 10
95.37533237581673
 20
171.04265985982494
  0
LWPOLYLINE
  5
93
330
17
100
AcDbEntity
  8
HOUSE_OUTLINE_PANES_FOOTPRINTS
100
AcDbPolyline
 90
4
 70
1
 10
120.87533237581673
 20
166.04265985982494
 10
123.77533237581673
 20
166.04265985982494
 10
123.77533237581673
 20
171.04265985982494
 10
120.87533237581673
 20
171.04265985982494
  0
LWPOLYLINE
  5
94
330
17
100
AcDbEntity
  8
HOUSE_OUTLINE_PANES_FOOTPRINTS
100
AcDbPolyline
 90
4
 70
1
 10
161.2126657091501
 20
149.54265985982494
 10
236.2126657091501
 20
149.54265985982494
 10
236.2126657091501
 20
185.54265985982494
 10
161.2126657091501
 20
185.54265985982494
  0
LWPOLYLINE
  5
95
330
17
100
AcDbEntity
  8
HOUSE_OUTLINE_PANES_FOOTPRINTS
100
AcDbPolyline
 90
4
 70
1
 10
177.4626657091501
 20
149.54265985982494
 10
182.4626657091501
 20
149.54265985982494
 10
182.4626657091501
 20
152.44265985982494
 10
177.4626657091501
 20
152.44265985982494
  0
LWPOLYLINE
  5
96
330
17
100
AcDbEntity
  8
HOUSE_OUTLINE_PANES_FOOTPRINTS
100
AcDbPolyline
 90
4
 70
1
 10
214.9626657091501
 20
149.54265985982494
 10
219.9626657091501
 20
149.54265985982494
 10
219.9626657091501
 20
152.44265985982494
 10
214.9626657091501
 20
152.44265985982494
  0
LWPOLYLINE
  5
97
330
17
100
AcDbEntity
  8
HOUSE_OUTLINE_PANES_FOOTPRINTS
100
AcDbPolyline
 90
4
 70
1
 10
161.2126657091501
 20
166.54265985982494
 10
164.1126657091501
 20
166.54265985982494
 10
164.1126657091501
 20
171.54265985982494
 10
161.2126657091501
 20
171.54265985982494
  0
LWPOLYLINE
  5
98
330
17
100
AcDbEntity
  8
HOUSE_OUTLINE_PANES_FOOTPRINTS
100
AcDbPolyline
 90
4
 70
1
 10
184.5126657091501
 20
166.54265985982494
 10
187.41266570915008
 20
166.54265985982494
 10
187.41266570915008
 20
171.54265985982494
 10
184.5126657091501
 20
171.54265985982494
  0
LWPOLYLINE
  5
99
330
17
100
AcDbEntity
  8
HOUSE_OUTLINE_PANES_FOOTPRINTS
100
AcDbPolyline
 90
4
 70
1
 10
207.81266570915008
 20
166.54265985982494
 10
210.7126657091501
 20
166.54265985982494
 10
210.7126657091501
 20
171.54265985982494
 10
207.81266570915008
 20
171.54265985982494
  0
LWPOLYLINE
  5
9A
330
17
100
AcDbEntity
  8
HOUSE_OUTLINE_PANES_FOOTPRINTS
100
AcDbPolyline
 90
4
 70
1
 10
233.31266570915008
 20
166.54265985982494
 10
236.2126657091501
 20
166.54265985982494
 10
236.2126657091501
 20
171.54265985982494
 10
233.31266570915008
 20
171.54265985982494
  0
LWPOLYLINE
  5
9B
330
17
100
AcDbEntity
  8
HOUSE_OUTLINE_PANES_FOOTPRINTS
100
AcDbPolyline
 90
4
 70
1
 10
21.935999042483424
 20
110.78132652649163
 10
96.93599904248342
 20
110.78132652649163
 10
96.93599904248342
 20
147.78132652649163
 10
21.935999042483424
 20
147.78132652649163
  0
LWPOLYLINE
  5
9C
330
17
100
AcDbEntity
  8
HOUSE_OUTLINE_PANES_FOOTPRINTS
100
AcDbPolyline
 90
4
 70
1
 10
38.185999042483424
 20
110.78132652649163
 10
43.185999042483424
 20
110.78132652649163
 10
43.185999042483424
 20
113.6813265264916
 10
38.185999042483424
 20
113.6813265264916
  0
LWPOLYLINE
  5
9D
330
17
100
AcDbEntity
  8
HOUSE_OUTLINE_PANES_FOOTPRINTS
100
AcDbPolyline
 90
4
 70
1
 10
75.68599904248342
 20
110.78132652649163
 10
80.68599904248342
 20
110.78132652649163
 10
80.68599904248342
 20
113.6813265264916
 10
75.68599904248342
 20
113.6813265264916
  0
LWPOLYLINE
  5
9E
330
17
100
AcDbEntity
  8
HOUSE_OUTLINE_PANES_FOOTPRINTS
100
AcDbPolyline
 90
4
 70
1
 10
21.935999042483424
 20
128.28132652649163
 10
24.835999042483422
 20
128.28132652649163
 10
24.835999042483422
 20
133.28132652649163
 10
21.935999042483424
 20
133.28132652649163
  0
LWPOLYLINE
  5
9F
330
17
100
AcDbEntity
  8
HOUSE_OUTLINE_PANES_FOOTPRINTS
100
AcDbPolyline
 90
4
 70
1
 10
45.23599904248342
 20
128.28132652649163
 10
48.13599904248342
 20
128.28132652649163
 10
48.13599904248342
 20
133.28132652649163
 10
45.23599904248342
 20
133.28132652649163
  0
LWPOLYLINE
  5
A0
330
17
100
AcDbEntity
  8
HOUSE_OUTLINE_PANES_FOOTPRINTS
100
AcDbPolyline
 90
4
 70
1
 10
68.53599904248341
 20
128.28132652649163
 10
71.43599904248342
 20
128.28132652649163
 10
71.43599904248342
 20
133.28132652649163
 10
68.53599904248341
 20
133.28132652649163
  0
LWPOLYLINE
  5
A1
330
17
100
AcDbEntity
  8
HOUSE_OUTLINE_PANES_FOOTPRINTS
100
AcDbPolyline
 90
4
 70
1
 10
94.03599904248341
 20
128.28132652649163
 10
96.93599904248342
 20
128.28132652649163
 10
96.93599904248342
 20
133.28132652649163
 10
94.03599904248341
 20
133.28132652649163
  0
LWPOLYLINE
  5
A2
330
17
100
AcDbEntity
  8
HOUSE_OUTLINE_PANES_FOOTPRINTS
100
AcDbPolyline
 90
4
 70
1
 10
188.47533237581672
 20
110.78132652649163
 10
263.4753323758167
 20
110.78132652649163
 10
263.4753323758167
 20
147.78132652649163
 10
188.47533237581672
 20
147.78132652649163
  0
LWPOLYLINE
  5
A3
330
17
100
AcDbEntity
  8
HOUSE_OUTLINE_PANES_FOOTPRINTS
100
AcDbPolyline
 90
4
 70
1
 10
204.72533237581672
 20
110.78132652649163
 10
209.72533237581672
 20
110.78132652649163
 10
209.72533237581672
 20
113.6813265264916
 10
204.72533237581672
 20
113.6813265264916
  0
LWPOLYLINE
  5
A4
330
17
100
AcDbEntity
  8
HOUSE_OUTLINE_PANES_FOOTPRINTS
100
AcDbPolyline
 90
4
 70
1
 10
242.22533237581672
 20
110.78132652649163
 10
247.22533237581672
 20
110.78132652649163
 10
247.22533237581672
 20
113.6813265264916
 10
242.22533237581672
 20
113.6813265264916
  0
LWPOLYLINE
  5
A5
330
17
100
AcDbEntity
  8
HOUSE_OUTLINE_PANES_FOOTPRINTS
100
AcDbPolyline
 90
4
 70
1
 10
188.47533237581672
 20
128.28132652649163
 10
191.37533237581673
 20
128.28132652649163
 10
191.37533237581673
 20
133.28132652649163
 10
188.47533237581672
 20
133.28132652649163
  0
LWPOLYLINE
  5
A6
330
17
100
AcDbEntity
  8
HOUSE_OUTLINE_PANES_FOOTPRINTS
100
AcDbPolyline
 90
4
 70
1
 10
211.77533237581673
 20
128.28132652649163
 10
214.6753323758167
 20
128.28132652649163
 10
214.6753323758167
 20
133.28132652649163
 10
211.77533237581673
 20
133.28132652649163
  0
LWPOLYLINE
  5
A7
330
17
100
AcDbEntity
  8
HOUSE_OUTLINE_PANES_FOOTPRINTS
100
AcDbPolyline
 90
4
 70
1
 10
235.0753323758167
 20
128.28132652649163
 10
237.97533237581672
 20
128.28132652649163
 10
237.97533237581672
 20
133.28132652649163
 10
235.0753323758167
 20
133.28132652649163
  0
LWPOLYLINE
  5
A8
330
17
100
AcDbEntity
  8
HOUSE_OUTLINE_PANES_FOOTPRINTS
100
AcDbPolyline
 90
4
 70
1
 10
260.5753323758167
 20
128.28132652649163
 10
263.4753323758167
 20
128.28132652649163
 10
263.4753323758167
 20
133.28132652649163
 10
260.5753323758167
 20
133.28132652649163
  0
LWPOLYLINE
  5
A9
330
17
100
AcDbEntity
  8
HOUSE_OUTLINE_PANES_FOOTPRINTS
100
AcDbPolyline
 90
4
 70
1
 10
23.12133237581675
 20
63.786659859824965
 10
98.12133237581673
 20
63.786659859824965
 10
98.12133237581673
 20
105.78665985982497
 10
23.12133237581675
 20
105.78665985982497
  0
LWPOLYLINE
  5
AA
330
17
100
AcDbEntity
  8
HOUSE_OUTLINE_PANES_FOOTPRINTS
100
AcDbPolyline
 90
4
 70
1
 10
39.37133237581675
 20
63.786659859824965
 10
44.37133237581675
 20
63.786659859824965
 10
44.37133237581675
 20
66.68665985982497
 10
39.37133237581675
 20
66.68665985982497
  0
LWPOLYLINE
  5
AB
330
17
100
AcDbEntity
  8
HOUSE_OUTLINE_PANES_FOOTPRINTS
100
AcDbPolyline
 90
4
 70
1
 10
76.87133237581673
 20
63.786659859824965
 10
81.87133237581673
 20
63.786659859824965
 10
81.87133237581673
 20
66.68665985982497
 10
76.87133237581673
 20
66.68665985982497
  0
LWPOLYLINE
  5
AC
330
17
100
AcDbEntity
  8
HOUSE_OUTLINE_PANES_FOOTPRINTS
100
AcDbPolyline
 90
4
 70
1
 10
23.12133237581675
 20
83.78665985982497
 10
26.021332375816748
 20
83.78665985982497
 10
26.021332375816748
 20
88.78665985982497
 10
23.12133237581675
 20
88.78665985982497
  0
LWPOLYLINE
  5
AD
330
17
100
AcDbEntity
  8
HOUSE_OUTLINE_PANES_FOOTPRINTS
100
AcDbPolyline
 90
4
 70
1
 10
46.421332375816746
 20
83.78665985982497
 10
49.321332375816745
 20
83.78665985982497
 10
49.321332375816745
 20
88.78665985982497
 10
46.421332375816746
 20
88.78665985982497
  0
LWPOLYLINE
  5
AE
330
17
100
AcDbEntity
  8
HOUSE_OUTLINE_PANES_FOOTPRINTS
100
AcDbPolyline
 90
4
 70
1
 10
69.72133237581673
 20
83.78665985982497
 10
72.62133237581673
 20
83.78665985982497
 10
72.62133237581673
 20
88.78665985982497
 10
69.72133237581673
 20
88.78665985982497
  0
LWPOLYLINE
  5
AF
330
17
100
AcDbEntity
  8
HOUSE_OUTLINE_PANES_FOOTPRINTS
100
AcDbPolyline
 90
4
 70
1
 10
95.22133237581673
 20
83.78665985982497
 10
98.12133237581673
 20
83.78665985982497
 10
98.12133237581673
 20
88.78665985982497
 10
95.22133237581673
 20
88.78665985982497
  0
LWPOLYLINE
  5
B0
330
17
100
AcDbEntity
  8
HOUSE_OUTLINE_PANES_FOOTPRINTS
100
AcDbPolyline
 90
4
 70
1
 10
188.39066570915008
 20
69.97199319315828
 10
263.3906657091501
 20
69.97199319315828
 10
263.3906657091501
 20
106.97199319315828
 10
188.39066570915008
 20
106.97199319315828
  0
LWPOLYLINE
  5
B1
330
17
100
AcDbEntity
  8
HOUSE_OUTLINE_PANES_FOOTPRINTS
100
AcDbPolyline
 90
4
 70
1
 10
204.64066570915008
 20
69.97199319315828
 10
209.64066570915008
 20
69.97199319315828
 10
209.64066570915008
 20
72.87199319315829
 10
204.64066570915008
 20
72.87199319315829
  0
LWPOLYLINE
  5
B2
330
17
100
AcDbEntity
  8
HOUSE_OUTLINE_PANES_FOOTPRINTS
100
AcDbPolyline
 90
4
 70
1
 10
242.14066570915008
 20
69.97199319315828
 10
247.14066570915008
 20
69.97199319315828
 10
247.14066570915008
 20
72.87199319315829
 10
242.14066570915008
 20
72.87199319315829
  0
LWPOLYLINE
  5
B3
330
17
100
AcDbEntity
  8
HOUSE_OUTLINE_PANES_FOOTPRINTS
100
AcDbPolyline
 90
4
 70
1
 10
188.39066570915008
 20
87.47199319315828
 10
191.2906657091501
 20
87.47199319315828
 10
191.2906657091501
 20
92.47199319315828
 10
188.39066570915008
 20
92.47199319315828
  0
LWPOLYLINE
  5
B4
330
17
100
AcDbEntity
  8
HOUSE_OUTLINE_PANES_FOOTPRINTS
100
AcDbPolyline
 90
4
 70
1
 10
211.6906657091501
 20
87.47199319315828
 10
214.59066570915007
 20
87.47199319315828
 10
214.59066570915007
 20
92.47199319315828
 10
211.6906657091501
 20
92.47199319315828
  0
LWPOLYLINE
  5
B5
330
17
100
AcDbEntity
  8
HOUSE_OUTLINE_PANES_FOOTPRINTS
100
AcDbPolyline
 90
4
 70
1
 10
234.99066570915008
 20
87.47199319315828
 10
237.89066570915008
 20
87.47199319315828
 10
237.89066570915008
 20
92.47199319315828
 10
234.99066570915008
 20
92.47199319315828
  0
LWPOLYLINE
  5
B6
330
17
100
AcDbEntity
  8
HOUSE_OUTLINE_PANES_FOOTPRINTS
100
AcDbPolyline
 90
4
 70
1
 10
260.49066570915005
 20
87.47199319315828
 10
263.3906657091501
 20
87.47199319315828
 10
263.3906657091501
 20
92.47199319315828
 10
260.49066570915005
 20
92.47199319315828
  0
LWPOLYLINE
  5
B7
330
17
100
AcDbEntity
  8
HOUSE_OUTLINE
100
AcDbPolyline
 90
120
 70
1
 10
368.22001490902414
 20
57.0
 10
293.54401597702343
 20
57.0
 10
293.2053469349791
 20
59.0320034034209
 10
294.8986813792772
 20
60.72533239565618
 10
293.882679636106
 20
61.064006806841746
 10
294.2213486781503
 20
61.40265968618101
 10
305.905347192772
 20
61.40265968618101
 10
306.5826798938989
 20
62.0800085085522
 10
307.93734529615267
 20
62.41866138789146
 10
308.44534616773825
 20
63.60398952927153
 10
308.44534616773825
 20
69.69999973953412
 10
308.1066825086557
 20
70.71600144124454
 10
308.1066825086557
 20
73.93333298604549
 10
308.44534616773825
 20
76.98133809117681
 10
308.1066825086557
 20
81.55332421702744
 10
308.44534616773825
 20
84.77066652775153
 10
308.1066825086557
 20
92.05199411347107
 10
308.44534616773825
 20
94.25333472248471
 10
308.1066825086557
 20
94.59199836774715
 10
308.1066825086557
 20
95.94666371472002
 10
308.44534616773825
 20
96.45466456557523
 10
308.1066825086557
 20
99.16399525952093
 10
308.44534616773825
 20
159.27733597272095
 10
308.1066825086557
 20
180.27466499968503
 10
308.1066825086557
 20
186.5400016496173
 10
307.76801346661136
 20
187.55599258540454
 10
308.1066825086557
 20
192.29732668277114
 10
307.42934442456703
 20
192.80532753362635
 10
307.09068076548454
 20
193.31332838448157
 10
307.42934442456703
 20
220.06799321052267
 10
307.42934442456703
 20
223.4546619609164
 10
307.42934442456703
 20
226.84133071131015
 10
307.76801346661136
 20
227.01066791690295
 10
312.34001592792004
 20
227.01066791690295
 10
313.0173486290469
 20
227.34933156216536
 10
315.89601126309566
 20
227.01066791690295
 10
332.3213467600482
 20
227.01066791690295
 10
333.16801398219724
 20
227.34933156216536
 10
333.16801398219724
 20
231.58266480867672
 10
332.8293476316338
 20
232.09066565953194
 10
332.15201493050694
 20
232.59866651038715
 10
332.15201493050694
 20
233.275993800912
 10
332.66001311061166
 20
233.78399465176722
 10
344.34401162523335
 20
233.78399465176722
 10
345.36001336840457
 20
232.7679929500568
 10
345.6986824104489
 20
232.25999209920155
 10
345.6986824104489
 20
231.75199124834634
 10
344.6826806672777
 20
231.41332760308393
 10
344.6826806672777
 20
230.22799946170386
 10
344.6826806672777
 20
229.21199775999344
 10
345.021349709322
 20
228.7039969091382
 10
344.6826806672777
 20
228.36533326387578
 10
345.021349709322
 20
227.68799520742778
 10
344.6826806672777
 20
227.34933156216536
 10
345.52935058090765
 20
227.01066791690295
 10
391.41868010872633
 20
227.34933156216536
 10
399.88534694725496
 20
227.01066791690295
 10
400.2240106063375
 20
227.34933156216536
 10
400.2240106063375
 20
233.6146682120976
 10
399.20800886316624
 20
236.1546617004505
 10
399.5466832881724
 20
236.83199975689854
 10
401.40934956201176
 20
236.83199975689854
 10
401.7480132210943
 20
237.17066340216095
 10
402.2560140926799
 20
237.17066340216095
 10
402.59468851768605
 20
237.50932704742337
 10
404.2880175790223
 20
237.50932704742337
 10
404.7960184506079
 20
236.83199975689854
 10
406.32002106536476
 20
236.66266255130574
 10
406.6586847244473
 20
234.79999635347767
 10
405.98134664035865
 20
234.12265829702963
 10
405.98134664035865
 20
227.34933156216536
 10
406.32002106536476
 20
227.01066791690295
 10
418.00401957998645
 20
227.01066791690295
 10
419.6973486413227
 20
227.68799520742778
 10
421.39067770265905
 20
229.04266055440064
 10
423.93068206058706
 20
230.05866225611106
 10
426.47068641851513
 20
231.0746639578215
 10
427.1480137366801
 20
231.0746639578215
 10
427.4866881616863
 20
231.41332760308393
 10
427.65601460826576
 20
231.0746639578215
 10
430.0266817536907
 20
231.75199124834634
 10
433.92135151387254
 20
232.42932930479435
 10
437.3080096365451
 20
232.42932930479435
 10
440.3560148660587
 20
232.09066565953194
 10
444.75868549782604
 20
231.0746639578215
 10
449.66935700117904
 20
229.04266055440064
 10
452.548014252266
 20
227.34933156216536
 10
498.6066809925878
 20
227.34933156216536
 10
498.77600743916724
 20
227.51865800183498
 10
499.1146818641734
 20
229.04266055440064
 10
499.1146818641734
 20
233.1066673612424
 10
498.0986801210022
 20
233.95333185736
 10
498.43735454600835
 20
234.79999635347767
 10
499.2840083107528
 20
235.8159980551881
 10
506.73469493795756
 20
235.8159980551881
 10
507.24267427769587
 20
235.47733440992567
 10
507.24267427769587
 20
234.96933355907046
 10
506.5653469595308
 20
234.12265829702963
 10
506.22669406637186
 20
227.34933156216536
 10
506.5653469595308
 20
227.01066791690295
 10
531.2880201569516
 20
227.01066791690295
 10
543.9880204147446
 20
227.34933156216536
 10
554.9946916112012
 20
227.34933156216536
 10
557.0266950975436
 20
227.68799520742778
 10
557.3653479907025
 20
228.0266588526902
 10
557.8733488622881
 20
227.68799520742778
 10
562.9533575781442
 20
227.68799520742778
 10
563.4613584497298
 20
227.34933156216536
 10
563.800032874736
 20
193.31332838448157
 10
563.4613584497298
 20
192.29732668277114
 10
563.1226840247236
 20
185.69332638757646
 10
563.1226840247236
 20
158.59999791627294
 10
563.4613584497298
 20
137.43333168371606
 10
563.4613584497298
 20
63.09601021026265
 10
563.9693593213153
 20
62.41866138789146
 10
566.0013628076579
 20
61.741334097366604
 10
579.5480168301953
 20
61.741334097366604
 10
581.4106938699582
 20
59.37065628276014
 10
581.4106938699582
 20
57.33867441118559
 10
368.22001490902414
 20
57.0
  0
ENDSEC
  0
SECTION
  2
OBJECTS
  0
DICTIONARY
  5
A
330
0
100
AcDbDictionary
281
1
  3
ACAD_COLOR
350
B
  3
ACAD_GROUP
350
C
  3
ACAD_LAYOUT
350
D
  3
ACAD_MATERIAL
350
E
  3
ACAD_MLEADERSTYLE
350
F
  3
ACAD_MLINESTYLE
350
10
  3
ACAD_PLOTSETTINGS
350
11
  3
ACAD_PLOTSTYLENAME
350
12
  3
ACAD_SCALELIST
350
14
  3
ACAD_TABLESTYLE
350
15
  3
ACAD_VISUALSTYLE
350
16
  3
EZDXF_META
350
2D
  0
DICTIONARY
  5
B
330
A
100
AcDbDictionary
281
1
  0
DICTIONARY
  5
C
330
A
100
AcDbDictionary
281
1
  0
DICTIONARY
  5
D
330
A
100
AcDbDictionary
281
1
  3
Model
350
1A
  3
Layout1
350
1E
  0
DICTIONARY
  5
E
330
A
100
AcDbDictionary
281
1
  3
ByBlock
350
1F
  3
ByLayer
350
20
  3
Global
350
21
  0
DICTIONARY
  5
F
330
A
100
AcDbDictionary
281
1
  3
Standard
350
2C
  0
DICTIONARY
  5
10
330
A
100
AcDbDictionary
281
1
  3
Standard
350
22
  0
DICTIONARY
  5
11
330
A
100
AcDbDictionary
281
1
  0
ACDBDICTIONARYWDFLT
  5
12
330
A
100
AcDbDictionary
281
1
  3
Normal
350
13
100
AcDbDictionaryWithDefault
340
13
  0
ACDBPLACEHOLDER
  5
13
330
12
  0
DICTIONARY
  5
14
330
A
100
AcDbDictionary
281
1
  0
DICTIONARY
  5
15
330
A
100
AcDbDictionary
281
1
  0
DICTIONARY
  5
16
330
A
100
AcDbDictionary
281
1
  0
LAYOUT
  5
1A
330
D
100
AcDbPlotSettings
  1

  4
A3
  6

 40
7.5
 41
20.0
 42
7.5
 43
20.0
 44
420.0
 45
297.0
 46
0.0
 47
0.0
 48
0.0
 49
0.0
140
0.0
141
0.0
142
1.0
143
1.0
 70
1024
 72
1
 73
0
 74
5
  7

 75
16
 76
0
 77
2
 78
300
147
1.0
148
0.0
149
0.0
100
AcDbLayout
  1
Model
 70
1
 71
0
 10
0.0
 20
0.0
 11
420.0
 21
297.0
 12
0.0
 22
0.0
 32
0.0
 14
1e+20
 24
1e+20
 34
1e+20
 15
-1e+20
 25
-1e+20
 35
-1e+20
146
0.0
 13
0.0
 23
0.0
 33
0.0
 16
1.0
 26
0.0
 36
0.0
 17
0.0
 27
1.0
 37
0.0
 76
1
330
17
  0
LAYOUT
  5
1E
330
D
100
AcDbPlotSettings
  1

  4
A3
  6

 40
7.5
 41
20.0
 42
7.5
 43
20.0
 44
420.0
 45
297.0
 46
0.0
 47
0.0
 48
0.0
 49
0.0
140
0.0
141
0.0
142
1.0
143
1.0
 70
0
 72
1
 73
0
 74
5
  7

 75
16
 76
0
 77
2
 78
300
147
1.0
148
0.0
149
0.0
100
AcDbLayout
  1
Layout1
 70
1
 71
1
 10
0.0
 20
0.0
 11
420.0
 21
297.0
 12
0.0
 22
0.0
 32
0.0
 14
1e+20
 24
1e+20
 34
1e+20
 15
-1e+20
 25
-1e+20
 35
-1e+20
146
0.0
 13
0.0
 23
0.0
 33
0.0
 16
1.0
 26
0.0
 36
0.0
 17
0.0
 27
1.0
 37
0.0
 76
1
330
1B
  0
MATERIAL
  5
1F
102
{ACAD_REACTORS
330
E
102
}
330
E
100
AcDbMaterial
  1
ByBlock
  2

 70
0
 40
1.0
 71
1
 41
1.0
 91
-1023410177
 42
1.0
 72
1
  3

 73
1
 74
1
 75
1
 44
0.5
 73
0
 45
1.0
 46
1.0
 77
1
  4

 78
1
 79
1
170
1
 48
1.0
171
1
  6

172
1
173
1
174
1
140
1.0
141
1.0
175
1
  7

176
1
177
1
178
1
143
1.0
179
1
  8

270
1
271
1
272
1
145
1.0
146
1.0
273
1
  9

274
1
275
1
276
1
 42
1.0
 72
1
  3

 73
1
 74
1
 75
1
 94
63
  0
MATERIAL
  5
20
102
{ACAD_REACTORS
330
E
102
}
330
E
100
AcDbMaterial
  1
ByLayer
  2

 70
0
 40
1.0
 71
1
 41
1.0
 91
-1023410177
 42
1.0
 72
1
  3

 73
1
 74
1
 75
1
 44
0.5
 73
0
 45
1.0
 46
1.0
 77
1
  4

 78
1
 79
1
170
1
 48
1.0
171
1
  6

172
1
173
1
174
1
140
1.0
141
1.0
175
1
  7

176
1
177
1
178
1
143
1.0
179
1
  8

270
1
271
1
272
1
145
1.0
146
1.0
273
1
  9

274
1
275
1
276
1
 42
1.0
 72
1
  3

 73
1
 74
1
 75
1
 94
63
  0
MATERIAL
  5
21
102
{ACAD_REACTORS
330
E
102
}
330
E
100
AcDbMaterial
  1
Global
  2

 70
0
 40
1.0
 71
1
 41
1.0
 91
-1023410177
 42
1.0
 72
1
  3

 73
1
 74
1
 75
1
 44
0.5
 73
0
 45
1.0
 46
1.0
 77
1
  4

 78
1
 79
1
170
1
 48
1.0
171
1
  6

172
1
173
1
174
1
140
1.0
141
1.0
175
1
  7

176
1
177
1
178
1
143
1.0
179
1
  8

270
1
271
1
272
1
145
1.0
146
1.0
273
1
  9

274
1
275
1
276
1
 42
1.0
 72
1
  3

 73
1
 74
1
 75
1
 94
63
  0
MLINESTYLE
  5
22
102
{ACAD_REACTORS
330
10
102
}
330
10
100
AcDbMlineStyle
  2
Standard
 70
0
  3

 62
256
 51
90.0
 52
90.0
 71
2
 49
0.5
 62
256
  6
BYLAYER
 49
-0.5
 62
256
  6
BYLAYER
  0
MLEADERSTYLE
  5
2C
102
{ACAD_REACTORS
330
F
102
}
330
F
100
AcDbMLeaderStyle
179
2
170
2
171
1
172
0
 90
2
 40
0.0
 41
0.0
173
1
 91
-1056964608
 92
-2
290
1
 42
2.0
291
1
 43
8.0
  3
Standard
 44
4.0
300

342
29
174
1
175
1
176
0
178
1
 93
-1056964608
 45
4.0
292
0
297
0
 46
4.0
 94
-1056964608
 47
1.0
 49
1.0
140
1.0
294
1
141
0.0
177
0
142
1.0
295
0
296
0
143
3.75
271
0
272
9
273
9
  0
DICTIONARY
  5
2D
330
A
100
AcDbDictionary
280
1
281
1
  3
CREATED_BY_EZDXF
350
2E
  3
WRITTEN_BY_EZDXF
350
BA
  0
DICTIONARYVAR
  5
2E
330
2D
100
DictionaryVariables
280
0
  1
1.4.4 @ 2026-07-17T10:15:14.792404+00:00
  0
DICTIONARYVAR
  5
BA
330
2D
100
DictionaryVariables
280
0
  1
1.4.4 @ 2026-07-17T10:15:14.805355+00:00
  0
ENDSEC
  0
EOF
