<svg xmlns="http://www.w3.org/2000/svg" width="1754" height="1240" viewBox="0 0 1754 1240">
  <rect x="354" y="509" width="50" height="27" fill="none" stroke="red" stroke-width="2"/>
  <rect x="354" y="547" width="18" height="68" fill="none" stroke="red" stroke-width="2"/>
  <rect x="385" y="547" width="20" height="68" fill="none" stroke="red" stroke-width="2"/>
  <rect x="506" y="547" width="20" height="68" fill="none" stroke="red" stroke-width="2"/>
  <rect x="506" y="509" width="50" height="27" fill="none" stroke="red" stroke-width="2"/>
  <rect x="537" y="547" width="19" height="68" fill="none" stroke="red" stroke-width="2"/>
  <rect x="673" y="548" width="20" height="67" fill="none" stroke="red" stroke-width="2"/>
  <rect x="674" y="509" width="49" height="27" fill="none" stroke="red" stroke-width="2"/>
  <rect x="705" y="547" width="18" height="68" fill="none" stroke="red" stroke-width="2"/>
  <rect x="1016" y="509" width="50" height="27" fill="none" stroke="red" stroke-width="2"/>
  <rect x="1016" y="547" width="19" height="68" fill="none" stroke="red" stroke-width="2"/>
  <rect x="1047" y="547" width="20" height="68" fill="none" stroke="red" stroke-width="2"/>
  <rect x="1184" y="547" width="19" height="68" fill="none" stroke="red" stroke-width="2"/>
  <rect x="1184" y="509" width="51" height="27" fill="none" stroke="red" stroke-width="2"/>
  <rect x="1215" y="547" width="19" height="68" fill="none" stroke="red" stroke-width="2"/>
  <rect x="1336" y="509" width="49" height="27" fill="none" stroke="red" stroke-width="2"/>
  <rect x="1336" y="547" width="18" height="68" fill="none" stroke="red" stroke-width="2"/>
  <rect x="1366" y="547" width="19" height="68" fill="none" stroke="red" stroke-width="2"/>
  <rect x="1195" y="333" width="12" height="47" fill="none" stroke="red" stroke-width="2"/>
  <rect x="1219" y="333" width="13" height="48" fill="none" stroke="red" stroke-width="2"/>
  <rect x="1342" y="333" width="12" height="48" fill="none" stroke="red" stroke-width="2"/>
  <rect x="1366" y="333" width="13" height="48" fill="none" stroke="red" stroke-width="2"/>
  <rect x="1492" y="333" width="13" height="48" fill="none" stroke="red" stroke-width="2"/>
  <rect x="1517" y="333" width="11" height="48" fill="none" stroke="red" stroke-width="2"/>
  <rect x="1184" y="1009" width="19" height="69" fill="none" stroke="red" stroke-width="2"/>
  <rect x="1215" y="1009" width="19" height="69" fill="none" stroke="red" stroke-width="2"/>
  <rect x="1184" y="973" width="49" height="24" fill="none" stroke="red" stroke-width="2"/>
  <rect x="1337" y="1009" width="17" height="69" fill="none" stroke="red" stroke-width="2"/>
  <rect x="1337" y="973" width="48" height="24" fill="none" stroke="red" stroke-width="2"/>
  <rect x="1366" y="1009" width="20" height="69" fill="none" stroke="red" stroke-width="2"/>
  <rect x="1488" y="1009" width="18" height="69" fill="none" stroke="red" stroke-width="2"/>
  <rect x="1488" y="973" width="48" height="24" fill="none" stroke="red" stroke-width="2"/>
  <rect x="1518" y="1009" width="19" height="69" fill="none" stroke="red" stroke-width="2"/>
  <rect x="202" y="1011" width="103" height="119" fill="none" stroke="red" stroke-width="2"/>
  <rect x="471" y="1010" width="101" height="120" fill="none" stroke="red" stroke-width="2"/>
  <rect x="203" y="731" width="50" height="26" fill="none" stroke="red" stroke-width="2"/>
  <rect x="234" y="769" width="19" height="69" fill="none" stroke="red" stroke-width="2"/>
  <rect x="203" y="769" width="19" height="69" fill="none" stroke="red" stroke-width="2"/>
  <rect x="354" y="769" width="20" height="69" fill="none" stroke="red" stroke-width="2"/>
  <rect x="386" y="769" width="19" height="69" fill="none" stroke="red" stroke-width="2"/>
  <rect x="354" y="731" width="51" height="26" fill="none" stroke="red" stroke-width="2"/>
  <rect x="506" y="769" width="20" height="68" fill="none" stroke="red" stroke-width="2"/>
  <rect x="506" y="731" width="51" height="26" fill="none" stroke="red" stroke-width="2"/>
  <rect x="538" y="769" width="19" height="69" fill="none" stroke="red" stroke-width="2"/>
  <rect x="1184" y="769" width="19" height="67" fill="none" stroke="red" stroke-width="2"/>
  <rect x="1184" y="731" width="51" height="26" fill="none" stroke="red" stroke-width="2"/>
  <rect x="1215" y="769" width="19" height="67" fill="none" stroke="red" stroke-width="2"/>
  <rect x="1336" y="769" width="18" height="67" fill="none" stroke="red" stroke-width="2"/>
  <rect x="1336" y="731" width="50" height="26" fill="none" stroke="red" stroke-width="2"/>
  <rect x="1366" y="769" width="20" height="67" fill="none" stroke="red" stroke-width="2"/>
  <rect x="1488" y="769" width="18" height="67" fill="none" stroke="red" stroke-width="2"/>
  <rect x="1488" y="731" width="50" height="26" fill="none" stroke="red" stroke-width="2"/>
  <rect x="1519" y="769" width="19" height="67" fill="none" stroke="red" stroke-width="2"/>
</svg>